<svg width="212" height="28" viewBox="0 0 212 28" fill="none" xmlns="http://www.w3.org/2000/svg">
<path d="M70.1069 6.29895V8.82064C69.4216 7.86554 68.5141 7.09157 67.4628 6.56553C66.356 6.06407 65.1507 5.81784 63.936 5.84505C62.1987 5.81735 60.4862 6.25918 58.9791 7.12391C57.5274 7.9653 56.3396 9.19553 55.5496 10.6759C54.7152 12.2501 54.2927 14.0098 54.3212 15.7913V15.8597C54.3212 15.9822 54.3212 16.1047 54.3212 16.22C54.3212 16.2812 54.3212 16.3425 54.3212 16.4037V16.591C54.3212 16.7207 54.3212 16.8504 54.35 16.9765C54.3517 16.9848 54.3517 16.9934 54.35 17.0017C54.35 17.1206 54.3716 17.2359 54.3896 17.362C54.4076 17.488 54.4076 17.5169 54.4221 17.5925C54.4365 17.6682 54.4473 17.7546 54.4617 17.8375C54.4761 17.9203 54.5013 18.0536 54.5229 18.1617C54.5697 18.3886 54.6274 18.6156 54.6886 18.8389C54.7355 19.001 54.7823 19.1632 54.8363 19.3181C54.8904 19.473 54.9264 19.5774 54.9768 19.7071L54.9984 19.7648C55.0236 19.8332 55.0525 19.9017 55.0813 19.9665L55.1029 20.0169C55.1389 20.1106 55.1822 20.2043 55.2254 20.2943C55.2686 20.3844 55.2902 20.4348 55.3263 20.5033C55.3839 20.6257 55.4451 20.7446 55.51 20.8635C56.2896 22.3264 57.4657 23.54 58.9034 24.365C60.3945 25.2152 62.0865 25.6494 63.8027 25.6223C64.9885 25.6524 66.1664 25.4224 67.2538 24.9486C68.3378 24.4127 69.2984 23.6569 70.0745 22.7295V25.172H74.2173V6.29895H70.1069ZM68.4462 19.9053C67.9317 20.4286 67.3133 20.8385 66.6308 21.1084C65.9483 21.3783 65.2169 21.5022 64.4836 21.4723C63.7418 21.5015 63.0017 21.3798 62.3082 21.1148C61.6147 20.8498 60.9822 20.4469 60.4489 19.9305C60.3696 19.856 60.294 19.7768 60.2219 19.6927C60.2041 19.6732 60.1872 19.6528 60.1715 19.6315C60.1122 19.5677 60.0569 19.5003 60.0058 19.4297L59.9842 19.4045V19.3865C59.9517 19.3469 59.9229 19.3037 59.8941 19.264C59.8653 19.2244 59.8076 19.1451 59.7716 19.0839C59.6774 18.9428 59.592 18.7961 59.5159 18.6444C59.428 18.4741 59.351 18.2984 59.2853 18.1185C59.2565 18.0464 59.2313 17.9744 59.2097 17.9023C59.1772 17.8123 59.152 17.7222 59.1268 17.6285C59.1016 17.5349 59.0764 17.4412 59.0583 17.3475C59.0403 17.2539 59.0259 17.1962 59.0115 17.1206C59.0115 17.1206 59.0115 17.1206 59.0115 17.0918C59.0115 16.9945 58.9827 16.8936 58.9683 16.7964C58.9539 16.6991 58.9395 16.5442 58.9323 16.4109C58.9286 16.3774 58.9286 16.3436 58.9323 16.31C58.9268 16.2549 58.9268 16.1994 58.9323 16.1443C58.9323 16.0687 58.9323 15.993 58.9323 15.9138C58.9308 15.5035 58.9634 15.0939 59.0295 14.689C59.0295 14.5917 59.0619 14.4944 59.0836 14.4008C59.1052 14.3071 59.1124 14.2675 59.1304 14.2026C59.1484 14.1378 59.1592 14.0838 59.1772 14.0261C59.1755 14.0094 59.1755 13.9925 59.1772 13.9757V13.9289L59.2421 13.7271C59.2709 13.6335 59.3069 13.5398 59.3429 13.4461C59.379 13.3525 59.397 13.3128 59.4258 13.248V13.2192C59.487 13.0776 59.5555 12.9393 59.6311 12.8049V12.7833C59.6672 12.7148 59.7104 12.6428 59.75 12.578C59.7896 12.5131 59.8473 12.4194 59.9013 12.3438C59.9557 12.2602 60.0147 12.1796 60.0778 12.1024C60.1201 12.0422 60.1658 11.9845 60.2147 11.9295C60.2796 11.8467 60.3516 11.7674 60.4237 11.6882C60.9155 11.1458 61.5188 10.7162 62.1922 10.4289C62.8656 10.1417 63.5932 10.0035 64.3251 10.0238C64.5124 10.0238 64.6853 10.0238 64.8798 10.0455H64.9915L65.2221 10.0707C65.3157 10.0707 65.4094 10.0851 65.5031 10.1139C65.6039 10.1319 65.6976 10.1499 65.7949 10.1751L66.0038 10.2256L66.1695 10.276L66.3965 10.3517H66.4145C66.5009 10.3805 66.5838 10.4165 66.6666 10.4525C66.7459 10.485 66.8251 10.521 66.9008 10.5606L66.9512 10.5858L67.1277 10.6759L67.207 10.7191L67.3835 10.8272C67.3945 10.8323 67.4044 10.8396 67.4123 10.8488C67.4637 10.8778 67.5131 10.9103 67.56 10.9461C67.6105 10.9785 67.6573 11.0145 67.7041 11.0505L67.9203 11.2198C68.0608 11.3387 68.1977 11.4648 68.3273 11.5981C68.3958 11.6665 68.457 11.735 68.5183 11.8034L68.6552 11.9655C68.7092 12.0304 68.7632 12.1024 68.8137 12.1709C68.8641 12.2393 68.8857 12.2717 68.9217 12.3222V12.3438L68.9434 12.3762C68.9938 12.4519 69.0406 12.5239 69.0839 12.6032C69.1137 12.6467 69.1402 12.6925 69.1631 12.7401C69.2027 12.8085 69.2388 12.877 69.2748 12.949C69.3108 13.021 69.3504 13.1003 69.3829 13.1796C69.4153 13.2588 69.4261 13.2768 69.4441 13.3273C69.4621 13.3777 69.4945 13.4533 69.5161 13.5182C69.5378 13.583 69.5702 13.6695 69.5954 13.7451C69.6206 13.8208 69.6422 13.9036 69.6638 13.9865C69.6855 14.0694 69.7107 14.163 69.7287 14.2495C69.7467 14.3359 69.7539 14.3684 69.7647 14.4296C69.7755 14.4908 69.7863 14.5341 69.7935 14.5881C69.8007 14.6421 69.7935 14.6133 69.7935 14.6277C69.7935 14.6998 69.8151 14.7718 69.8224 14.8475C69.8296 14.9231 69.8476 15.0456 69.8548 15.1465C69.862 15.2473 69.8548 15.3518 69.8728 15.4563C69.8908 15.5607 69.8728 15.6652 69.8728 15.7733C69.9304 17.4856 69.4549 18.863 68.4462 19.9053Z" fill="#FB7911"/>
<path d="M53.9102 11.562H53.993V11.3458L53.9102 11.562Z" fill="white"/>
<path d="M53.9102 11.562H53.993V11.3458L53.9102 11.562Z" fill="white"/>
<path d="M77.9414 0.0090332V4.26708H82.466V0.0090332H77.9414Z" fill="#FB7911"/>
<path d="M82.466 6.29895H77.9414V25.1792H82.466V6.29895Z" fill="#FB7911"/>
<path d="M94.7435 5.86653V10.2254C92.0393 10.2903 90.686 11.7757 90.6836 14.6816V25.179H86.1445V6.29882H90.2873V8.14685C90.7304 7.42071 91.3328 6.8048 92.0489 6.34565C92.774 5.99115 93.5771 5.8263 94.3832 5.86653H94.7435Z" fill="#FB7911"/>
<path d="M95.4961 25.179V20.8201H100.021V25.179H95.4961Z" fill="#FB7911"/>
<path d="M185.984 20.6909C185.782 20.8744 185.569 21.0454 185.346 21.2029C183.976 22.1595 182.336 22.6536 180.666 22.6129C179.572 22.6214 178.488 22.4116 177.477 21.9957C176.506 21.5982 175.618 21.0205 174.862 20.2931C174.121 19.5632 173.53 18.6957 173.121 17.7392C172.688 16.7516 172.467 15.6843 172.472 14.6061C172.455 13.1768 172.822 11.7692 173.537 10.531C174.232 9.31696 175.243 8.31332 176.462 7.62611C177.71 6.91723 179.123 6.55182 180.558 6.56711C181.631 6.5617 182.697 6.76025 183.697 7.15219C185.241 7.76497 186.556 8.84243 187.461 10.2356C187.799 10.8086 188.073 11.4168 188.278 12.0493H184.129C183.41 10.6471 182.219 9.94497 180.558 9.94302C179.972 9.92308 179.39 10.0278 178.848 10.2502C178.306 10.4726 177.818 10.8077 177.416 11.2331C176.583 12.138 176.143 13.3364 176.193 14.5651C176.174 15.1773 176.277 15.7871 176.494 16.3595C176.712 16.9318 177.041 17.4554 177.462 17.9001C177.87 18.3329 178.364 18.675 178.912 18.9043C179.461 19.1337 180.051 19.245 180.645 19.2312C181.33 19.2498 182.007 19.0841 182.605 18.7514C183.223 18.3624 183.743 17.8357 184.124 17.2126H188.272C187.808 18.543 187.022 19.7379 185.984 20.6909Z" fill="#637381"/>
<path d="M102.669 27.3723V6.91787H106.033V8.7287C107.246 7.28745 108.925 6.56683 111.071 6.56683C112.449 6.54558 113.808 6.89733 115.002 7.58487C116.158 8.26064 117.102 9.2467 117.726 10.4313C118.389 11.6934 118.725 13.1015 118.703 14.5268C118.726 15.9683 118.387 17.3924 117.717 18.6692C117.09 19.8669 116.143 20.8674 114.982 21.5595C113.791 22.2648 112.428 22.6272 111.044 22.6068C110.182 22.6202 109.325 22.4734 108.517 22.1738C107.718 21.8572 106.982 21.4005 106.343 20.8252V27.3781L102.669 27.3723ZM110.518 9.94274C109.931 9.93156 109.348 10.0458 108.809 10.2779C108.27 10.51 107.786 10.8545 107.391 11.2884C106.543 12.1965 106.089 13.4025 106.127 14.6439C106.111 15.2492 106.217 15.8515 106.44 16.4146C106.662 16.9777 106.997 17.4899 107.423 17.9203C107.839 18.3509 108.339 18.6904 108.893 18.9175C109.447 19.1446 110.042 19.2543 110.641 19.2397C111.222 19.2474 111.799 19.132 112.333 18.9011C112.867 18.6702 113.346 18.329 113.739 17.8998C114.155 17.4613 114.482 16.9449 114.698 16.3802C114.915 15.8155 115.019 15.2135 115.002 14.6087C115.023 13.9942 114.921 13.3817 114.703 12.8067C114.485 12.2318 114.155 11.7058 113.733 11.2592C113.319 10.8263 112.819 10.4853 112.266 10.2585C111.712 10.0317 111.116 9.92411 110.518 9.94274Z" fill="#637381"/>
<path d="M120.973 22.2501V6.91807H124.337V8.4188C124.697 7.82823 125.188 7.32789 125.771 6.9561C126.357 6.66733 127.008 6.53244 127.661 6.56409H127.953V10.1038C125.757 10.1565 124.658 11.3627 124.656 13.7225V22.2501H120.973Z" fill="#637381"/>
<path d="M136.984 6.56708C138.043 6.56284 139.093 6.76799 140.074 7.17075C141.054 7.57351 141.945 8.16594 142.695 8.91402C143.446 9.66209 144.041 10.5511 144.447 11.5299C144.853 12.5087 145.061 13.5581 145.061 14.6178C145.07 16.0269 144.693 17.4117 143.972 18.6226C143.262 19.8437 142.239 20.8535 141.009 21.548C139.136 22.6174 136.918 22.9099 134.832 22.3631C132.745 21.8162 130.956 20.4733 129.849 18.6226C129.125 17.4128 128.746 16.0276 128.755 14.6178C128.756 13.5563 128.968 12.5055 129.377 11.526C129.786 10.5465 130.385 9.65759 131.139 8.91032C132.714 7.40487 134.81 6.56638 136.99 6.57001L136.984 6.56708ZM136.834 9.94299C136.253 9.9395 135.677 10.0601 135.145 10.2966C134.613 10.5332 134.138 10.8804 133.751 11.315C132.905 12.194 132.442 13.3718 132.461 14.5914C132.45 15.1969 132.559 15.7985 132.782 16.3618C133.004 16.925 133.336 17.4388 133.757 17.8737C134.151 18.3089 134.633 18.6556 135.171 18.8911C135.709 19.1265 136.291 19.2454 136.878 19.2399C137.469 19.2467 138.055 19.1291 138.597 18.8948C139.139 18.6604 139.626 18.3145 140.026 17.8796C140.455 17.4526 140.794 16.9439 141.022 16.3836C141.251 15.8233 141.365 15.2229 141.357 14.6178C141.372 14.0043 141.264 13.3942 141.039 12.8233C140.814 12.2525 140.476 11.7326 140.047 11.2945C139.636 10.8567 139.138 10.5101 138.584 10.2773C138.031 10.0444 137.435 9.93055 136.834 9.94299Z" fill="#637381"/>
<path d="M147.738 22.2501V10.2559H145.941V6.91805H147.738V1.8103H151.412V6.91805H153.626V10.2676H151.412V22.2618L147.738 22.2501Z" fill="#637381"/>
<path d="M162.868 6.56707C163.927 6.56322 164.977 6.76861 165.957 7.17148C166.937 7.57434 167.828 8.16674 168.579 8.9147C169.33 9.66266 169.925 10.5515 170.332 11.5301C170.738 12.5088 170.947 13.5581 170.947 14.6178C170.956 16.0269 170.58 17.4117 169.859 18.6226C169.147 19.8432 168.123 20.8528 166.893 21.548C165.02 22.618 162.803 22.9109 160.717 22.3639C158.631 21.817 156.842 20.4737 155.735 18.6226C155.01 17.4133 154.632 16.0278 154.641 14.6178C154.641 13.556 154.852 12.5047 155.261 11.525C155.67 10.5452 156.27 9.65651 157.025 8.91031C158.601 7.40486 160.697 6.56637 162.876 6.57L162.868 6.56707ZM162.712 9.94298C162.132 9.94003 161.558 10.0609 161.029 10.2975C160.499 10.5341 160.026 10.881 159.641 11.315C158.794 12.1933 158.33 13.3716 158.351 14.5914C158.339 15.197 158.448 15.7988 158.671 16.3621C158.893 16.9254 159.225 17.4392 159.647 17.8737C160.041 18.3093 160.523 18.6563 161.061 18.8918C161.599 19.1273 162.181 19.246 162.768 19.2399C163.361 19.2481 163.949 19.1311 164.494 18.8967C165.039 18.6624 165.528 18.3158 165.93 17.8796C166.355 17.4505 166.69 16.941 166.915 16.3808C167.14 15.8207 167.251 15.2213 167.241 14.6178C167.255 14.0044 167.147 13.3944 166.922 12.8237C166.696 12.2529 166.359 11.733 165.93 11.2945C165.519 10.8565 165.019 10.5099 164.465 10.2771C163.911 10.0443 163.314 9.93045 162.712 9.94298Z" fill="#637381"/>
<path d="M184.129 17.2126H188.278C187.812 18.5436 187.024 19.7386 185.984 20.6909C185.782 20.8744 185.569 21.0454 185.346 21.2029C183.976 22.1595 182.336 22.6536 180.666 22.6129C179.572 22.6214 178.488 22.4116 177.477 21.9957C176.506 21.5982 175.618 21.0205 174.862 20.2931C174.121 19.5632 173.53 18.6957 173.121 17.7392C172.688 16.7516 172.467 15.6843 172.472 14.6061C172.455 13.1768 172.822 11.7692 173.537 10.531C174.232 9.31696 175.243 8.31332 176.462 7.62611C177.71 6.91723 179.123 6.55182 180.558 6.56711C181.631 6.5617 182.697 6.76025 183.697 7.15219C185.241 7.76497 186.556 8.84243 187.461 10.2356C187.799 10.8086 188.073 11.4168 188.278 12.0493H184.129C183.41 10.6471 182.219 9.94497 180.558 9.94302C179.972 9.92308 179.39 10.0278 178.848 10.2502C178.306 10.4726 177.818 10.8077 177.416 11.2331C176.583 12.138 176.143 13.3364 176.193 14.5651C176.174 15.1773 176.277 15.7871 176.494 16.3595C176.712 16.9318 177.041 17.4554 177.462 17.9001C177.87 18.3329 178.364 18.675 178.912 18.9043C179.461 19.1337 180.051 19.245 180.645 19.2312C181.33 19.2498 182.007 19.0841 182.605 18.7514C183.225 18.3631 183.747 17.8364 184.129 17.2126Z" fill="#637381"/>
<path d="M206.067 14.4773C206.067 14.2725 206.067 14.0707 206.035 13.8688C206 13.4513 205.93 13.0374 205.827 12.6314C205.81 12.5583 205.789 12.4851 205.769 12.412C205.734 12.2891 205.696 12.1662 205.655 12.0434C205.653 12.0366 205.653 12.0297 205.655 12.0229C205.614 11.9059 205.57 11.7889 205.523 11.6719C205.491 11.5841 205.453 11.4963 205.415 11.4115C205.377 11.3267 205.304 11.1628 205.242 11.04L205.154 10.8703C205.105 10.7738 205.052 10.6801 204.996 10.5778C204.285 9.35181 203.264 8.33482 202.035 7.62918C200.806 6.92354 199.413 6.55417 197.996 6.55826C195.817 6.55464 193.721 7.39313 192.145 8.89858C191.39 9.64477 190.79 10.5335 190.381 11.5133C189.971 12.493 189.761 13.5442 189.761 14.606C189.753 16.0159 190.131 17.4011 190.855 18.6109C190.884 18.6606 190.913 18.7104 190.946 18.7572C191.042 18.9151 191.145 19.0673 191.238 19.2135C191.332 19.3598 191.493 19.5558 191.627 19.7167L191.776 19.8864C192.012 20.1525 192.266 20.4017 192.537 20.6323C192.634 20.7113 192.733 20.7932 192.83 20.8693C192.926 20.9454 193.026 21.0185 193.122 21.0887L193.187 21.1326C193.274 21.194 193.362 21.2496 193.45 21.3052C193.538 21.3608 193.687 21.4544 193.81 21.5246C195.059 22.23 196.47 22.6007 197.905 22.6007C199.34 22.6007 200.751 22.23 202.001 21.5246C203.23 20.8283 204.252 19.819 204.964 18.5992C205.685 17.3883 206.061 16.0035 206.052 14.5943C206.07 14.5709 206.07 14.5241 206.067 14.4773ZM202.308 15.314C202.308 15.3871 202.287 15.4632 202.273 15.5363C202.258 15.6094 202.246 15.6738 202.229 15.7411C202.211 15.8084 202.188 15.9049 202.165 15.9868C202.141 16.0687 202.129 16.1068 202.106 16.1682C202.083 16.2296 202.068 16.2764 202.048 16.3291C202.027 16.3817 202.004 16.4403 201.98 16.4958V16.5134C201.928 16.6363 201.866 16.7591 201.802 16.8761C201.775 16.9259 201.746 16.9756 201.717 17.0253C201.688 17.0751 201.658 17.1189 201.626 17.1658C201.6 17.2104 201.57 17.2534 201.539 17.2945L201.468 17.3939C201.336 17.5658 201.191 17.7281 201.035 17.8796C200.635 18.3142 200.148 18.6599 199.606 18.8942C199.064 19.1286 198.478 19.2463 197.888 19.2399H197.662C197.48 19.2311 197.298 19.2116 197.118 19.1814L196.978 19.1521C196.804 19.1163 196.633 19.0684 196.466 19.0088H196.445C196.375 18.9854 196.302 18.9561 196.235 18.9268C196.182 18.9064 196.13 18.883 196.08 18.8566C195.813 18.7316 195.561 18.5775 195.328 18.3973L195.193 18.2862C195.043 18.1621 194.901 18.0293 194.766 17.8883C194.614 17.7284 194.474 17.5583 194.345 17.3793C194.238 17.2312 194.141 17.0769 194.052 16.9171C193.968 16.771 193.894 16.6195 193.83 16.4637C193.776 16.3357 193.729 16.2049 193.69 16.0717C193.672 16.0219 193.657 15.9722 193.643 15.9195C193.575 15.6675 193.528 15.4101 193.502 15.1502C193.5 15.1063 193.5 15.0623 193.502 15.0185C193.502 14.96 193.502 14.9015 193.502 14.843C193.502 14.7845 193.502 14.685 193.502 14.606C193.483 13.3864 193.947 12.2086 194.793 11.3296C195.179 10.8961 195.652 10.5496 196.182 10.313C196.712 10.0765 197.287 9.95533 197.867 9.95757C198.459 9.94976 199.046 10.0645 199.591 10.2946C200.136 10.5247 200.628 10.8651 201.035 11.2945C201.091 11.3501 201.144 11.4086 201.193 11.4671C201.246 11.5229 201.296 11.5815 201.343 11.6426C201.437 11.7599 201.526 11.882 201.609 12.0083C201.644 12.0639 201.679 12.1165 201.711 12.1721C201.743 12.2277 201.811 12.3476 201.854 12.4354C201.913 12.5496 201.966 12.6668 202.012 12.7864C202.116 13.0489 202.195 13.3201 202.249 13.5968C202.249 13.6406 202.267 13.6875 202.273 13.7343C202.274 13.743 202.274 13.7519 202.273 13.7606C202.305 13.964 202.326 14.1691 202.334 14.3749C202.334 14.4539 202.334 14.5358 202.334 14.6177C202.342 14.8501 202.333 15.0828 202.308 15.314Z" fill="#637381"/>
<path d="M212 1.8103H208.326V22.2501H212V1.8103Z" fill="#637381"/>
<path d="M34.2229 9.9267C34.222 8.33179 33.8269 6.76182 33.0727 5.3565C32.3185 3.95118 31.2286 2.75408 29.9 1.87171C28.6053 0.985997 27.1543 0.354003 25.6239 0.00926316C25.5395 -0.00516143 25.4531 -0.00271941 25.3696 0.0164482C25.2861 0.0356158 25.2073 0.0711292 25.1376 0.120938C24.9945 0.223122 24.8973 0.377459 24.867 0.550657C24.8367 0.723854 24.8756 0.902032 24.9755 1.04676C25.0231 1.11817 25.0847 1.17923 25.1565 1.22628C25.2283 1.27332 25.3089 1.30539 25.3934 1.32054C26.7615 1.63914 28.0578 2.21095 29.2155 3.00647C29.4749 3.18659 29.7235 3.36671 29.9612 3.57565C28.7211 2.99659 27.3672 2.70241 25.9986 2.71467H25.678C21.582 2.82995 19.2261 5.08506 17.1331 5.08506C15.0401 5.08506 12.6661 2.83355 8.56653 2.71828H8.24952C6.88113 2.70403 5.52698 2.99702 4.28687 3.57565C4.51728 3.37502 4.75775 3.18625 5.00735 3.01007C6.16428 2.21945 7.45968 1.65363 8.8259 1.34215C8.91126 1.32683 8.99263 1.29434 9.06507 1.24666C9.13752 1.19898 9.19954 1.1371 9.24739 1.06477C9.35172 0.920169 9.39447 0.740101 9.36626 0.564034C9.35188 0.478022 9.32 0.395875 9.2726 0.322673C9.22635 0.249466 9.16642 0.185864 9.09608 0.135347C9.02571 0.0853697 8.94612 0.0498599 8.86193 0.0308776C8.77762 0.0128755 8.69046 0.0128755 8.60616 0.0308776C7.07323 0.365011 5.619 0.991224 4.32289 1.87531C3.02544 2.73151 1.95457 3.88909 1.20177 5.24914C0.448977 6.60919 0.0366413 8.13128 0 9.68534C0 9.87987 0 10.078 0 10.2797C0 14.4585 3.35024 17.8448 8.24952 17.8448H8.56653C11.6574 17.7583 13.7576 16.4543 15.494 15.8166L13.79 20.4637C13.7529 20.565 13.7406 20.6737 13.754 20.7808C13.7656 20.8871 13.804 20.9888 13.8657 21.0762C13.9222 21.1654 14.0019 21.2376 14.0962 21.2851C14.1897 21.3344 14.2932 21.3615 14.3988 21.3643H19.4998C19.586 21.3638 19.6713 21.346 19.7505 21.312C19.8297 21.278 19.9012 21.2284 19.961 21.1662C20.084 21.0415 20.1526 20.8731 20.1519 20.6979C20.152 20.5218 20.0835 20.3525 19.961 20.226C19.9011 20.1643 19.8294 20.1153 19.7502 20.0819C19.6709 20.0485 19.5858 20.0313 19.4998 20.0315H15.3463L17.0142 15.4744H17.1078C19.2008 15.4744 21.5568 17.7295 25.6528 17.8448H25.9734C30.8762 17.8448 34.2229 14.4585 34.2229 10.2797C34.2229 10.1609 34.2229 10.042 34.2229 9.9267ZM8.8259 13.2877C6.2754 13.2877 4.50301 12.0485 4.50301 10.2797C4.50301 8.51095 6.2826 7.27172 8.8259 7.27172C11.4773 7.27172 13.7252 8.64784 13.7252 10.2797C13.7252 11.9116 11.4773 13.2877 8.8259 13.2877ZM25.397 13.2877C22.742 13.2877 20.4941 11.908 20.4941 10.2797C20.4941 8.65144 22.7312 7.27172 25.397 7.27172C27.9439 7.27172 29.7199 8.50735 29.7199 10.2797C29.7199 12.0521 27.9403 13.2877 25.3934 13.2877H25.397Z" fill="#FB7911"/>
<path d="M10.5046 11.2631C10.6998 11.2667 10.8917 11.2121 11.0558 11.1062C11.2198 11.0004 11.3487 10.848 11.4259 10.6687C11.5031 10.4893 11.5252 10.291 11.4893 10.0991C11.4534 9.90715 11.3612 9.73024 11.2244 9.59089C11.0876 9.45155 10.9124 9.35608 10.7212 9.31665C10.5299 9.27722 10.3313 9.29561 10.1505 9.36949C9.96975 9.44336 9.81508 9.56938 9.7062 9.73147C9.59732 9.89357 9.53916 10.0844 9.53912 10.2797C9.5377 10.4077 9.56156 10.5348 9.60936 10.6536C9.65715 10.7723 9.72792 10.8805 9.81762 10.9719C9.90732 11.0633 10.0142 11.136 10.1321 11.186C10.2499 11.236 10.3765 11.2622 10.5046 11.2631Z" fill="#FB7911"/>
<path d="M27.2916 11.2631C27.4869 11.2667 27.6788 11.2121 27.8428 11.1062C28.0069 11.0004 28.1358 10.848 28.213 10.6687C28.2902 10.4893 28.3123 10.291 28.2764 10.0991C28.2405 9.90715 28.1483 9.73024 28.0115 9.59089C27.8747 9.45155 27.6995 9.35608 27.5082 9.31665C27.317 9.27722 27.1183 9.29561 26.9376 9.36949C26.7568 9.44336 26.6022 9.56938 26.4933 9.73147C26.3844 9.89357 26.3262 10.0844 26.3262 10.2797C26.3243 10.538 26.4248 10.7865 26.6058 10.9709C26.7867 11.1552 27.0334 11.2603 27.2916 11.2631Z" fill="#FB7911"/>
<path d="M24.2619 21.6236C21.452 24.4155 14.4093 23.9471 14.3373 23.9435C14.252 23.9365 14.1661 23.947 14.085 23.9742C14.0039 24.0015 13.9291 24.045 13.8653 24.102C13.7335 24.2196 13.6522 24.3835 13.6384 24.5596C13.6347 24.6472 13.6457 24.7349 13.6708 24.8189C13.6998 24.9011 13.7425 24.9778 13.7969 25.0459C13.8546 25.1114 13.9243 25.1652 14.0022 25.2044C14.0778 25.245 14.1615 25.2684 14.2472 25.2728C14.3265 25.2728 14.8416 25.3125 15.6197 25.3125C17.9721 25.3125 22.7417 24.9954 25.1697 22.5962C25.2923 22.4704 25.3609 22.3018 25.3609 22.1261C25.3609 21.9505 25.2923 21.7818 25.1697 21.656C25.1114 21.5916 25.0402 21.54 24.9608 21.5047C24.8014 21.4398 24.623 21.4398 24.4636 21.5047C24.3833 21.5373 24.3099 21.585 24.2475 21.6452L24.2619 21.6236Z" fill="#FB7911"/>
<path d="M43.9993 15.0768H51.8672V10.5459H43.9993V4.53092H52.2348V0H39.2661V25.5771H43.9993V15.0768Z" fill="#FB7911"/>
<path fill-rule="evenodd" clip-rule="evenodd" d="M211.821 26.6579H110.233V24.8567H211.821V26.6579Z" fill="#637381"/>
</svg>
