<svg width="24" height="24" viewBox="0 0 24 24" fill="none" xmlns="http://www.w3.org/2000/svg">
<path d="M12 16C11.8087 16 11.6231 15.9656 11.4432 15.8969C11.2634 15.8282 11.1141 15.7366 10.9955 15.6221L4.39462 9.30152C4.13154 9.04961 4 8.729 4 8.33969C4 7.95038 4.13154 7.62977 4.39462 7.37786C4.6577 7.12595 4.99253 7 5.3991 7C5.80568 7 6.14051 7.12595 6.40359 7.37786L12 12.7366L17.5964 7.37786C17.8595 7.12595 18.1943 7 18.6009 7C19.0075 7 19.3423 7.12595 19.6054 7.37786C19.8685 7.62977 20 7.95038 20 8.33969C20 8.729 19.8685 9.04961 19.6054 9.30152L13.0045 15.6221C12.861 15.7595 12.7055 15.8571 12.5381 15.9148C12.3707 15.9725 12.1913 16.0009 12 16Z" fill="#939EA8"/>
</svg>
