<svg width="15" height="14" viewBox="0 0 15 14" fill="none" xmlns="http://www.w3.org/2000/svg">
<path fill-rule="evenodd" clip-rule="evenodd" d="M6.25586 0.55957C5.72543 0.55957 5.21672 0.770284 4.84165 1.14536C4.46657 1.52043 4.25586 2.02914 4.25586 2.55957V3.22624H2.25586C1.15129 3.22624 0.255859 4.12167 0.255859 5.22624V11.8929C0.255859 12.9975 1.15129 13.8929 2.25586 13.8929H4.92253H10.2559H12.9225C14.0271 13.8929 14.9225 12.9975 14.9225 11.8929V5.22624C14.9225 4.12167 14.0271 3.22624 12.9225 3.22624H10.9225V2.55957C10.9225 2.02914 10.7118 1.52043 10.3367 1.14536C9.96167 0.770284 9.45296 0.55957 8.92253 0.55957H6.25586ZM9.58919 3.22624V2.55957C9.58919 2.38276 9.51896 2.21319 9.39393 2.08817C9.26891 1.96314 9.09934 1.8929 8.92253 1.8929H6.25586C6.07905 1.8929 5.90948 1.96314 5.78446 2.08817C5.65943 2.21319 5.58919 2.38276 5.58919 2.55957V3.22624H9.58919ZM5.58919 4.55957H9.58919V12.5596H5.58919V4.55957ZM4.25586 4.55957H2.25586C1.88767 4.55957 1.58919 4.85805 1.58919 5.22624V11.8929C1.58919 12.2611 1.88767 12.5596 2.25586 12.5596H4.25586V4.55957ZM10.9225 12.5596V4.55957H12.9225C13.2907 4.55957 13.5892 4.85805 13.5892 5.22624V11.8929C13.5892 12.2611 13.2907 12.5596 12.9225 12.5596H10.9225Z" fill="#939EA8"/>
</svg>
