<svg width="32" height="32" viewBox="0 0 32 32" fill="none" xmlns="http://www.w3.org/2000/svg">
<path fill-rule="evenodd" clip-rule="evenodd" d="M30.1176 16C30.1176 23.797 23.7969 30.1176 16 30.1176C8.20312 30.1176 1.88235 23.797 1.88235 16C1.88235 8.20301 8.20312 1.88235 16 1.88235C23.7969 1.88235 30.1176 8.20301 30.1176 16ZM32 16C32 24.8365 24.8364 32 16 32C7.1636 32 0 24.8365 0 16C0 7.16349 7.1636 0 16 0C24.8364 0 32 7.16349 32 16ZM18.1131 13.0916L16 6.58824L13.8869 13.0916H7.04871L12.5809 17.1109L10.4678 23.6143L16 19.595L21.5322 23.6143L19.4191 17.1109L24.9513 13.0916H18.1131Z" fill="#212B36"/>
</svg>
