<svg width="50" height="40" viewBox="0 0 50 40" fill="none" xmlns="http://www.w3.org/2000/svg">
<path d="M0.5 4C0.5 2.067 2.067 0.5 4 0.5H48.64V39.5H4C2.067 39.5 0.5 37.933 0.5 36V4Z" fill="#E9ECEF"/>
<path fill-rule="evenodd" clip-rule="evenodd" d="M20.8184 12.0212C20.5261 12.055 19.9401 12.1549 19.6134 12.2266C18.241 12.5275 17.0688 13.0223 16.1742 13.6783C15.9648 13.8318 15.8512 13.9461 15.7015 14.1533C15.4065 14.5616 14.927 15.5841 14.5512 16.6059C13.6102 19.1649 13.0202 22.1466 13.003 24.4306L13 24.8233L13.0393 24.9048C13.0866 25.0027 13.2664 25.2724 13.3803 25.4161C13.9281 26.1075 14.7278 26.684 15.7836 27.1487C16.7806 27.5874 17.9693 27.9056 18.9196 27.9882C19.0268 27.9975 19.1484 28.0007 19.1897 27.9954C19.284 27.983 19.4091 27.9236 19.4676 27.8632C19.4923 27.8377 19.7715 27.4634 20.0881 27.0314C20.4047 26.5994 20.6684 26.2409 20.6742 26.2348C20.6799 26.2286 20.8097 26.25 20.9624 26.2824C21.9351 26.4885 22.8951 26.584 23.997 26.5842C25.08 26.5845 25.9988 26.4951 26.9723 26.2947C27.1338 26.2614 27.2785 26.2336 27.2938 26.2327C27.3139 26.2316 27.487 26.4565 27.92 27.0463C28.5683 27.9291 28.5699 27.9309 28.748 27.9824C28.823 28.0041 28.858 28.0049 29.052 27.9894C30.4775 27.8756 32.2957 27.2526 33.4392 26.4861C34.0825 26.0549 34.6733 25.4438 34.9464 24.9271C34.9919 24.8411 34.9936 24.8308 34.999 24.6159C35.0053 24.3637 34.9809 23.745 34.9481 23.3266C34.7611 20.9405 34.1109 18.2153 33.182 15.9234C32.9516 15.355 32.6305 14.685 32.4401 14.3756C32.1711 13.9384 32.0207 13.7921 31.483 13.445C30.3831 12.735 28.8478 12.2256 27.2058 12.0258C26.7972 11.9761 26.6761 11.9955 26.5361 12.1332C26.4351 12.2326 26.3203 12.5129 26.2186 12.9084C26.1914 13.0144 26.1644 13.1065 26.1585 13.1131C26.1527 13.1197 26.03 13.1083 25.886 13.0877C25.0704 12.9709 24.2591 12.9194 23.6505 12.9458C23.1199 12.9687 22.6539 13.0118 22.1162 13.0874C21.9683 13.1082 21.8444 13.1224 21.8408 13.1188C21.8372 13.1153 21.8139 13.0332 21.7891 12.9363C21.7253 12.6876 21.6145 12.3714 21.5495 12.2532C21.5118 12.1844 21.4708 12.135 21.42 12.0968C21.2841 11.9947 21.1703 11.9804 20.8184 12.0212ZM20.8201 13.1307C20.8774 13.3112 20.8804 13.3024 20.7507 13.3338C19.9857 13.5193 19.2757 13.7566 18.6327 14.0418C18.1162 14.271 17.4575 14.6346 17.3437 14.7535C17.1779 14.9265 17.1771 15.1961 17.3418 15.3763C17.4323 15.4754 17.5359 15.5264 17.6647 15.5356C17.7946 15.5448 17.8615 15.5219 18.0577 15.4014C18.9225 14.87 20.1248 14.426 21.3936 14.1694C22.8867 13.8675 24.1949 13.817 25.6315 14.006C27.2206 14.215 28.7632 14.704 29.8205 15.334C30.1476 15.5289 30.1539 15.5315 30.3015 15.5315C30.4515 15.5315 30.5396 15.4974 30.6371 15.4015C30.8203 15.2212 30.8243 14.9129 30.6456 14.7374C30.5865 14.6793 30.1693 14.4372 29.8314 14.2648C29.0955 13.8895 28.2146 13.5684 27.3452 13.3585C27.1981 13.323 27.1382 13.3024 27.1381 13.2871C27.138 13.26 27.2121 13.0196 27.2206 13.0196C27.2241 13.0196 27.3239 13.0332 27.4423 13.0499C28.9551 13.2628 30.2481 13.7237 31.1753 14.3805C31.3477 14.5026 31.433 14.6058 31.6307 14.9313C31.9491 15.4553 32.2391 16.1029 32.5731 17.0357C33.4226 19.4081 33.9394 21.9855 34.0165 24.2343L34.0268 24.5344L33.9581 24.6361C33.5252 25.2765 32.7359 25.8757 31.7628 26.3026C31.0566 26.6124 30.0972 26.8861 29.3675 26.986C29.2722 26.999 29.173 27.0131 29.147 27.0172C29.1002 27.0247 29.0955 27.0192 28.7026 26.4965C28.4842 26.206 28.3082 25.9641 28.3116 25.959C28.3149 25.9538 28.4166 25.9155 28.5375 25.8739C29.5279 25.5329 30.3817 25.1056 31.073 24.6051C31.3374 24.4137 31.4084 24.3075 31.4075 24.1046C31.4067 23.9254 31.3051 23.7696 31.1354 23.6875C31.053 23.6476 31.021 23.6402 30.9289 23.6402C30.7927 23.6402 30.699 23.6798 30.5515 23.7996C30.1536 24.1227 29.4529 24.5083 28.7649 24.7826C28.2849 24.974 27.6625 25.1688 27.4729 25.1869C27.3764 25.1961 27.3298 25.209 27.2668 25.244C27.1045 25.3341 26.2361 25.4941 25.5336 25.5633C24.5156 25.6636 23.3369 25.6581 22.3701 25.5486C21.7323 25.4764 20.9079 25.3212 20.7168 25.2375C20.6555 25.2106 20.5962 25.1979 20.5134 25.1937C20.2365 25.1798 19.262 24.825 18.5857 24.492C18.1286 24.2669 17.731 24.0259 17.4591 23.809C17.2768 23.6637 17.2193 23.6388 17.0674 23.6394C16.9203 23.64 16.8374 23.6724 16.7306 23.7706C16.5582 23.9292 16.5307 24.1971 16.6676 24.383C16.7732 24.5264 17.3337 24.9024 17.8884 25.2019C18.3238 25.4369 19.0166 25.7296 19.5341 25.8971C19.6148 25.9232 19.684 25.9496 19.6879 25.9558C19.6918 25.962 19.5169 26.2032 19.2994 26.4919L18.9038 27.0166L18.8367 27.0121C18.7999 27.0096 18.6669 26.9914 18.5413 26.9716C17.6448 26.8306 16.6999 26.5376 15.953 26.169C15.6503 26.0197 15.528 25.9502 15.2521 25.7708C14.7343 25.4341 14.3445 25.0722 14.0611 24.6652L13.9703 24.5347L13.9864 24.1381C14.068 22.1281 14.4642 19.9967 15.1622 17.8131C15.5681 16.5433 16.015 15.4839 16.4029 14.872C16.6064 14.551 16.6471 14.505 16.8565 14.3587C17.5863 13.8488 18.5381 13.4589 19.6511 13.2139C20.0361 13.1292 20.6817 13.0188 20.7576 13.0247C20.7804 13.0265 20.7947 13.0508 20.8201 13.1307ZM20.6904 18.5924C20.0872 18.6541 19.5322 18.9963 19.1664 19.532C18.5091 20.4945 18.6158 21.8316 19.415 22.6479C19.5971 22.8338 19.7681 22.9633 19.9651 23.0644C20.2732 23.2225 20.476 23.2745 20.826 23.2852C21.116 23.294 21.271 23.2733 21.5138 23.1934C22.2554 22.9493 22.8263 22.2744 22.9966 21.4406C23.0376 21.2399 23.0528 20.8155 23.0261 20.6166C22.9546 20.0834 22.7247 19.5989 22.3682 19.23C21.9794 18.8278 21.5136 18.6136 20.9691 18.5867C20.8862 18.5826 20.7608 18.5852 20.6904 18.5924ZM26.9196 18.5921C26.5769 18.6279 26.2852 18.7327 25.9939 18.9244C25.3786 19.3295 24.9883 20.048 24.9578 20.8316C24.9174 21.8697 25.4902 22.8056 26.3802 23.1559C26.6433 23.2595 26.7688 23.2811 27.1079 23.2811C27.357 23.2811 27.4229 23.2762 27.5418 23.2487C28.336 23.0654 28.9654 22.4185 29.1842 21.5604C29.4985 20.3276 28.831 19.0274 27.7029 18.6751C27.4634 18.6003 27.1541 18.5675 26.9196 18.5921ZM21.1875 19.5777C21.5218 19.677 21.8259 19.9737 21.9704 20.3416C22.1009 20.6741 22.1124 21.1106 21.9997 21.4539C21.8697 21.8494 21.587 22.1546 21.2308 22.2838C21.07 22.3422 20.8324 22.3579 20.6719 22.3207C20.4602 22.2716 20.2538 22.1512 20.0986 21.9863C19.9846 21.8652 19.9317 21.7869 19.8539 21.625C19.5661 21.0255 19.6925 20.2713 20.1529 19.841C20.2813 19.7211 20.4001 19.648 20.5576 19.5921C20.7429 19.5263 20.995 19.5205 21.1875 19.5777ZM27.3539 19.5645C27.8767 19.6929 28.2619 20.2211 28.2934 20.8526C28.3172 21.3313 28.1603 21.7424 27.84 22.0407C27.4077 22.4433 26.8081 22.4433 26.3757 22.0407C26.0554 21.7424 25.8985 21.3313 25.9223 20.8526C25.957 20.1571 26.4195 19.5956 27.0024 19.5415C27.128 19.5298 27.2434 19.5374 27.3539 19.5645Z" fill="#212B36" stroke="#212B36" stroke-width="0.4"/>
<path d="M0.5 4C0.5 2.067 2.067 0.5 4 0.5H48.64V39.5H4C2.067 39.5 0.5 37.933 0.5 36V4Z" stroke="#CED4DA"/>
</svg>
