<svg width="35" height="36" viewBox="0 0 35 36" fill="none" xmlns="http://www.w3.org/2000/svg">
<mask id="path-1-inside-1_492_12972" fill="white">
<path d="M0 4C0 1.79086 1.79086 0 4 0H31C33.2091 0 35 1.79086 35 4V32C35 34.2091 33.2091 36 31 36H4C1.79086 36 0 34.2091 0 32V4Z"/>
</mask>
<path d="M0 4C0 1.79086 1.79086 0 4 0H31C33.2091 0 35 1.79086 35 4V32C35 34.2091 33.2091 36 31 36H4C1.79086 36 0 34.2091 0 32V4Z" fill="#E9ECEF"/>
<path d="M9.5 21V19H25.5V21H9.5ZM9.5 25V23H25.5V25H9.5ZM9.5 17V15H25.5V17H9.5ZM9.5 13V11H25.5V13H9.5Z" fill="#212529"/>
<path d="M-1 4C-1 1.23858 1.23858 -1 4 -1H31C33.7614 -1 36 1.23858 36 4H34C34 2.34315 32.6569 1 31 1H4C2.34315 1 1 2.34315 1 4H-1ZM36 32C36 34.7614 33.7614 37 31 37H4C1.23858 37 -1 34.7614 -1 32H1C1 33.6569 2.34315 35 4 35H31C32.6569 35 34 33.6569 34 32H36ZM4 37C1.23858 37 -1 34.7614 -1 32V4C-1 1.23858 1.23858 -1 4 -1V1C2.34315 1 1 2.34315 1 4V32C1 33.6569 2.34315 35 4 35V37ZM31 -1C33.7614 -1 36 1.23858 36 4V32C36 34.7614 33.7614 37 31 37V35C32.6569 35 34 33.6569 34 32V4C34 2.34315 32.6569 1 31 1V-1Z" fill="#CED4DA" mask="url(#path-1-inside-1_492_12972)"/>
</svg>
