<svg width="24" height="24" viewBox="0 0 24 24" fill="none" xmlns="http://www.w3.org/2000/svg">
<path d="M10.9298 22.7505C10.4498 22.7505 9.96985 22.6305 9.52985 22.3905C8.63985 21.8905 8.10981 21.0005 8.10981 19.9905V14.6405C8.10981 14.1305 7.77979 13.3805 7.46979 12.9905L3.6698 9.00052C3.0398 8.37052 2.5498 7.27051 2.5498 6.46051V4.14054C2.5498 2.53054 3.76982 1.27051 5.31982 1.27051H18.6598C20.1898 1.27051 21.4298 2.51053 21.4298 4.04053V6.26053C21.4298 7.31053 20.7998 8.52051 20.1998 9.11051C19.9098 9.40051 19.4298 9.40051 19.1398 9.11051C18.8498 8.82051 18.8498 8.34051 19.1398 8.05051C19.5098 7.68051 19.9298 6.85053 19.9298 6.26053V4.04053C19.9298 3.34053 19.3598 2.77051 18.6598 2.77051H5.31982C4.60982 2.77051 4.0498 3.37054 4.0498 4.14054V6.46051C4.0498 6.83051 4.34981 7.56053 4.73981 7.95053L8.58984 12.0005C9.09984 12.6305 9.59979 13.6905 9.59979 14.6405V19.9905C9.59979 20.6505 10.0498 20.9705 10.2498 21.0805C10.6798 21.3205 11.1898 21.3105 11.5898 21.0705L12.9898 20.1705C13.3398 19.9505 13.7998 20.0505 14.0298 20.4005C14.2498 20.7505 14.1498 21.2105 13.8098 21.4405L12.3998 22.3505C11.9498 22.6105 11.4398 22.7505 10.9298 22.7505Z" fill="white"/>
<path d="M13.6907 18.8897C13.3107 18.8897 12.9507 18.7497 12.6907 18.4897C12.3807 18.1797 12.2407 17.7297 12.3107 17.2597L12.5007 15.9097C12.5507 15.5597 12.7607 15.1497 13.0107 14.8997L16.5507 11.3597C17.0307 10.8797 17.5007 10.6297 18.0107 10.5797C18.6307 10.5197 19.2507 10.7797 19.8307 11.3597C20.4107 11.9397 20.6707 12.5497 20.6107 13.1797C20.5607 13.6797 20.3007 14.1597 19.8307 14.6397L16.2907 18.1797C16.0407 18.4297 15.6207 18.6397 15.2707 18.6897L13.9207 18.8797C13.8407 18.8897 13.7707 18.8897 13.6907 18.8897ZM18.1807 12.0597C18.1707 12.0597 18.1607 12.0597 18.1507 12.0597C18.0107 12.0697 17.8207 12.1897 17.6107 12.4097L14.0707 15.9497C14.0407 15.9797 13.9907 16.0797 13.9907 16.1197L13.8107 17.3697L15.0607 17.1897C15.1007 17.1797 15.2007 17.1297 15.2307 17.0997L18.7707 13.5597C18.9807 13.3497 19.1107 13.1597 19.1207 13.0197C19.1407 12.8197 18.9407 12.5797 18.7707 12.4097C18.6107 12.2497 18.3807 12.0597 18.1807 12.0597Z" fill="white"/>
<path d="M18.7897 15.3603C18.7197 15.3603 18.6498 15.3503 18.5898 15.3303C17.2698 14.9603 16.2197 13.9103 15.8497 12.5903C15.7397 12.1903 15.9697 11.7803 16.3697 11.6603C16.7697 11.5503 17.1797 11.7803 17.2897 12.1803C17.5197 13.0003 18.1697 13.6503 18.9897 13.8803C19.3897 13.9903 19.6198 14.4103 19.5098 14.8103C19.4198 15.1503 19.1197 15.3603 18.7897 15.3603Z" fill="white"/>
</svg>
