<svg width="16" height="17" viewBox="0 0 16 17" fill="none" xmlns="http://www.w3.org/2000/svg">
<path fill-rule="evenodd" clip-rule="evenodd" d="M8.00033 2.50033C4.68662 2.50033 2.00033 5.18662 2.00033 8.50033C2.00033 11.814 4.68662 14.5003 8.00033 14.5003C11.314 14.5003 14.0003 11.814 14.0003 8.50033C14.0003 5.18662 11.314 2.50033 8.00033 2.50033ZM0.666992 8.50033C0.666992 4.45024 3.95024 1.16699 8.00033 1.16699C12.0504 1.16699 15.3337 4.45024 15.3337 8.50033C15.3337 12.5504 12.0504 15.8337 8.00033 15.8337C3.95024 15.8337 0.666992 12.5504 0.666992 8.50033Z" fill="#212B36"/>
<path fill-rule="evenodd" clip-rule="evenodd" d="M8.17248 5.8496C7.86213 5.79637 7.54296 5.85469 7.27149 6.01423C7.00003 6.17378 6.79378 6.42425 6.68929 6.72128C6.56711 7.06861 6.1865 7.25113 5.83917 7.12895C5.49185 7.00676 5.30933 6.62615 5.43151 6.27883C5.64049 5.68475 6.05298 5.18381 6.59592 4.86472C7.13885 4.54563 7.7772 4.42899 8.39789 4.53546C9.01859 4.64193 9.58157 4.96463 9.98714 5.44641C10.3926 5.92809 10.6146 6.53771 10.6137 7.16733C10.6134 8.18757 9.85703 8.86132 9.31687 9.22142C9.02645 9.41504 8.74077 9.5574 8.53033 9.65093C8.42416 9.69812 8.33476 9.73392 8.27034 9.75846C8.23807 9.77076 8.21191 9.78028 8.19287 9.78705L8.16972 9.79516L8.16234 9.79768L8.15974 9.79856L8.15872 9.7989C8.15852 9.79897 8.15789 9.79918 7.94707 9.16672L8.15789 9.79918C7.80859 9.91561 7.43105 9.72684 7.31461 9.37754C7.19826 9.02848 7.3867 8.6512 7.73555 8.5345L7.7347 8.53479C7.73477 8.53476 7.73483 8.53475 7.73555 8.5345L7.74619 8.53077C7.75645 8.52712 7.77326 8.52102 7.79568 8.51248C7.84063 8.49536 7.90748 8.46866 7.98881 8.43251C8.15337 8.35938 8.36769 8.25174 8.57727 8.11202C9.037 7.80553 9.2804 7.47948 9.2804 7.16672L9.2804 7.16573C9.28087 6.85085 9.16989 6.54597 8.9671 6.30507C8.76432 6.06418 8.48283 5.90283 8.17248 5.8496Z" fill="#212B36"/>
<path fill-rule="evenodd" clip-rule="evenodd" d="M7.33301 11.8337C7.33301 11.4655 7.63148 11.167 7.99967 11.167H8.00634C8.37453 11.167 8.67301 11.4655 8.67301 11.8337C8.67301 12.2018 8.37453 12.5003 8.00634 12.5003H7.99967C7.63148 12.5003 7.33301 12.2018 7.33301 11.8337Z" fill="#212B36"/>
</svg>
