<svg width="24" height="24" viewBox="0 0 24 24" fill="none" xmlns="http://www.w3.org/2000/svg">
<path d="M11.9995 22.1534C17.6074 22.1534 22.1534 17.6074 22.1534 11.9995C22.1534 6.39173 17.6074 1.8457 11.9995 1.8457C6.39173 1.8457 1.8457 6.39173 1.8457 11.9995C1.8457 17.6074 6.39173 22.1534 11.9995 22.1534Z" stroke="#637381" stroke-width="1.83333" stroke-linecap="round" stroke-linejoin="round"/>
<path d="M9.04492 8.95328C9.28364 8.27467 9.75483 7.70244 10.375 7.33794C10.9952 6.97344 11.7244 6.8402 12.4334 6.96182C13.1425 7.08344 13.7856 7.45206 14.2488 8.0024C14.7121 8.55275 14.9657 9.24929 14.9646 9.96867C14.9646 11.9994 11.9185 13.0148 11.9185 13.0148" stroke="#637381" stroke-width="1.83333" stroke-linecap="round" stroke-linejoin="round"/>
<path d="M12 17.0762H12.011" stroke="#637381" stroke-width="1.83333" stroke-linecap="round" stroke-linejoin="round"/>
</svg>
