<svg width="16" height="16" viewBox="0 0 16 16" fill="none" xmlns="http://www.w3.org/2000/svg">
<g clip-path="url(#clip0_977_6669)">
<path fill-rule="evenodd" clip-rule="evenodd" d="M7.99984 2.00033C4.68613 2.00033 1.99984 4.68662 1.99984 8.00033C1.99984 11.314 4.68613 14.0003 7.99984 14.0003C11.3135 14.0003 13.9998 11.314 13.9998 8.00033C13.9998 4.68662 11.3135 2.00033 7.99984 2.00033ZM0.666504 8.00033C0.666504 3.95024 3.94975 0.666992 7.99984 0.666992C12.0499 0.666992 15.3332 3.95024 15.3332 8.00033C15.3332 12.0504 12.0499 15.3337 7.99984 15.3337C3.94975 15.3337 0.666504 12.0504 0.666504 8.00033Z" fill="#212B36" fill-opacity="0.2"/>
<path fill-rule="evenodd" clip-rule="evenodd" d="M8.17199 5.3496C7.86165 5.29637 7.54247 5.35469 7.27101 5.51423C6.99954 5.67378 6.79329 5.92425 6.6888 6.22128C6.56662 6.56861 6.18601 6.75113 5.83869 6.62895C5.49136 6.50676 5.30884 6.12615 5.43103 5.77883C5.64001 5.18475 6.05249 4.68381 6.59543 4.36472C7.13836 4.04563 7.77671 3.92899 8.3974 4.03546C9.0181 4.14193 9.58108 4.46463 9.98665 4.94641C10.3921 5.42809 10.6141 6.03771 10.6132 6.66733C10.6129 7.68757 9.85654 8.36132 9.31638 8.72142C9.02596 8.91504 8.74028 9.0574 8.52984 9.15093C8.42367 9.19812 8.33427 9.23392 8.26985 9.25846C8.23758 9.27076 8.21142 9.28028 8.19238 9.28705L8.16923 9.29516L8.16185 9.29768L8.15926 9.29856L8.15823 9.2989C8.15803 9.29897 8.1574 9.29918 7.94658 8.66672L8.1574 9.29918C7.8081 9.41561 7.43056 9.22684 7.31413 8.87754C7.19777 8.52848 7.38622 8.1512 7.73507 8.0345L7.73421 8.03479C7.73428 8.03476 7.73434 8.03475 7.73507 8.0345L7.7457 8.03077C7.75596 8.02712 7.77277 8.02102 7.79519 8.01248C7.84014 7.99536 7.90699 7.96866 7.98832 7.93251C8.15288 7.85938 8.3672 7.75174 8.57678 7.61202C9.03651 7.30553 9.27991 6.97948 9.27991 6.66672L9.27992 6.66573C9.28038 6.35085 9.1694 6.04597 8.96662 5.80507C8.76383 5.56418 8.48234 5.40283 8.17199 5.3496Z" fill="#212B36" fill-opacity="0.2"/>
<path fill-rule="evenodd" clip-rule="evenodd" d="M7.3335 11.3337C7.3335 10.9655 7.63197 10.667 8.00016 10.667H8.00683C8.37502 10.667 8.6735 10.9655 8.6735 11.3337C8.6735 11.7018 8.37502 12.0003 8.00683 12.0003H8.00016C7.63197 12.0003 7.3335 11.7018 7.3335 11.3337Z" fill="#212B36" fill-opacity="0.2"/>
</g>
<defs>
<clipPath id="clip0_977_6669">
<rect width="16" height="16" fill="white"/>
</clipPath>
</defs>
</svg>
