<svg width="16" height="17" viewBox="0 0 16 17" fill="none" xmlns="http://www.w3.org/2000/svg">
<g clip-path="url(#clip0_492_8082)">
<path fill-rule="evenodd" clip-rule="evenodd" d="M7.99967 14.5002C11.3134 14.5002 13.9997 11.8139 13.9997 8.50016C13.9997 5.18645 11.3134 2.50016 7.99968 2.50016C4.68597 2.50016 1.99967 5.18645 1.99967 8.50016C1.99967 11.8139 4.68597 14.5002 7.99967 14.5002ZM15.333 8.50016C15.333 12.5503 12.0498 15.8335 7.99967 15.8335C3.94959 15.8335 0.666341 12.5502 0.666341 8.50016C0.666342 4.45007 3.94959 1.16683 7.99968 1.16683C12.0498 1.16683 15.333 4.45007 15.333 8.50016Z" fill="#EA5455"/>
<path fill-rule="evenodd" clip-rule="evenodd" d="M8.75 12.6667C8.75 13.1269 8.3769 13.5 7.91667 13.5L7.90833 13.5C7.4481 13.5 7.075 13.1269 7.075 12.6667C7.075 12.2064 7.4481 11.8333 7.90833 11.8333L7.91667 11.8333C8.3769 11.8333 8.75 12.2064 8.75 12.6667Z" fill="#EA5455"/>
<path fill-rule="evenodd" clip-rule="evenodd" d="M7.95 10.5C7.50817 10.5 7.15 10.1418 7.15 9.7L7.15 4.7C7.15 4.25817 7.50817 3.9 7.95 3.9C8.39183 3.9 8.75 4.25817 8.75 4.7L8.75 9.7C8.75 10.1418 8.39183 10.5 7.95 10.5Z" fill="#EA5455"/>
</g>
<defs>
<clipPath id="clip0_492_8082">
<rect width="16" height="16" fill="white" transform="translate(16 16.5) rotate(-180)"/>
</clipPath>
</defs>
</svg>
