<svg width="50" height="40" viewBox="0 0 50 40" fill="none" xmlns="http://www.w3.org/2000/svg">
<path d="M0.5 4C0.5 2.067 2.067 0.5 4 0.5H48.64V39.5H4C2.067 39.5 0.5 37.933 0.5 36V4Z" fill="#E9ECEF"/>
<path d="M29 10H19C16.2386 10 14 12.2386 14 15V25C14 27.7614 16.2386 30 19 30H29C31.7614 30 34 27.7614 34 25V15C34 12.2386 31.7614 10 29 10Z" stroke="#212B36" stroke-width="2" stroke-linecap="round" stroke-linejoin="round"/>
<path d="M28 19.3703C28.1234 20.2025 27.9812 21.0525 27.5937 21.7993C27.2062 22.5461 26.5931 23.1517 25.8416 23.53C25.0901 23.9082 24.2384 24.0399 23.4077 23.9062C22.5771 23.7726 21.8097 23.3804 21.2148 22.7855C20.6199 22.1905 20.2277 21.4232 20.094 20.5925C19.9604 19.7619 20.092 18.9102 20.4703 18.1587C20.8485 17.4072 21.4541 16.794 22.2009 16.4065C22.9477 16.019 23.7977 15.8769 24.63 16.0003C25.4789 16.1262 26.2648 16.5218 26.8716 17.1286C27.4785 17.7355 27.8741 18.5214 28 19.3703Z" stroke="#212B36" stroke-width="2" stroke-linecap="round" stroke-linejoin="round"/>
<path d="M29.5 14.5H29.51" stroke="#212B36" stroke-width="2" stroke-linecap="round" stroke-linejoin="round"/>
<path d="M0.5 4C0.5 2.067 2.067 0.5 4 0.5H48.64V39.5H4C2.067 39.5 0.5 37.933 0.5 36V4Z" stroke="#CED4DA"/>
</svg>
