<svg width="50" height="40" viewBox="0 0 50 40" fill="none" xmlns="http://www.w3.org/2000/svg">
<path d="M0.5 4C0.5 2.067 2.067 0.5 4 0.5H48.64V39.5H4C2.067 39.5 0.5 37.933 0.5 36V4Z" fill="#E9ECEF"/>
<path fill-rule="evenodd" clip-rule="evenodd" d="M18.1414 14.0084C16.7462 14.0655 15.382 14.5646 14.288 15.418C14.0489 15.6045 13.6286 16.0018 13.4266 16.2323C12.7968 16.9511 12.3272 17.8723 12.123 18.7899C12.0204 19.2506 11.9899 19.5904 12.0028 20.1304C12.0255 21.0877 12.2262 21.8422 12.6829 22.6868C13.0895 23.4387 13.709 24.1486 14.4228 24.6806C15.0033 25.1133 15.7631 25.4926 16.4787 25.707C18.2587 26.2403 20.207 26.039 21.8038 25.157C22.2805 24.8936 22.6457 24.6304 23.0527 24.257C24.174 23.2282 24.8231 21.9394 24.9596 20.4707C25.0771 19.2066 24.715 17.8618 23.9645 16.7755C23.0627 15.4701 21.6354 14.5248 20.0288 14.1688C19.3758 14.0241 18.8494 13.9794 18.1414 14.0084ZM28.4272 14.3968C27.6916 14.5737 27.0688 15.1078 26.5482 16.0083C25.4751 17.8644 25.2895 20.8258 26.1081 23.0303C26.6356 24.4508 27.4552 25.3652 28.4096 25.5981C28.6581 25.6587 29.0359 25.6589 29.2858 25.5985C29.6765 25.5041 30.1091 25.2503 30.4431 24.9196C32.06 23.3187 32.5843 19.7356 31.6012 17.0057C31.0752 15.5454 30.2146 14.5935 29.2356 14.3891C29.0138 14.3428 28.6367 14.3463 28.4272 14.3968ZM33.7141 14.9847C33.5957 15.0584 33.5344 15.1283 33.4341 15.3042C32.9327 16.1834 32.6314 18.6021 32.7353 20.9141C32.8279 22.9742 33.1716 24.5323 33.6256 24.9501C33.7877 25.0993 33.9412 25.0959 34.1054 24.9395C34.5477 24.518 34.878 23.0624 34.9836 21.0688C35.0165 20.4494 34.9972 18.9149 34.9496 18.3548C34.7853 16.4221 34.424 15.1579 33.9808 14.9649C33.8778 14.92 33.8098 14.925 33.7141 14.9847Z" fill="#212B36"/>
<path d="M0.5 4C0.5 2.067 2.067 0.5 4 0.5H48.64V39.5H4C2.067 39.5 0.5 37.933 0.5 36V4Z" stroke="#CED4DA"/>
</svg>
