<svg width="16" height="16" viewBox="0 0 17 14" fill="none" xmlns="http://www.w3.org/2000/svg">
<path d="M8.125 10.7812C8.32812 10.7812 8.55664 10.7812 8.78516 10.7305L10.0801 11.7461C9.44531 11.8984 8.78516 12 8.125 12C5.00195 12 2.25977 10.1973 0.888672 7.50586C0.837891 7.4043 0.8125 7.27734 0.8125 7.125C0.8125 6.99805 0.837891 6.87109 0.888672 6.76953C1.14258 6.26172 1.47266 5.80469 1.82812 5.34766L4.49414 7.4043C4.62109 9.30859 6.19531 10.7812 8.125 10.7812ZM16.0723 12.2793C16.1738 12.3555 16.2246 12.457 16.2246 12.584C16.2246 12.6855 16.1992 12.7617 16.1484 12.8379L15.666 13.4727C15.5898 13.5742 15.4629 13.625 15.3359 13.625C15.2344 13.625 15.1582 13.5996 15.082 13.5488L0.152344 1.99609C0.0507812 1.91992 0 1.81836 0 1.69141C0 1.58984 0.0253906 1.51367 0.0761719 1.4375L0.583984 0.802734C0.634766 0.701172 0.761719 0.650391 0.888672 0.650391C0.990234 0.650391 1.06641 0.675781 1.14258 0.726562L4.36719 3.21484C5.48438 2.60547 6.75391 2.27539 8.125 2.25C11.2227 2.25 13.9648 4.07812 15.3359 6.76953C15.3867 6.87109 15.4121 6.99805 15.4121 7.15039C15.4121 7.27734 15.3867 7.4043 15.3359 7.50586C14.8281 8.49609 14.1172 9.38477 13.2793 10.0957L16.0723 12.2793ZM11.4258 8.67383C11.6289 8.19141 11.7812 7.68359 11.7812 7.125C11.7812 5.11914 10.1309 3.46875 8.125 3.46875C7.23633 3.49414 6.42383 3.79883 5.78906 4.33203L7.66797 5.75391C7.69336 5.67773 7.69336 5.60156 7.71875 5.5C7.69336 5.24609 7.61719 4.99219 7.46484 4.78906C7.69336 4.73828 7.92188 4.6875 8.15039 4.6875C9.4707 4.6875 10.5625 5.7793 10.5625 7.09961C10.5625 7.125 10.5625 7.125 10.5625 7.125C10.5371 7.4043 10.5117 7.6582 10.4102 7.88672L11.4258 8.67383Z" fill="#939EA8"/>
</svg>
