<svg width="16" height="16" viewBox="0 0 30 24" fill="none" xmlns="http://www.w3.org/2000/svg">
<path d="M29.9084 12.4C29.8709 12.5 28.8084 14.85 26.4584 17.2125C23.3209 20.3375 19.3584 22 14.9959 22C14.0746 22.0016 13.1548 21.9264 12.2459 21.775C12.0703 21.7421 11.9066 21.6633 11.7713 21.5466C11.636 21.43 11.5339 21.2796 11.4755 21.1107C11.4171 20.9419 11.4045 20.7606 11.4388 20.5853C11.4731 20.41 11.5532 20.2468 11.6709 20.1125L24.3334 6.18747C24.4271 6.0851 24.541 6.00334 24.668 5.94739C24.795 5.89143 24.9322 5.86252 25.0709 5.86247C25.318 5.86576 25.5564 5.95405 25.7459 6.11247C28.5959 8.67497 29.8584 11.475 29.9084 11.5875C29.9638 11.7158 29.9924 11.854 29.9924 11.9937C29.9924 12.1334 29.9638 12.2717 29.9084 12.4V12.4Z" fill="#AAACB3"/>
<path d="M5.73394 23.675C5.55328 23.864 5.30577 23.9747 5.04445 23.9835C4.78313 23.9922 4.52878 23.8982 4.3359 23.7217C4.14303 23.5451 4.02696 23.3001 4.01258 23.039C3.99819 22.778 4.08663 22.5216 4.25894 22.325L6.65894 19.6875C2.12144 16.9 0.171443 12.6 0.0839432 12.4C0.0285653 12.2717 -1.03601e-06 12.1335 -1.04822e-06 11.9937C-1.06044e-06 11.854 0.0285652 11.7158 0.0839431 11.5875C0.121443 11.5 1.18394 9.14998 3.53394 6.78748C6.67144 3.66248 10.6339 1.99998 14.9964 1.99998C17.2383 1.98471 19.4579 2.44482 21.5089 3.34998L24.2589 0.324978C24.3526 0.222605 24.4665 0.140842 24.5935 0.0848901C24.7205 0.028938 24.8577 2.09372e-05 24.9964 -2.31661e-05C25.2459 0.00242279 25.4859 0.0957541 25.6714 0.262478C25.7697 0.350213 25.8495 0.456732 25.906 0.575761C25.9625 0.694791 25.9946 0.823924 26.0004 0.955553C26.0062 1.08718 25.9857 1.21865 25.9399 1.3422C25.8941 1.46576 25.8241 1.5789 25.7339 1.67498L5.73394 23.675ZM14.9964 7.49998C14.1741 7.50052 13.3676 7.72639 12.6646 8.15305C11.9616 8.57972 11.389 9.19087 11.0089 9.92012C10.6288 10.6494 10.4558 11.4688 10.5087 12.2895C10.5616 13.1101 10.8384 13.9006 11.3089 14.575L17.2089 8.08748C16.5357 7.70097 15.7727 7.49835 14.9964 7.49998V7.49998Z" fill="#AAACB3"/>
</svg>
