<svg width="22" height="18" viewBox="0 0 22 18" fill="none" xmlns="http://www.w3.org/2000/svg">
<path d="M11.0646 13.4698C11.3214 13.4698 11.6103 13.4698 11.8991 13.4056L13.5362 14.6895C12.7337 14.8821 11.8991 15.0105 11.0646 15.0105C7.11643 15.0105 3.64976 12.7315 1.91643 9.32902C1.85223 9.20062 1.82013 9.04013 1.82013 8.84753C1.82013 8.68704 1.85223 8.52655 1.91643 8.39815C2.23741 7.75618 2.6547 7.1784 3.10408 6.60062L6.47445 9.20062C6.63494 11.608 8.62507 13.4698 11.0646 13.4698ZM21.1115 15.3636C21.2399 15.4599 21.3041 15.5883 21.3041 15.7488C21.3041 15.8772 21.272 15.9735 21.2078 16.0698L20.5979 16.8722C20.5016 17.0006 20.3411 17.0648 20.1806 17.0648C20.0522 17.0648 19.9559 17.0327 19.8596 16.9685L0.985561 2.36358C0.857166 2.26729 0.792969 2.13889 0.792969 1.9784C0.792969 1.85 0.825068 1.75371 0.889265 1.65741L1.53124 0.854942C1.59544 0.726547 1.75593 0.662349 1.91643 0.662349C2.04482 0.662349 2.14112 0.694448 2.23741 0.758646L6.31396 3.90432C7.7263 3.13395 9.33124 2.71667 11.0646 2.68457C14.9806 2.68457 18.4473 4.99568 20.1806 8.39815C20.2448 8.52655 20.2769 8.68704 20.2769 8.87963C20.2769 9.04013 20.2448 9.20062 20.1806 9.32902C19.5386 10.5809 18.6399 11.7043 17.5806 12.6031L21.1115 15.3636ZM15.2374 10.8056C15.4942 10.1957 15.6868 9.55371 15.6868 8.84753C15.6868 6.31173 13.6004 4.22531 11.0646 4.22531C9.94112 4.25741 8.91396 4.6426 8.11149 5.31667L10.4868 7.1142C10.5189 7.01791 10.5189 6.92161 10.551 6.79321C10.5189 6.47223 10.4226 6.15124 10.23 5.89445C10.5189 5.83025 10.8078 5.76605 11.0967 5.76605C12.7658 5.76605 14.1461 7.1463 14.1461 8.81544C14.1461 8.84753 14.1461 8.84753 14.1461 8.84753C14.114 9.20062 14.0819 9.52161 13.9535 9.8105L15.2374 10.8056Z" fill="#939EA8"/>
</svg>
