<svg width="17" height="17" viewBox="0 0 17 17" fill="none" xmlns="http://www.w3.org/2000/svg">
<path d="M8.94456 1.14941C8.18386 1.14941 7.44025 1.37499 6.80775 1.79761C6.17526 2.22023 5.68228 2.82092 5.39118 3.5237C5.10007 4.2265 5.02391 4.99984 5.17231 5.74592C5.32071 6.492 5.68702 7.17732 6.22492 7.71521C6.76281 8.25311 7.44813 8.61942 8.19421 8.76781C8.94029 8.91622 9.71363 8.84006 10.4164 8.54895C11.1192 8.25784 11.7199 7.76487 12.1425 7.13238C12.5651 6.49988 12.7907 5.75627 12.7907 4.99557C12.7907 3.97551 12.3855 2.99722 11.6642 2.27592C10.9429 1.55463 9.96462 1.14941 8.94456 1.14941ZM8.94456 7.30326C8.48814 7.30326 8.04198 7.16791 7.66248 6.91435C7.28297 6.66077 6.9872 6.30035 6.81254 5.87868C6.63787 5.45701 6.59217 4.99301 6.68121 4.54536C6.77025 4.09771 6.99004 3.68652 7.31277 3.36378C7.63551 3.04104 8.0467 2.82127 8.49436 2.73222C8.942 2.64317 9.406 2.68887 9.82767 2.86354C10.2493 3.0382 10.6098 3.33398 10.8633 3.71349C11.1169 4.09298 11.2523 4.53915 11.2523 4.99557C11.2523 5.6076 11.0091 6.19457 10.5764 6.62736C10.1436 7.06013 9.5566 7.30326 8.94456 7.30326ZM15.8676 15.7648V14.9956C15.8676 13.5675 15.3004 12.1979 14.2905 11.1881C13.2807 10.1783 11.9111 9.61095 10.483 9.61095H7.4061C5.97801 9.61095 4.60841 10.1783 3.5986 11.1881C2.5888 12.1979 2.02148 13.5675 2.02148 14.9956V15.7648H3.55995V14.9956C3.55995 13.9755 3.96516 12.9972 4.68646 12.2759C5.40775 11.5546 6.38604 11.1494 7.4061 11.1494H10.483C11.5031 11.1494 12.4814 11.5546 13.2027 12.2759C13.924 12.9972 14.3292 13.9755 14.3292 14.9956V15.7648H15.8676Z" fill="#939EA8"/>
</svg>
