<svg width="50" height="40" viewBox="0 0 50 40" fill="none" xmlns="http://www.w3.org/2000/svg">
<path d="M0.5 4C0.5 2.067 2.067 0.5 4 0.5H48.64V39.5H4C2.067 39.5 0.5 37.933 0.5 36V4Z" fill="#E9ECEF"/>
<path d="M32.3713 10.002C32.0996 10.0221 31.8329 10.0866 31.5816 10.1931H31.5783C31.3371 10.2899 30.1903 10.7781 28.4468 11.5182L22.199 14.1813C17.7159 16.0914 13.309 17.9725 13.309 17.9725L13.3615 17.9519C13.3615 17.9519 13.0576 18.053 12.7402 18.2731C12.5442 18.3994 12.3754 18.5646 12.2443 18.7588C12.0886 18.9901 11.9633 19.3439 12.0098 19.7096C12.086 20.3281 12.4821 20.699 12.7665 20.9037C13.0542 21.111 13.3285 21.2078 13.3285 21.2078H13.3352L17.4679 22.6168C17.6533 23.219 18.7273 26.7927 18.9854 27.6158C19.1378 28.1075 19.2859 28.415 19.4712 28.6497C19.561 28.7696 19.6659 28.8698 19.792 28.9504C19.8576 28.989 19.9275 29.0194 20.0002 29.0412L19.9579 29.0309C19.9706 29.0343 19.9808 29.0446 19.9901 29.048C20.0239 29.0574 20.0468 29.0609 20.0899 29.0677C20.7442 29.2682 21.2697 28.857 21.2697 28.857L21.2994 28.833L23.7394 26.5845L27.8289 29.7598L27.922 29.8001C28.7743 30.1787 29.6376 29.968 30.0938 29.5962C30.5533 29.2219 30.7319 28.7431 30.7319 28.7431L30.7615 28.666L33.9218 12.2805C34.0115 11.8762 34.0344 11.4976 33.9353 11.1302C33.8332 10.7583 33.5975 10.4384 33.2743 10.2333C33.003 10.0664 32.6884 9.98581 32.3713 10.002ZM32.2858 11.758C32.2824 11.812 32.2926 11.806 32.2689 11.9096V11.9191L29.1382 28.134C29.1247 28.1572 29.1018 28.2077 29.0392 28.2583C28.9732 28.3114 28.9207 28.3448 28.6457 28.2343L23.6437 24.3531L20.6223 27.1404L21.257 23.0374L29.4294 15.3282C29.7662 15.0113 29.6537 14.9445 29.6537 14.9445C29.6774 14.5556 29.145 14.8306 29.145 14.8306L18.8399 21.2917L18.8365 21.2746L13.8972 19.5914V19.588L13.8845 19.5854C13.8932 19.5825 13.9016 19.5791 13.9099 19.5751L13.937 19.5614L13.9632 19.552C13.9632 19.552 18.3735 17.671 22.8566 15.7608C25.1012 14.804 27.3626 13.8404 29.1018 13.0969C30.1333 12.6574 31.1659 12.2206 32.1995 11.7863C32.2689 11.7589 32.2359 11.758 32.2858 11.758Z" fill="#212B36"/>
<path d="M0.5 4C0.5 2.067 2.067 0.5 4 0.5H48.64V39.5H4C2.067 39.5 0.5 37.933 0.5 36V4Z" stroke="#CED4DA"/>
</svg>
