<svg width="40" height="40" viewBox="0 0 40 40" fill="none" xmlns="http://www.w3.org/2000/svg">
<path d="M21.2323 31.5449V24.8782H26.2323L19.5656 16.5449L12.8989 24.8782H17.8989V31.5449H21.2323Z" fill="#212B36" fill-opacity="0.2"/>
<path d="M11.2323 31.5443H14.5656V28.211H11.2323C8.47559 28.211 6.23226 25.9676 6.23226 23.211C6.23226 20.871 8.23059 18.6176 10.6873 18.186L11.6556 18.016L11.9756 17.086C13.1473 13.6676 16.0573 11.5443 19.5656 11.5443C24.1606 11.5443 27.8989 15.2826 27.8989 19.8776V21.5443H29.5656C31.4039 21.5443 32.8989 23.0393 32.8989 24.8776C32.8989 26.716 31.4039 28.211 29.5656 28.211H24.5656V31.5443H29.5656C33.2423 31.5443 36.2323 28.5543 36.2323 24.8776C36.2297 23.3837 35.7266 21.9336 34.8034 20.759C33.8802 19.5845 32.59 18.7531 31.1389 18.3977C30.4106 12.661 25.4989 8.21094 19.5656 8.21094C14.9723 8.21094 10.9823 10.896 9.16059 15.1276C5.58059 16.1976 2.89893 19.5776 2.89893 23.211C2.89893 27.806 6.63726 31.5443 11.2323 31.5443Z" fill="#212B36" fill-opacity="0.2"/>
</svg>
