<svg width="40" height="40" viewBox="0 0 40 40" fill="none" xmlns="http://www.w3.org/2000/svg">
<path d="M21.2318 31.5449V24.8782H26.2318L19.5651 16.5449L12.8984 24.8782H17.8984V31.5449H21.2318Z" fill="#FF9F43"/>
<path d="M11.2318 31.5443H14.5651V28.211H11.2318C8.4751 28.211 6.23177 25.9676 6.23177 23.211C6.23177 20.871 8.2301 18.6176 10.6868 18.186L11.6551 18.016L11.9751 17.086C13.1468 13.6676 16.0568 11.5443 19.5651 11.5443C24.1601 11.5443 27.8984 15.2826 27.8984 19.8776V21.5443H29.5651C31.4034 21.5443 32.8984 23.0393 32.8984 24.8776C32.8984 26.716 31.4034 28.211 29.5651 28.211H24.5651V31.5443H29.5651C33.2418 31.5443 36.2318 28.5543 36.2318 24.8776C36.2292 23.3837 35.7261 21.9336 34.8029 20.759C33.8797 19.5845 32.5895 18.7531 31.1384 18.3977C30.4101 12.661 25.4984 8.21094 19.5651 8.21094C14.9718 8.21094 10.9818 10.896 9.1601 15.1276C5.5801 16.1976 2.89844 19.5776 2.89844 23.211C2.89844 27.806 6.63677 31.5443 11.2318 31.5443Z" fill="#FF9F43"/>
</svg>
