<svg width="24" height="24" viewBox="0 0 24 24" fill="none" xmlns="http://www.w3.org/2000/svg">
<mask id="mask0_492_6110" style="mask-type:alpha" maskUnits="userSpaceOnUse" x="0" y="0" width="24" height="24">
<rect width="24" height="24" fill="#D9D9D9"/>
</mask>
<g mask="url(#mask0_492_6110)">
<path d="M9 20C6.76667 20 4.875 19.225 3.325 17.675C1.775 16.125 1 14.2333 1 12C1 9.76667 1.775 7.875 3.325 6.325C4.875 4.775 6.76667 4 9 4C11.2333 4 13.125 4.775 14.675 6.325C16.225 7.875 17 9.76667 17 12C17 14.2333 16.225 16.125 14.675 17.675C13.125 19.225 11.2333 20 9 20ZM9 18C10.6667 18 12.0833 17.4167 13.25 16.25C14.4167 15.0833 15 13.6667 15 12C15 10.3333 14.4167 8.91667 13.25 7.75C12.0833 6.58333 10.6667 6 9 6C7.33333 6 5.91667 6.58333 4.75 7.75C3.58333 8.91667 3 10.3333 3 12C3 13.6667 3.58333 15.0833 4.75 16.25C5.91667 17.4167 7.33333 18 9 18ZM8 15.5H10V10.5H12V9H6V10.5H8V15.5ZM19 9L17.75 6.25L15 5L17.75 3.75L19 1L20.25 3.75L23 5L20.25 6.25L19 9ZM19 23L17.75 20.25L15 19L17.75 17.75L19 15L20.25 17.75L23 19L20.25 20.25L19 23Z" fill="white"/>
</g>
</svg>
