<svg width="24" height="24" viewBox="0 0 24 24" fill="none" xmlns="http://www.w3.org/2000/svg">
<path d="M12.5 2C11.4561 2 10.4358 2.30868 9.56782 2.88701C8.6999 3.46533 8.02343 4.28733 7.62398 5.24903C7.2245 6.21075 7.11999 7.269 7.32364 8.28995C7.52727 9.31091 8.02993 10.2487 8.76805 10.9848C9.50616 11.7208 10.4466 12.2221 11.4704 12.4252C12.4941 12.6283 13.5553 12.524 14.5197 12.1257C15.4841 11.7273 16.3084 11.0527 16.8883 10.1872C17.4682 9.32168 17.7778 8.30412 17.7778 7.26316C17.7778 5.86728 17.2217 4.52857 16.232 3.54154C15.2422 2.55451 13.8998 2 12.5 2ZM12.5 10.4211C11.8737 10.4211 11.2615 10.2358 10.7407 9.88886C10.2199 9.54186 9.81406 9.04866 9.57439 8.47163C9.3347 7.8946 9.27199 7.25965 9.39418 6.64709C9.51636 6.03451 9.81796 5.47183 10.2608 5.03018C10.7037 4.58855 11.2679 4.2878 11.8822 4.16595C12.4965 4.04409 13.1332 4.10663 13.7118 4.34565C14.2905 4.58466 14.785 4.98941 15.133 5.50873C15.4809 6.02804 15.6667 6.63859 15.6667 7.26316C15.6667 8.10068 15.333 8.9039 14.7392 9.49613C14.1453 10.0884 13.3399 10.4211 12.5 10.4211ZM22 22V20.9474C22 18.9932 21.2216 17.119 19.8359 15.7371C18.4501 14.3553 16.5708 13.5789 14.6111 13.5789H10.3889C8.42924 13.5789 6.54984 14.3553 5.16416 15.7371C3.77848 17.119 3 18.9932 3 20.9474V22H5.11111V20.9474C5.11111 19.5515 5.66716 18.2127 6.65693 17.2258C7.64671 16.2387 8.98914 15.6842 10.3889 15.6842H14.6111C16.0109 15.6842 17.3533 16.2387 18.3431 17.2258C19.3329 18.2127 19.8889 19.5515 19.8889 20.9474V22H22Z" fill="white"/>
</svg>
