<svg width="16" height="17" viewBox="0 0 16 17" fill="none" xmlns="http://www.w3.org/2000/svg">
<path d="M3.695 11.57C4.29 11.115 4.955 10.7562 5.69 10.4937C6.425 10.2312 7.195 10.1 8 10.1C8.805 10.1 9.575 10.2312 10.31 10.4937C11.045 10.7562 11.71 11.115 12.305 11.57C12.7133 11.0917 13.0312 10.5492 13.2587 9.9425C13.4862 9.33583 13.6 8.68833 13.6 8C13.6 6.44833 13.0546 5.12708 11.9637 4.03625C10.8729 2.94542 9.55167 2.4 8 2.4C6.44833 2.4 5.12708 2.94542 4.03625 4.03625C2.94542 5.12708 2.4 6.44833 2.4 8C2.4 8.68833 2.51375 9.33583 2.74125 9.9425C2.96875 10.5492 3.28667 11.0917 3.695 11.57ZM8 8.7C7.31167 8.7 6.73125 8.46375 6.25875 7.99125C5.78625 7.51875 5.55 6.93833 5.55 6.25C5.55 5.56167 5.78625 4.98125 6.25875 4.50875C6.73125 4.03625 7.31167 3.8 8 3.8C8.68833 3.8 9.26875 4.03625 9.74125 4.50875C10.2137 4.98125 10.45 5.56167 10.45 6.25C10.45 6.93833 10.2137 7.51875 9.74125 7.99125C9.26875 8.46375 8.68833 8.7 8 8.7ZM8 15C7.03167 15 6.12167 14.8162 5.27 14.4487C4.41833 14.0812 3.6775 13.5825 3.0475 12.9525C2.4175 12.3225 1.91875 11.5817 1.55125 10.73C1.18375 9.87833 1 8.96833 1 8C1 7.03167 1.18375 6.12167 1.55125 5.27C1.91875 4.41833 2.4175 3.6775 3.0475 3.0475C3.6775 2.4175 4.41833 1.91875 5.27 1.55125C6.12167 1.18375 7.03167 1 8 1C8.96833 1 9.87833 1.18375 10.73 1.55125C11.5817 1.91875 12.3225 2.4175 12.9525 3.0475C13.5825 3.6775 14.0812 4.41833 14.4487 5.27C14.8162 6.12167 15 7.03167 15 8C15 8.96833 14.8162 9.87833 14.4487 10.73C14.0812 11.5817 13.5825 12.3225 12.9525 12.9525C12.3225 13.5825 11.5817 14.0812 10.73 14.4487C9.87833 14.8162 8.96833 15 8 15ZM8 13.6C8.61833 13.6 9.20167 13.5096 9.75 13.3288C10.2983 13.1479 10.8 12.8883 11.255 12.55C10.8 12.2117 10.2983 11.9521 9.75 11.7712C9.20167 11.5904 8.61833 11.5 8 11.5C7.38167 11.5 6.79833 11.5904 6.25 11.7712C5.70167 11.9521 5.2 12.2117 4.745 12.55C5.2 12.8883 5.70167 13.1479 6.25 13.3288C6.79833 13.5096 7.38167 13.6 8 13.6ZM8 7.3C8.30333 7.3 8.55417 7.20083 8.7525 7.0025C8.95083 6.80417 9.05 6.55333 9.05 6.25C9.05 5.94667 8.95083 5.69583 8.7525 5.4975C8.55417 5.29917 8.30333 5.2 8 5.2C7.69667 5.2 7.44583 5.29917 7.2475 5.4975C7.04917 5.69583 6.95 5.94667 6.95 6.25C6.95 6.55333 7.04917 6.80417 7.2475 7.0025C7.44583 7.20083 7.69667 7.3 8 7.3Z" fill="white"/>
</svg>
