<svg width="16" height="17" viewBox="0 0 16 17" fill="none" xmlns="http://www.w3.org/2000/svg">
<path fill-rule="evenodd" clip-rule="evenodd" d="M4.23057 0.800781C2.05967 0.800781 0.299805 2.56065 0.299805 4.73155V12.27C0.299805 14.4409 2.05967 16.2008 4.23057 16.2008H11.769C13.9399 16.2008 15.6998 14.4409 15.6998 12.27V4.73155C15.6998 2.56065 13.9399 0.800781 11.769 0.800781H4.23057ZM1.6998 4.73155C1.6998 3.33385 2.83287 2.20078 4.23057 2.20078H11.769C13.1667 2.20078 14.2998 3.33385 14.2998 4.73155V12.27C14.2998 13.6677 13.1667 14.8008 11.769 14.8008H4.23057C2.83287 14.8008 1.6998 13.6677 1.6998 12.27V4.73155ZM6.26992 7.30981C6.50424 7.0755 6.50424 6.6956 6.26992 6.46128C6.03561 6.22697 5.65571 6.22697 5.42139 6.46128L3.80601 8.07667C3.57169 8.31098 3.57169 8.69088 3.80601 8.9252L5.42139 10.5406C5.65571 10.7749 6.03561 10.7749 6.26992 10.5406C6.50424 10.3063 6.50424 9.92637 6.26992 9.69205L5.0788 8.50093L6.26992 7.30981ZM10.2678 6.46128C10.0335 6.6956 10.0335 7.0755 10.2678 7.30981L11.4589 8.50093L10.2678 9.69205C10.0335 9.92637 10.0335 10.3063 10.2678 10.5406C10.5021 10.7749 10.882 10.7749 11.1163 10.5406L12.7317 8.9252C12.966 8.69088 12.966 8.31098 12.7317 8.07667L11.1163 6.46128C10.882 6.22697 10.5021 6.22697 10.2678 6.46128ZM9.6518 5.98081C9.74702 5.66341 9.56691 5.32892 9.24951 5.2337C8.93212 5.13848 8.59763 5.31859 8.50241 5.63599L6.88702 11.0206C6.7918 11.338 6.97191 11.6725 7.28931 11.7677C7.60671 11.8629 7.9412 11.6828 8.03641 11.3654L9.6518 5.98081Z" fill="#888888"/>
</svg>
