<svg width="64" height="64" viewBox="0 0 64 64" fill="none" xmlns="http://www.w3.org/2000/svg">
<path fill-rule="evenodd" clip-rule="evenodd" d="M28.0745 6.08897C29.2726 5.41443 30.6243 5.06006 31.9992 5.06006C33.3742 5.06006 34.7259 5.41443 35.924 6.08897C37.1221 6.76351 38.1262 7.73546 38.8392 8.91103L38.8469 8.9237L61.4336 46.6304L61.4552 46.6672C62.1537 47.8769 62.5234 49.2484 62.5273 50.6453C62.5312 52.0422 62.1693 53.4157 61.4775 54.6293C60.7858 55.8429 59.7883 56.8542 58.5844 57.5626C57.3805 58.271 56.012 58.6519 54.6152 58.6672L54.5859 58.6675L9.38327 58.6674C7.98645 58.652 6.61802 58.271 5.4141 57.5626C4.21017 56.8542 3.21271 55.8429 2.52097 54.6293C1.82923 53.4157 1.46731 52.0422 1.47122 50.6453C1.47513 49.2484 1.84474 47.8769 2.54327 46.6672L2.56493 46.6304L25.1592 8.91101C25.8723 7.73544 26.8764 6.76351 28.0745 6.08897ZM31.9992 10.3934C31.5409 10.3934 31.0904 10.5115 30.691 10.7364C30.2934 10.9602 29.96 11.2823 29.7225 11.6717L7.15307 49.3496C6.92593 49.749 6.80582 50.2005 6.80454 50.6602C6.80323 51.1259 6.92387 51.5837 7.15445 51.9882C7.38503 52.3928 7.71752 52.7299 8.11883 52.966C8.51663 53.2001 8.96829 53.3269 9.42963 53.334H54.5688C55.0302 53.3269 55.4819 53.2001 55.8797 52.966C56.281 52.7299 56.6134 52.3928 56.844 51.9882C57.0746 51.5837 57.1953 51.1259 57.194 50.6602C57.1927 50.2006 57.0726 49.7491 56.8455 49.3497L34.2792 11.6771L34.276 11.6717C34.0385 11.2823 33.7051 10.9602 33.3075 10.7364C32.9081 10.5115 32.4576 10.3934 31.9992 10.3934ZM31.9998 21.3335C33.4726 21.3335 34.6665 22.5274 34.6665 24.0002V34.6668C34.6665 36.1396 33.4726 37.3335 31.9998 37.3335C30.5271 37.3335 29.3332 36.1396 29.3332 34.6668V24.0002C29.3332 22.5274 30.5271 21.3335 31.9998 21.3335ZM31.9998 42.6668C30.5271 42.6668 29.3332 43.8607 29.3332 45.3335C29.3332 46.8063 30.5271 48.0002 31.9998 48.0002H32.0265C33.4993 48.0002 34.6932 46.8063 34.6932 45.3335C34.6932 43.8607 33.4993 42.6668 32.0265 42.6668H31.9998Z" fill="#EA5455"/>
</svg>
