<svg width="35" height="36" viewBox="0 0 35 36" fill="none" xmlns="http://www.w3.org/2000/svg">
<mask id="path-1-inside-1_492_12127" fill="white">
<path d="M0 4C0 1.79086 1.79086 0 4 0H31C33.2091 0 35 1.79086 35 4V32C35 34.2091 33.2091 36 31 36H4C1.79086 36 0 34.2091 0 32V4Z"/>
</mask>
<path d="M0 4C0 1.79086 1.79086 0 4 0H31C33.2091 0 35 1.79086 35 4V32C35 34.2091 33.2091 36 31 36H4C1.79086 36 0 34.2091 0 32V4Z" fill="#E9ECEF"/>
<g clip-path="url(#clip0_492_12127)">
<path fill-rule="evenodd" clip-rule="evenodd" d="M16.519 11.5229C16.8185 11.3542 17.1564 11.2656 17.5002 11.2656C17.8439 11.2656 18.1818 11.3542 18.4814 11.5229C18.7809 11.6915 19.0319 11.9345 19.2102 12.2284L19.2121 12.2315L24.8588 21.6582L24.8642 21.6674C25.0388 21.9698 25.1312 22.3127 25.1322 22.6619C25.1332 23.0112 25.0427 23.3545 24.8697 23.6579C24.6968 23.9613 24.4474 24.2142 24.1465 24.3913C23.8455 24.5684 23.5034 24.6636 23.1542 24.6674L23.1468 24.6675L11.8462 24.6675C11.497 24.6636 11.1549 24.5684 10.8539 24.3913C10.5529 24.2142 10.3035 23.9613 10.1306 23.6579C9.95767 23.3545 9.86719 23.0112 9.86817 22.6619C9.86915 22.3127 9.96155 21.9698 10.1362 21.6674L10.1416 21.6582L15.7902 12.2284C15.9684 11.9345 16.2195 11.6915 16.519 11.5229ZM17.5002 12.599C17.3856 12.599 17.273 12.6285 17.1731 12.6847C17.0737 12.7407 16.9904 12.8212 16.931 12.9185L11.2886 22.338C11.2318 22.4379 11.2018 22.5507 11.2015 22.6657C11.2012 22.7821 11.2313 22.8965 11.289 22.9977C11.3466 23.0988 11.4297 23.1831 11.5301 23.2421C11.6295 23.3006 11.7424 23.3323 11.8578 23.3341H23.1426C23.2579 23.3323 23.3708 23.3006 23.4703 23.2421C23.5706 23.1831 23.6537 23.0988 23.7114 22.9977C23.769 22.8965 23.7992 22.7821 23.7989 22.6657C23.7985 22.5508 23.7685 22.4379 23.7117 22.338L18.0702 12.9199L18.0694 12.9185C18.01 12.8212 17.9266 12.7407 17.8272 12.6847C17.7274 12.6285 17.6148 12.599 17.5002 12.599ZM17.5003 15.334C17.8685 15.334 18.167 15.6325 18.167 16.0007V18.6673C18.167 19.0355 17.8685 19.334 17.5003 19.334C17.1321 19.334 16.8337 19.0355 16.8337 18.6673V16.0007C16.8337 15.6325 17.1321 15.334 17.5003 15.334ZM17.5003 20.6673C17.1321 20.6673 16.8337 20.9658 16.8337 21.334C16.8337 21.7022 17.1321 22.0007 17.5003 22.0007H17.507C17.8752 22.0007 18.1737 21.7022 18.1737 21.334C18.1737 20.9658 17.8752 20.6673 17.507 20.6673H17.5003Z" fill="#212B36"/>
</g>
<path d="M-1 4C-1 1.23858 1.23858 -1 4 -1H31C33.7614 -1 36 1.23858 36 4H34C34 2.34315 32.6569 1 31 1H4C2.34315 1 1 2.34315 1 4H-1ZM36 32C36 34.7614 33.7614 37 31 37H4C1.23858 37 -1 34.7614 -1 32H1C1 33.6569 2.34315 35 4 35H31C32.6569 35 34 33.6569 34 32H36ZM4 37C1.23858 37 -1 34.7614 -1 32V4C-1 1.23858 1.23858 -1 4 -1V1C2.34315 1 1 2.34315 1 4V32C1 33.6569 2.34315 35 4 35V37ZM31 -1C33.7614 -1 36 1.23858 36 4V32C36 34.7614 33.7614 37 31 37V35C32.6569 35 34 33.6569 34 32V4C34 2.34315 32.6569 1 31 1V-1Z" fill="#CED4DA" mask="url(#path-1-inside-1_492_12127)"/>
<defs>
<clipPath id="clip0_492_12127">
<rect width="16" height="16" fill="white" transform="translate(9.5 10)"/>
</clipPath>
</defs>
</svg>
