<svg width="16" height="17" viewBox="0 0 16 17" fill="none" xmlns="http://www.w3.org/2000/svg">
<path fill-rule="evenodd" clip-rule="evenodd" d="M10.9657 1.57145L2.41011 3.90475C1.64944 4.11188 1 4.81565 1 5.59144V13.0152C1 13.409 1.16389 13.7867 1.45561 14.0651C1.74733 14.3436 2.143 14.5 2.55556 14.5H13.4444C13.857 14.5 14.2527 14.3436 14.5444 14.0651C14.8361 13.7867 15 13.409 15 13.0152V5.59144C15 5.19766 14.8361 4.82 14.5444 4.54156C14.2527 4.26311 13.857 4.10668 13.4444 4.10668V3.35613C13.4445 3.06884 13.3746 2.78546 13.2404 2.52831C13.1062 2.27117 12.9112 2.04727 12.6709 1.87426C12.4307 1.70125 12.1516 1.58385 11.8556 1.53131C11.5597 1.47876 11.2551 1.4925 10.9657 1.57145ZM11.5712 2.99112C11.5121 2.98061 11.4513 2.98333 11.3934 2.99905L7.33111 4.10668H11.8889V3.35539C11.8888 3.29802 11.8747 3.24144 11.8479 3.19012C11.821 3.13879 11.782 3.09411 11.734 3.05958C11.686 3.02506 11.6303 3.00162 11.5712 2.99112ZM13.4444 5.59144H2.55556V13.0152H13.4444V5.59144ZM11.5468 10.0911C11.7656 9.88227 11.8885 9.59903 11.8885 9.30369C11.8885 9.00835 11.7656 8.72511 11.5468 8.51628C11.328 8.30744 11.0313 8.19012 10.7218 8.19012C10.4124 8.19012 10.1157 8.30744 9.89688 8.51628C9.67809 8.72511 9.55518 9.00835 9.55518 9.30369C9.55518 9.59903 9.67809 9.88227 9.89688 10.0911C10.1157 10.2999 10.4124 10.4173 10.7218 10.4173C11.0313 10.4173 11.328 10.2999 11.5468 10.0911Z" fill="#888888"/>
</svg>
