<svg width="14" height="14" viewBox="0 0 14 14" fill="none" xmlns="http://www.w3.org/2000/svg">
<path fill-rule="evenodd" clip-rule="evenodd" d="M9.96567 0.571452L1.41011 2.90475C0.649445 3.11188 0 3.81565 0 4.59144V12.0152C0 12.409 0.163888 12.7867 0.455612 13.0651C0.747335 13.3436 1.143 13.5 1.55556 13.5H12.4444C12.857 13.5 13.2527 13.3436 13.5444 13.0651C13.8361 12.7867 14 12.409 14 12.0152V4.59144C14 4.19766 13.8361 3.82 13.5444 3.54156C13.2527 3.26311 12.857 3.10668 12.4444 3.10668V2.35613C12.4445 2.06884 12.3746 1.78546 12.2404 1.52831C12.1062 1.27117 11.9112 1.04727 11.6709 0.874264C11.4307 0.701255 11.1516 0.583855 10.8556 0.531308C10.5597 0.478761 10.2551 0.492503 9.96567 0.571452ZM10.5712 1.99112C10.5121 1.98061 10.4513 1.98333 10.3934 1.99905L6.33111 3.10668H10.8889V2.35539C10.8888 2.29802 10.8747 2.24144 10.8479 2.19012C10.821 2.13879 10.782 2.09411 10.734 2.05958C10.686 2.02506 10.6303 2.00162 10.5712 1.99112ZM12.4444 4.59144H1.55556V12.0152H12.4444V4.59144ZM10.5468 9.0911C10.7656 8.88227 10.8885 8.59903 10.8885 8.30369C10.8885 8.00835 10.7656 7.72511 10.5468 7.51628C10.328 7.30744 10.0313 7.19012 9.72184 7.19012C9.41242 7.19012 9.11568 7.30744 8.89688 7.51628C8.67809 7.72511 8.55518 8.00835 8.55518 8.30369C8.55518 8.59903 8.67809 8.88227 8.89688 9.0911C9.11568 9.29994 9.41242 9.41726 9.72184 9.41726C10.0313 9.41726 10.328 9.29994 10.5468 9.0911Z" fill="white"/>
</svg>
