<svg width="20" height="20" viewBox="0 0 20 20" fill="none" xmlns="http://www.w3.org/2000/svg">
<path fill-rule="evenodd" clip-rule="evenodd" d="M9.16634 8.16683C8.61406 8.16683 8.16634 8.61454 8.16634 9.16683V16.6668C8.16634 17.2191 8.61406 17.6668 9.16634 17.6668H16.6663C17.2186 17.6668 17.6663 17.2191 17.6663 16.6668V9.16683C17.6663 8.61454 17.2186 8.16683 16.6663 8.16683H9.16634ZM6.83301 9.16683C6.83301 7.87816 7.87768 6.8335 9.16634 6.8335H16.6663C17.955 6.8335 18.9997 7.87816 18.9997 9.16683V16.6668C18.9997 17.9555 17.955 19.0002 16.6663 19.0002H9.16634C7.87768 19.0002 6.83301 17.9555 6.83301 16.6668V9.16683Z" fill="#212B36"/>
<path fill-rule="evenodd" clip-rule="evenodd" d="M3.33333 2.33333C3.06812 2.33333 2.81376 2.43869 2.62623 2.62623C2.43869 2.81376 2.33333 3.06812 2.33333 3.33333V10.8333C2.33333 11.0985 2.43869 11.3529 2.62623 11.5404C2.81376 11.728 3.06812 11.8333 3.33333 11.8333H4.16667C4.53486 11.8333 4.83333 12.1318 4.83333 12.5C4.83333 12.8682 4.53486 13.1667 4.16667 13.1667H3.33333C2.71449 13.1667 2.121 12.9208 1.68342 12.4832C1.24583 12.0457 1 11.4522 1 10.8333V3.33333C1 2.71449 1.24583 2.121 1.68342 1.68342C2.121 1.24583 2.71449 1 3.33333 1H10.8333C11.4522 1 12.0457 1.24583 12.4832 1.68342C12.9208 2.121 13.1667 2.71449 13.1667 3.33333V4.16667C13.1667 4.53486 12.8682 4.83333 12.5 4.83333C12.1318 4.83333 11.8333 4.53486 11.8333 4.16667V3.33333C11.8333 3.06812 11.728 2.81376 11.5404 2.62623C11.3529 2.43869 11.0985 2.33333 10.8333 2.33333H3.33333Z" fill="#212B36"/>
</svg>
