<svg width="25" height="24" viewBox="0 0 25 24" fill="none" xmlns="http://www.w3.org/2000/svg">
<path fill-rule="evenodd" clip-rule="evenodd" d="M9.47209 4.01903C8.36218 4.19192 7.66443 4.36804 6.84812 4.68144C6.08697 4.97366 5.13507 5.52389 4.82918 5.84849C4.19309 6.52343 3.28007 8.84991 2.70054 11.2724C2.2606 13.1116 2.002 15.0013 2.00009 16.3916C1.99943 16.8771 1.99706 16.8686 2.2288 17.221C2.80761 18.1015 3.77537 18.8173 5.12258 19.3613C5.88743 19.6702 7.00607 19.9458 7.67618 19.9905C7.97092 20.0102 8.05626 19.9862 8.17901 19.849C8.30824 19.7045 9.04415 18.6418 9.0306 18.6191C9.02276 18.6061 8.96914 18.5863 8.91138 18.5751C8.72922 18.5399 7.95435 18.2715 7.59575 18.1195C6.66339 17.7243 5.61466 17.0687 5.49347 16.8054C5.41495 16.6347 5.44518 16.4069 5.563 16.2816C5.67626 16.1611 5.85181 16.1071 5.9965 16.1483C6.05143 16.1639 6.1917 16.2507 6.30824 16.3411C7.25344 17.0741 8.8609 17.7088 10.3976 17.9557C11.2372 18.0906 11.7863 18.1261 12.752 18.1078C13.8354 18.0873 14.3919 18.0227 15.3332 17.8084C16.6173 17.5161 17.8903 16.9508 18.77 16.2824C18.9517 16.1442 18.9587 16.1418 19.1327 16.1532C19.3234 16.1657 19.4182 16.2265 19.5001 16.3887C19.5524 16.4923 19.5513 16.7164 19.4979 16.8228C19.4031 17.0119 18.6581 17.5096 17.9339 17.8678C17.4254 18.1192 16.9783 18.2974 16.3918 18.4824C16.1584 18.556 15.9619 18.6218 15.9553 18.6287C15.9413 18.6431 16.6877 19.7098 16.7988 19.8341C16.9585 20.0129 17.1149 20.0356 17.6435 19.9571C20.0379 19.6015 22.1217 18.4266 22.906 16.99L23 16.8179L22.9822 16.1518C22.9464 14.8152 22.7642 13.4192 22.4183 11.8308C21.8404 9.1766 20.8088 6.49099 20.1029 5.80305C19.7997 5.50756 19.097 5.07922 18.4763 4.81162C18.1321 4.66323 17.421 4.41766 17.073 4.32701C16.477 4.17177 15.5175 4.00012 15.2448 4C14.9982 3.99985 14.8378 4.15392 14.7246 4.4997L14.6673 4.67459L14.7721 4.69329C16.118 4.93342 17.5076 5.43918 18.5262 6.05961C18.8161 6.23624 18.8839 6.32851 18.884 6.54714C18.8842 6.81432 18.7101 7.00251 18.4608 7.00451C18.3373 7.00551 18.2794 6.9858 18.1203 6.88874C16.5405 5.92455 14.2997 5.3655 12.2387 5.42127C11.8857 5.43082 11.4237 5.45953 11.2119 5.48509C9.57807 5.68222 8.05092 6.17003 6.94492 6.84806C6.68327 7.00845 6.58672 7.03648 6.43316 6.99659C6.10183 6.91056 5.98669 6.47066 6.2324 6.22956C6.28117 6.18171 6.48002 6.05156 6.67431 5.94035C7.66012 5.37606 8.77885 4.97992 10.1628 4.70503L10.3259 4.67265L10.2548 4.47599C10.1237 4.11342 9.99189 3.99759 9.71743 4.00391C9.62171 4.00612 9.5113 4.01291 9.47209 4.01903ZM9.96237 11.1441C10.234 11.2405 10.3659 11.3268 10.5739 11.5442C10.9279 11.914 11.1049 12.3775 11.1076 12.9415C11.1094 13.3094 11.0591 13.5338 10.8998 13.868C10.4956 14.716 9.62391 15.0396 8.84253 14.6317C8.59936 14.5047 8.30582 14.1803 8.16478 13.8827C8.00264 13.5405 7.95098 13.3142 7.95001 12.9415C7.94907 12.5715 7.99973 12.3483 8.1621 12.0067C8.51254 11.2693 9.27945 10.9018 9.96237 11.1441ZM15.7059 11.0911C15.799 11.1088 15.97 11.1684 16.0859 11.2235C16.4972 11.4191 16.8598 11.9067 16.9915 12.4414C17.0554 12.7009 17.0561 13.1929 16.993 13.4415C16.7654 14.337 16.0435 14.9058 15.2736 14.7962C14.6399 14.7059 14.1143 14.1757 13.931 13.4415C13.8667 13.1841 13.8664 12.6929 13.9302 12.4414C14.1634 11.5231 14.926 10.9432 15.7059 11.0911Z" fill="#777777"/>
</svg>
