<svg width="35" height="36" viewBox="0 0 35 36" fill="none" xmlns="http://www.w3.org/2000/svg">
<mask id="path-1-inside-1_492_12100" fill="white">
<path d="M0 4C0 1.79086 1.79086 0 4 0H31C33.2091 0 35 1.79086 35 4V32C35 34.2091 33.2091 36 31 36H4C1.79086 36 0 34.2091 0 32V4Z"/>
</mask>
<path d="M0 4C0 1.79086 1.79086 0 4 0H31C33.2091 0 35 1.79086 35 4V32C35 34.2091 33.2091 36 31 36H4C1.79086 36 0 34.2091 0 32V4Z" fill="#E9ECEF"/>
<path fill-rule="evenodd" clip-rule="evenodd" d="M21.2256 13.2098C21.3825 13.6106 21.0523 14.0013 20.6219 14.0013C20.3043 14.0013 20.0354 13.7812 19.8957 13.496C19.4619 12.6108 18.552 12.0013 17.4997 12.0013C16.0269 12.0013 14.833 13.1952 14.833 14.668V16.668H22.1663C23.2709 16.668 24.1663 17.5634 24.1663 18.668V23.3346C24.1663 24.4392 23.2709 25.3346 22.1663 25.3346H12.833C11.7284 25.3346 10.833 24.4392 10.833 23.3346V18.668C10.833 17.5634 11.7284 16.668 12.833 16.668H13.4997V14.668C13.4997 12.4588 15.2905 10.668 17.4997 10.668C19.1943 10.668 20.6428 11.7218 21.2256 13.2098ZM12.1663 18.668C12.1663 18.2998 12.4648 18.0013 12.833 18.0013H22.1663C22.5345 18.0013 22.833 18.2998 22.833 18.668V23.3346C22.833 23.7028 22.5345 24.0013 22.1663 24.0013H12.833C12.4648 24.0013 12.1663 23.7028 12.1663 23.3346V18.668Z" fill="#212B36"/>
<path d="M-1 4C-1 1.23858 1.23858 -1 4 -1H31C33.7614 -1 36 1.23858 36 4H34C34 2.34315 32.6569 1 31 1H4C2.34315 1 1 2.34315 1 4H-1ZM36 32C36 34.7614 33.7614 37 31 37H4C1.23858 37 -1 34.7614 -1 32H1C1 33.6569 2.34315 35 4 35H31C32.6569 35 34 33.6569 34 32H36ZM4 37C1.23858 37 -1 34.7614 -1 32V4C-1 1.23858 1.23858 -1 4 -1V1C2.34315 1 1 2.34315 1 4V32C1 33.6569 2.34315 35 4 35V37ZM31 -1C33.7614 -1 36 1.23858 36 4V32C36 34.7614 33.7614 37 31 37V35C32.6569 35 34 33.6569 34 32V4C34 2.34315 32.6569 1 31 1V-1Z" fill="#CED4DA" mask="url(#path-1-inside-1_492_12100)"/>
</svg>
