<svg width="18" height="14" viewBox="0 0 18 14" fill="none" xmlns="http://www.w3.org/2000/svg">
<g clip-path="url(#clip0_492_6793)">
<path d="M15.483 0.582764H2.84099C1.96948 0.582764 1.26074 1.2915 1.26074 2.16301V11.6445C1.26074 12.516 1.96948 13.2247 2.84099 13.2247H15.483C16.3545 13.2247 17.0632 12.516 17.0632 11.6445V2.16301C17.0632 1.2915 16.3545 0.582764 15.483 0.582764ZM15.483 2.16301V2.56677L9.16198 7.4837L2.84099 2.56755V2.16301H15.483ZM2.84099 11.6445V4.56815L8.67684 9.1074C8.8152 9.21608 8.98604 9.27516 9.16198 9.27516C9.33792 9.27516 9.50876 9.21608 9.64711 9.1074L15.483 4.56815L15.4846 11.6445H2.84099Z" fill="#939EA8"/>
</g>
<defs>
<clipPath id="clip0_492_6793">
<rect width="16.4346" height="12.642" fill="white" transform="translate(0.944336 0.583008)"/>
</clipPath>
</defs>
</svg>
