<svg width="71" height="79" viewBox="0 0 71 79" fill="none" xmlns="http://www.w3.org/2000/svg">
<path fill-rule="evenodd" clip-rule="evenodd" d="M10.6613 0H8.66133V2V53.9065C3.57172 55.4597 0.435932 60.2404 0.0428505 65.0884C-0.177944 67.8115 0.445423 70.6552 2.12447 73.0889C3.81375 75.5374 6.4861 77.4471 10.1414 78.4312L10.3968 78.5H10.6613H59.6613H59.9621L60.2495 78.4116C67.5458 76.1665 70.9639 70.6401 70.6582 65.1391C70.3843 60.208 67.1067 55.5915 61.6613 53.9296V15.5V14.6716L61.0756 14.0858L60.5756 13.5858L47.5756 0.585786L46.9898 0H46.1613H45.6613H10.6613ZM4.02977 65.4116C4.27833 62.346 6.01573 59.5407 8.66133 58.2073V64C7.55677 64 6.66134 64.8954 6.66134 66C6.66134 67.1046 7.55677 68 8.66133 68H10.6613H28.6613C29.7659 68 30.6613 67.1046 30.6613 66C30.6613 64.8954 29.7659 64 28.6613 64H12.6613V55.5V4H43.6613V15V17H45.6613H57.6613V55.5V64H41.6613C40.5568 64 39.6613 64.8954 39.6613 66C39.6613 67.1046 40.5568 68 41.6613 68H59.6613H61.6613C62.7659 68 63.6613 67.1046 63.6613 66C63.6613 64.8954 62.7659 64 61.6613 64V58.1958C64.7635 59.603 66.5022 62.4418 66.6644 65.3609C66.8556 68.8023 64.8448 72.7028 59.3518 74.5H10.9345C8.23035 73.7207 6.47698 72.3539 5.41691 70.8174C4.3147 69.2198 3.87556 67.3135 4.02977 65.4116ZM54.3329 13L47.6613 6.32843V13H54.3329ZM26.6613 29.5C26.6613 28.3954 25.7659 27.5 24.6613 27.5C23.5567 27.5 22.6613 28.3954 22.6613 29.5V32C22.6613 33.1046 23.5567 34 24.6613 34C25.7659 34 26.6613 33.1046 26.6613 32V29.5ZM47.6613 29.5C47.6613 28.3954 46.7659 27.5 45.6613 27.5C44.5567 27.5 43.6613 28.3954 43.6613 29.5V32C43.6613 33.1046 44.5567 34 45.6613 34C46.7659 34 47.6613 33.1046 47.6613 32V29.5ZM30.9629 42.0185C32.4225 40.7674 33.8508 40.25 35.1613 40.25C36.4718 40.25 37.9001 40.7674 39.3597 42.0185C40.1984 42.7374 41.461 42.6402 42.1798 41.8016C42.8987 40.9629 42.8015 39.7003 41.9629 38.9815C39.9225 37.2326 37.6008 36.25 35.1613 36.25C32.7218 36.25 30.4001 37.2326 28.3597 38.9815C27.5211 39.7003 27.424 40.9629 28.1428 41.8016C28.8616 42.6402 30.1242 42.7374 30.9629 42.0185ZM34.9999 68C36.1045 68 36.9999 67.1046 36.9999 66C36.9999 64.8954 36.1045 64 34.9999 64C33.8954 64 32.9999 64.8954 32.9999 66C32.9999 67.1046 33.8954 68 34.9999 68Z" fill="#FF9F43"/>
</svg>
