<svg width="16" height="17" viewBox="0 0 16 17" fill="none" xmlns="http://www.w3.org/2000/svg">
<path fill-rule="evenodd" clip-rule="evenodd" d="M7.99984 2.49935C4.68613 2.49935 1.99984 5.18564 1.99984 8.49935C1.99984 11.8131 4.68613 14.4993 7.99984 14.4993C11.3135 14.4993 13.9998 11.8131 13.9998 8.49935C13.9998 5.18564 11.3135 2.49935 7.99984 2.49935ZM0.666504 8.49935C0.666504 4.44926 3.94975 1.16602 7.99984 1.16602C12.0499 1.16602 15.3332 4.44926 15.3332 8.49935C15.3332 12.5494 12.0499 15.8327 7.99984 15.8327C3.94975 15.8327 0.666504 12.5494 0.666504 8.49935Z" fill="#6C757D"/>
<path fill-rule="evenodd" clip-rule="evenodd" d="M8.17199 5.84862C7.86165 5.79539 7.54247 5.85371 7.27101 6.01326C6.99954 6.1728 6.7933 6.42327 6.6888 6.72031C6.56662 7.06763 6.18601 7.25015 5.83869 7.12797C5.49136 7.00579 5.30884 6.62518 5.43103 6.27785C5.64001 5.68378 6.05249 5.18283 6.59543 4.86375C7.13836 4.54466 7.77671 4.42802 8.3974 4.53448C9.0181 4.64095 9.58108 4.96365 9.98665 5.44543C10.3921 5.92711 10.6141 6.53673 10.6132 7.16635C10.6129 8.18659 9.85654 8.86034 9.31638 9.22045C9.02596 9.41406 8.74028 9.55642 8.52984 9.64995C8.42367 9.69714 8.33427 9.73295 8.26985 9.75749C8.23758 9.76978 8.21142 9.77931 8.19238 9.78608L8.16923 9.79419L8.16185 9.7967L8.15926 9.79758L8.15823 9.79792C8.15803 9.79799 8.1574 9.7982 7.94658 9.16575L8.1574 9.7982C7.8081 9.91463 7.43056 9.72586 7.31413 9.37656C7.19777 9.0275 7.38622 8.65022 7.73507 8.53352L7.73421 8.53381C7.73428 8.53379 7.73434 8.53377 7.73507 8.53352L7.7457 8.52979C7.75596 8.52614 7.77277 8.52005 7.79519 8.5115C7.84014 8.49438 7.90699 8.46768 7.98832 8.43154C8.15288 8.3584 8.3672 8.25076 8.57678 8.11105C9.03651 7.80456 9.27991 7.4785 9.27991 7.16575L9.27992 7.16475C9.28038 6.84987 9.1694 6.54499 8.96662 6.3041C8.76383 6.06321 8.48234 5.90186 8.17199 5.84862Z" fill="#6C757D"/>
<path fill-rule="evenodd" clip-rule="evenodd" d="M7.3335 11.8327C7.3335 11.4645 7.63197 11.166 8.00016 11.166H8.00683C8.37502 11.166 8.6735 11.4645 8.6735 11.8327C8.6735 12.2009 8.37502 12.4993 8.00683 12.4993H8.00016C7.63197 12.4993 7.3335 12.2009 7.3335 11.8327Z" fill="#6C757D"/>
</svg>
