<svg width="140" height="141" viewBox="0 0 140 141" fill="none" xmlns="http://www.w3.org/2000/svg">
<path d="M89.848 91.6895L70.1885 104.66L70.474 109.803L75.6065 120.616C75.6065 120.616 77.9743 122.864 84.9384 115.822C91.9024 108.78 100.712 94.7652 100.712 94.7652L89.848 91.6895Z" fill="white"/>
<path d="M89.8476 91.6896L100.712 94.7653C100.712 94.7653 91.902 108.773 84.9379 115.822C80.6898 120.122 78.148 120.957 76.8178 120.957C76.3862 120.992 75.9564 120.871 75.6061 120.616L70.4736 109.803L70.188 104.66L89.8476 91.6896ZM89.6108 90.1726L89.0815 90.5275L69.422 103.498L68.7256 103.944L68.7674 104.737L69.0599 109.886V110.158L69.1783 110.401L74.3038 121.215L74.4152 121.451L74.6033 121.625C75.2126 122.125 75.9896 122.374 76.776 122.321C79.1786 122.321 82.2498 120.456 85.892 116.754C92.8561 109.685 101.491 96.0457 101.854 95.4681L102.843 93.8955L101.053 93.3875L90.1888 90.3048L89.569 90.1309L89.6108 90.1726Z" fill="black"/>
<path d="M122.948 64.6554C122.835 64.4005 122.659 64.1789 122.435 64.0119C122.212 63.8449 121.95 63.7382 121.673 63.7021L112.035 62.4148C111.618 62.3605 111.194 62.3944 110.791 62.5143C110.388 62.6341 110.014 62.8373 109.695 63.1106L82.1104 86.7699L83.3569 87.9876L93.7055 90.4858L123.143 65.0869L122.948 64.6554Z" fill="black"/>
<path d="M115.301 66.6182C115.407 66.7283 115.55 66.7944 115.703 66.8035C115.855 66.8125 116.005 66.7637 116.123 66.6669C116.26 66.6047 116.367 66.4907 116.421 66.3499C116.474 66.2092 116.47 66.053 116.409 65.9154C116.305 65.8029 116.162 65.7344 116.009 65.724C115.856 65.7137 115.705 65.7622 115.587 65.8597C115.451 65.9248 115.345 66.0401 115.291 66.1815C115.238 66.3229 115.242 66.4794 115.301 66.6182Z" fill="white"/>
<path d="M123.143 65.0874C122.509 65.091 121.875 65.0422 121.249 64.9412L116.116 64.3428L112.579 63.9044C112.286 63.8484 111.984 63.8581 111.695 63.9327C111.406 64.0073 111.137 64.145 110.907 64.3358L109.333 65.7276L102.286 71.7885C97.2717 76.082 92.7103 79.944 89.3884 82.7205L85.4398 85.984C84.9685 86.4026 84.4656 86.7841 83.9355 87.1252C84.3642 86.6528 84.83 86.2153 85.3284 85.817L89.1586 82.4212C92.4038 79.5682 96.9235 75.6575 101.938 71.364L109.02 65.3309L110.615 63.981C110.9 63.7518 111.231 63.5865 111.585 63.4965C111.94 63.4064 112.309 63.3937 112.669 63.4591L116.2 63.974L121.277 64.7394C121.907 64.8094 122.531 64.9257 123.143 65.0874Z" fill="#84D3FF"/>
<path d="M113.129 70.0343C113.129 70.0343 112.251 69.6029 111.039 71.9897C109.828 74.3765 106.164 81.1681 106.164 81.1681L102.035 77.2643L95.7671 76.3527C95.7671 76.3527 94.1027 77.2086 94.8827 78.1411C95.6626 79.0735 99.3048 80.8341 99.3048 80.8341L100.99 85.7051L93.9773 79.5258C93.9773 79.5258 91.0803 79.4702 91.4076 81.342C91.7349 83.2139 95.7532 89.9081 95.7532 89.9081L91.7628 88.3981L87.7584 84.1185C87.7584 84.1185 86.2542 83.7636 86.4562 85.1832C86.6581 86.6027 90.3978 92.5732 90.3978 92.5732L95.6557 97.2285C95.6557 97.2285 99.0541 97.9244 99.6461 97.0128C100.083 96.3024 100.44 95.5464 100.712 94.7582C100.712 94.7582 102.613 94.7582 103.184 94.0137C103.583 93.3623 103.842 92.6346 103.943 91.8774C103.943 91.8774 106.575 93.1369 107.355 91.6895C108.137 89.8352 108.607 87.8651 108.748 85.8582C108.804 84.5917 113.358 73.9729 113.337 73.6041C113.317 73.2353 115.085 69.7908 113.129 70.0343Z" fill="white"/>
<path d="M112.955 69.9996C113.012 69.9863 113.072 69.9863 113.129 69.9996C113.191 69.9927 113.254 69.9927 113.317 69.9996C114.953 69.9996 113.317 73.2075 113.317 73.5555C113.317 73.9034 108.783 84.5431 108.728 85.8096C108.587 87.8165 108.116 89.7866 107.335 91.6409C107.194 91.8785 106.988 92.0706 106.741 92.1941C106.494 92.3175 106.217 92.367 105.942 92.3367C105.253 92.3085 104.575 92.1528 103.943 91.8775C103.854 92.6451 103.602 93.3851 103.205 94.0485C102.662 94.7444 100.921 94.7931 100.747 94.7931C100.475 95.5812 100.118 96.3373 99.6813 97.0477C99.4515 97.4026 98.769 97.507 98.0378 97.507C97.2501 97.4912 96.465 97.4097 95.6909 97.2634L90.3982 92.5733C90.3982 92.5733 86.6515 86.6098 86.4565 85.1902C86.3242 84.2439 86.951 84.0838 87.3828 84.0838C87.5093 84.0839 87.6354 84.0979 87.7588 84.1256L91.7632 88.4051L95.7396 89.8525C95.7396 89.8525 91.7214 83.1583 91.3941 81.2865C91.0668 79.4146 93.6643 79.4703 93.9429 79.4703L100.956 85.6495L99.2704 80.7785C99.2704 80.7785 95.6352 79.018 94.8482 78.0855C94.0613 77.1531 95.7327 76.2972 95.7327 76.2972L102 77.2087L106.116 81.1403C106.116 81.1403 109.786 74.3488 110.991 71.962C111.889 70.2084 112.6 69.9718 112.913 69.9718M112.913 68.5801C111.743 68.5801 110.685 69.5056 109.751 71.3635C108.923 72.9918 106.91 76.7425 105.754 78.8997L102.968 76.2345L102.641 75.9214L102.202 75.8588L95.9346 74.9542L95.4959 74.8846L95.1059 75.0864C94.6748 75.2885 94.2909 75.5787 93.979 75.9383C93.6671 76.2979 93.4342 76.7188 93.2953 77.1739C93.2221 77.4828 93.2221 77.8045 93.2953 78.1134C92.2431 78.1521 91.2459 78.593 90.5096 79.345C90.2571 79.6445 90.0763 79.9976 89.981 80.3775C89.8857 80.7573 89.8783 81.1539 89.9595 81.537C90.1614 82.706 91.415 85.1624 92.564 87.25H92.4944L88.7129 83.2071L88.4204 82.8939L88.0095 82.8035C87.7812 82.7505 87.5475 82.7248 87.3131 82.7269C86.97 82.7059 86.6267 82.7648 86.3102 82.8989C85.9938 83.0331 85.7128 83.2387 85.4893 83.4997C85.2659 83.7608 85.1061 84.07 85.0226 84.4032C84.9391 84.7364 84.9341 85.0844 85.008 85.4199C85.2239 86.9647 87.9747 91.4739 89.1447 93.3457L89.2561 93.5127L89.4023 93.6449L94.6672 98.3072L94.9457 98.5577L95.3218 98.6343C96.1838 98.7925 97.0571 98.8809 97.9333 98.8987C98.8247 98.8987 100.092 98.7873 100.719 97.8271C101.061 97.2846 101.357 96.7143 101.603 96.1222C102.601 96.0672 103.536 95.6222 104.208 94.8836C104.474 94.5096 104.685 94.0995 104.835 93.6658C105.176 93.7387 105.524 93.776 105.872 93.7772C106.396 93.8078 106.917 93.6901 107.377 93.4378C107.836 93.1854 108.215 92.8086 108.47 92.3506C109.375 90.6597 109.96 87.3126 110.03 85.9487C110.169 85.0859 112.056 80.3819 113.08 77.8559C114.334 74.7454 114.584 74.1122 114.619 73.7642C114.619 73.6807 114.689 73.5764 114.731 73.4581C115.162 72.2681 115.747 70.6746 114.94 69.5056C114.747 69.2332 114.489 69.013 114.19 68.8648C113.891 68.7166 113.56 68.6451 113.226 68.6566H113.136C113.045 68.6492 112.955 68.6492 112.864 68.6566L112.913 68.5801Z" fill="black"/>
<path d="M99.6467 96.9505C99.0956 97.1085 98.5136 97.1253 97.9544 96.9992C96.5952 96.8214 95.2816 96.3894 94.0824 95.7258C92.8771 95.069 91.8106 94.1852 90.9416 93.1233C90.2939 92.3091 90.0293 91.7316 90.092 91.6759C90.1546 91.6202 91.6728 93.7078 94.3888 95.1552C97.1048 96.6026 99.6675 96.7487 99.6467 96.9505Z" fill="black"/>
<path d="M99.0269 94.5078C98.8946 94.6191 97.9753 93.7562 97.0909 92.4828C96.2065 91.2094 95.6981 90.0543 95.8513 89.9708C96.0045 89.8872 96.7496 90.8754 97.6202 92.114C98.4907 93.3526 99.1662 94.3895 99.0269 94.5078Z" fill="black"/>
<path d="M103.706 90.1588C103.574 90.2701 102.662 89.4212 101.861 88.113C101.06 86.8048 100.712 85.6148 100.872 85.5453C101.032 85.4757 101.638 86.5264 102.411 87.779C103.184 89.0315 103.846 90.0405 103.706 90.1588Z" fill="black"/>
<path d="M108.267 86.867C108.079 86.867 107.787 85.5797 107.174 84.0836C106.561 82.5875 105.872 81.4184 106.018 81.3001C106.164 81.1818 107.132 82.2256 107.773 83.84C108.414 85.4544 108.434 86.86 108.267 86.867Z" fill="black"/>
<path d="M81.4975 94.7588L94.4437 106.394C94.4437 106.394 74.1714 128.522 67.9107 133.414C61.65 138.306 69.9163 100.013 69.9163 100.013L81.4975 94.7588Z" fill="#84D3FF"/>
<path d="M81.4976 94.7584L94.4438 106.393C94.4438 106.393 74.1714 128.522 67.9107 133.413C67.6416 133.66 67.2992 133.811 66.9358 133.845C62.6111 133.845 69.9164 100.026 69.9164 100.026L81.4976 94.7584ZM81.7483 93.1162L80.9196 93.492L69.3384 98.7596L68.7046 99.0449L68.5514 99.7408C68.5514 99.8104 66.9149 107.395 65.6613 115.238C63.0359 131.709 64.554 133.587 65.2087 134.388C65.4112 134.653 65.6725 134.869 65.972 135.017C66.2716 135.166 66.6014 135.243 66.9358 135.244C67.6075 135.226 68.2533 134.98 68.7673 134.548C75.035 129.635 94.6388 108.279 95.4745 107.367L96.4216 106.338L95.377 105.398L82.4308 93.7564L81.7344 93.151L81.7483 93.1162Z" fill="black"/>
<g opacity="0.2">
<path d="M68.1265 132.982C71.9749 122.421 72.6502 110.966 70.0695 100.026C69.3731 111.097 68.795 122.169 68.0986 133.24" fill="black"/>
</g>
<path d="M68.8298 6.68385L67.7991 6.50989C56.587 5.31301 49.2608 14.1713 48.3694 25.4303L47.5337 33.3144C46.0574 32.702 40.7995 31.0529 39.9429 37.4408C39.0515 44.1211 45.2426 44.2881 46.3986 44.1072L43.8985 68.0865C43.1394 75.3374 43.5015 86.1789 55.041 86.826C65.0901 86.659 68.6 77.4945 69.3034 70.7238C69.6377 67.5159 69.9232 64.8368 69.9998 64.5098C69.9998 64.5098 80.9751 64.6211 82.8833 53.9606C83.8095 48.8042 84.8472 38.0323 85.6689 28.2833C86.0938 23.2271 84.5968 18.1964 81.4761 14.1935C78.3555 10.1907 73.8402 7.50941 68.8298 6.68385Z" fill="white"/>
<path d="M55.0484 87.522C51.1903 87.2994 48.2306 85.9772 46.211 83.5974C43.4254 80.3269 42.4504 75.2471 43.2095 68.0101L45.6399 44.838C43.8653 44.8561 42.1474 44.2137 40.8208 43.0357C39.428 41.7136 38.9405 39.8 39.2678 37.3506C39.5742 35.0334 40.4726 33.4398 41.9211 32.6048C43.6343 31.6236 45.6539 31.9577 46.9492 32.3543L47.6456 25.3609C48.1679 18.7711 50.8839 12.9816 55.111 9.47444C56.8738 8.02477 58.9158 6.95246 61.1105 6.32402C63.3051 5.69559 65.6056 5.52443 67.8692 5.82117L68.9417 5.99514C74.1122 6.87386 78.7664 9.65436 81.9884 13.7895C85.2105 17.9246 86.767 23.115 86.3518 28.3392C85.2724 41.0873 84.3322 49.7508 83.5662 54.086C81.8391 63.6958 73.0435 65.004 70.613 65.185C70.5295 65.8808 70.3554 67.4535 70.0141 70.8005C69.7565 73.2221 68.9417 77.8566 66.2605 81.656C65.0309 83.4919 63.3605 84.9906 61.4019 86.0154C59.4433 87.0401 57.2589 87.5581 55.0484 87.522ZM47.1999 43.2793L44.5884 68.1563C43.8919 74.9757 44.7555 79.7284 47.2695 82.6997C49.0384 84.7873 51.6638 85.9285 55.0762 86.1303C66.156 85.9494 68.2313 74.2381 68.6074 70.6544C69.2063 64.8509 69.269 64.503 69.3038 64.3917L69.4083 63.8072H70.0002C70.3902 63.8072 80.4463 63.8072 82.1943 53.8285C82.9534 49.5977 83.9144 40.7464 84.9799 28.2139C85.3717 23.3362 83.9221 18.4885 80.9166 14.6251C77.911 10.7616 73.5671 8.16209 68.7397 7.33815L67.709 7.17114C65.6349 6.90766 63.5288 7.07116 61.5203 7.65158C59.5118 8.23199 57.6435 9.21703 56.0303 10.5461C52.0956 13.8096 49.5607 19.2582 49.0662 25.4862L48.14 34.3166L47.2765 33.9548C46.5801 33.6764 44.2959 32.8484 42.6175 33.8156C41.559 34.421 40.8974 35.6736 40.6467 37.5315C40.3821 39.5217 40.7651 41.0108 41.7958 42.0407C43.307 43.5229 45.7792 43.502 46.3085 43.4324L47.1999 43.2793Z" fill="black"/>
<path d="M39.2189 20.6494C40.9948 18.1861 41.6424 15.1174 42.7497 12.2991C43.857 9.4809 45.7512 6.62092 48.697 5.86939H48.7527C51.406 5.07611 54.5607 5.35445 56.4967 7.31678C57.3673 3.53826 61.0095 0.810491 64.8536 0.177259C68.6978 -0.455974 74.6033 0.678278 78.0853 2.45272C80.7595 3.84444 83.2318 6.35649 86.1845 10.0167C87.4264 11.5492 88.5441 13.178 89.5273 14.8877L91.8533 25.2352L88.5802 30.2454C88.3782 30.5863 88.1763 30.9412 87.9325 31.2613L84.3948 42.1306C84.5132 39.0897 85.704 28.5753 85.8294 25.5344C83.5563 25.2584 81.3628 24.5255 79.3808 23.3798C77.3988 22.2341 75.6694 20.6994 74.2969 18.868C72.8135 16.8848 71.7271 14.4702 69.617 13.1759C66.8941 11.4989 63.3981 12.2156 60.2922 12.9811L60.4314 12.8767C58.7958 13.4584 57.2873 14.349 55.9884 15.5001C56.1053 21.5457 54.9176 27.5455 52.5063 33.0914C52.1442 33.9195 51.211 35.6174 50.3405 35.8749C48.6204 36.362 48.3349 34.6362 47.4156 33.6481C46.7192 32.9522 45.6607 32.7365 44.4698 32.6252C43.8748 30.042 43.4353 27.4255 43.1536 24.7898C42.124 25.0048 41.0585 24.9786 40.0407 24.7133C40.4237 23.9826 40.8137 23.252 41.2037 22.5213C40.7784 22.7764 40.3036 22.9377 39.8109 22.9945C39.5625 23.0183 39.313 22.9641 39.097 22.8393C38.881 22.7146 38.7094 22.5255 38.6061 22.2986C38.4041 21.7767 38.8498 21.1644 39.2189 20.6494Z" fill="black"/>
<path d="M58.8234 8.78516C58.4072 9.04657 58.0135 9.34217 57.6464 9.6689C56.7039 10.6215 56.0228 11.8006 55.6686 13.0925C55.401 13.9746 55.2237 14.8816 55.1394 15.7994C55.0419 16.7875 55.028 17.8522 55.0001 18.9795C54.9919 20.1617 54.9105 21.3423 54.7564 22.5145C54.6629 23.1363 54.5232 23.7504 54.3385 24.3515C54.1871 25.0002 53.8677 25.5978 53.4123 26.0842C53.2058 26.2766 52.9526 26.4118 52.6778 26.4765C52.403 26.5412 52.1161 26.5331 51.8454 26.453C51.3251 26.3074 50.8689 25.9912 50.5501 25.5554C50.0422 24.7002 49.7729 23.7246 49.7701 22.7302L49.9929 22.7789C49.5917 23.5577 49.0804 24.2748 48.4748 24.9082C47.8893 25.4932 47.1018 25.8318 46.2741 25.8546C45.8888 25.8597 45.5098 25.756 45.1808 25.5554C44.8713 25.364 44.6282 25.0822 44.4844 24.7482C44.3501 24.4421 44.302 24.1053 44.3451 23.774C44.3964 23.4692 44.5514 23.1915 44.7838 22.9877L44.8883 23.099C44.1782 23.7719 43.3365 24.2907 42.416 24.6229C42.1727 24.7093 41.9237 24.7791 41.6709 24.8317C41.5846 24.8557 41.4958 24.8697 41.4062 24.8734L41.6639 24.7899C41.8311 24.7412 42.0748 24.6647 42.3603 24.5464C43.2522 24.1904 44.0642 23.6605 44.749 22.9877L44.8535 23.099C44.6584 23.3091 44.533 23.5742 44.4943 23.8581C44.4557 24.1421 44.5057 24.4311 44.6376 24.6855C44.7706 24.9738 44.9863 25.216 45.2574 25.3814C45.5575 25.5555 45.8993 25.6445 46.2463 25.6389C47.019 25.6082 47.751 25.2848 48.2937 24.7343C48.8786 24.1119 49.3711 23.4088 49.7562 22.6467L49.9442 22.3127V22.6954C49.9522 23.645 50.2092 24.5759 50.6893 25.3953C50.977 25.784 51.3863 26.0656 51.8523 26.1956C52.0823 26.262 52.3255 26.2681 52.5585 26.2132C52.7915 26.1584 53.0064 26.0444 53.1825 25.8824C53.6003 25.4228 53.8949 24.8651 54.0391 24.2611C54.2354 23.6792 54.3891 23.0839 54.4987 22.4797C54.6497 21.3256 54.7357 20.164 54.7564 19.0004C54.7564 17.88 54.8121 16.8084 54.9165 15.8064C55.0107 14.8751 55.2021 13.9562 55.4876 13.0647C55.8649 11.7533 56.5862 10.5664 57.5768 9.62715C57.9397 9.27563 58.3617 8.99063 58.8234 8.78516Z" fill="#FAFAFA"/>
<path d="M52.2976 26.8702C52.111 26.8708 51.9254 26.8426 51.7474 26.7867C51.1567 26.6199 50.6377 26.2627 50.271 25.7708C49.9243 25.2716 49.687 24.7048 49.5746 24.1077C49.3201 24.492 49.0234 24.8467 48.6902 25.1654C48.0444 25.8124 47.174 26.1862 46.2597 26.2092C45.8106 26.2156 45.3688 26.095 44.9853 25.8612C44.622 25.6287 44.3379 25.2914 44.1705 24.894C44.0725 24.6735 44.0113 24.4384 43.9895 24.1981C43.5258 24.4861 43.0304 24.7196 42.5131 24.894C42.2585 24.9861 41.9979 25.0605 41.7331 25.1167C41.4685 25.1654 41.1203 25.2349 41.0367 24.887C40.9531 24.5391 41.2526 24.4834 41.5381 24.3999C41.775 24.3357 42.0076 24.2567 42.2345 24.1633C43.0511 23.8458 43.7985 23.3732 44.4352 22.7716L44.5257 22.6881L44.7694 22.4446L45.3405 23.0569L45.0759 23.2935C44.9494 23.4557 44.8722 23.6509 44.8537 23.8557C44.8352 24.0605 44.876 24.2664 44.9714 24.4486C45.061 24.7011 45.2263 24.9198 45.445 25.0749C45.696 25.2084 45.9754 25.28 46.2597 25.2837C46.9422 25.2553 47.5878 24.9664 48.0634 24.4765C48.5947 23.9146 49.0426 23.2795 49.3936 22.5907V22.2636L49.5886 22.3054L50.2293 21.1711L50.3198 22.4933L50.5148 22.535L50.3546 22.8203C50.3717 23.6634 50.612 24.4869 51.051 25.2071C51.2854 25.542 51.6267 25.7874 52.019 25.903C52.1907 25.9545 52.3728 25.9605 52.5474 25.9202C52.7221 25.8799 52.8832 25.7948 53.0149 25.6733C53.4015 25.2478 53.6724 24.7303 53.8018 24.1703C53.9784 23.599 54.1111 23.0151 54.1988 22.4237C54.3529 21.3051 54.4367 20.1779 54.4495 19.0488V18.7147C54.4495 17.664 54.5052 16.6828 54.6097 15.7365C54.7067 14.7914 54.9004 13.8587 55.1877 12.953C55.5778 11.5784 56.3335 10.3351 57.3744 9.35543C57.7524 8.98214 58.1932 8.67828 58.6767 8.45777L58.9413 8.36035L59.0875 8.6039C59.2129 8.80338 59.1363 8.99126 58.8577 9.16755C58.499 9.38323 58.1651 9.63758 57.8619 9.92604C56.9564 10.829 56.3054 11.9548 55.9746 13.1896C55.7148 14.0493 55.5422 14.9328 55.4593 15.8269C55.3757 16.7246 55.3478 17.6849 55.327 18.7008V19.0835C55.3167 20.2474 55.233 21.4095 55.0762 22.5628C54.9825 23.2035 54.8405 23.8363 54.6514 24.4556C54.4749 25.1589 54.1254 25.8071 53.6347 26.3414C53.2712 26.679 52.7939 26.8678 52.2976 26.8702Z" fill="white"/>
<path d="M93.0028 23.3007C93.0028 23.3007 93.0028 23.3007 92.9053 23.3703L92.6059 23.5373C92.4473 23.635 92.2793 23.7166 92.1045 23.7809C91.8801 23.8919 91.6472 23.985 91.4081 24.0592C89.8359 24.5694 88.1643 24.6959 86.5332 24.428C84.0991 24.0416 81.8205 22.9863 79.9522 21.3801C77.7459 19.4388 75.9551 17.0719 74.6874 14.4215C73.991 13.0298 73.4338 11.6381 72.8071 10.3369C72.2385 9.06326 71.4904 7.87755 70.5855 6.8158C69.7511 5.84818 68.6951 5.09622 67.5074 4.62384C66.9635 4.42419 66.3935 4.30464 65.8152 4.26895C65.2799 4.2506 64.7444 4.29734 64.2204 4.40813C63.3297 4.60398 62.4914 4.98839 61.7621 5.53542C61.2203 5.93963 60.7496 6.43113 60.3693 6.98977C60.0798 7.47941 59.8463 7.99991 59.6729 8.54153V8.43019C59.6729 8.34669 59.7216 8.23535 59.7564 8.1101C59.8821 7.69604 60.0624 7.30056 60.2927 6.9341C60.6664 6.35433 61.1376 5.84347 61.6855 5.42408C62.8776 4.50002 64.356 4.02238 65.8639 4.07411C66.4658 4.10275 67.0598 4.22241 67.6258 4.429C68.8544 4.90396 69.9473 5.67343 70.8084 6.66967C71.7353 7.74141 72.5023 8.94142 73.0856 10.2325C73.7194 11.5476 74.2695 12.9463 74.9659 14.3172C76.2115 16.9604 77.9759 19.3268 80.1542 21.2758C81.9723 22.826 84.1767 23.8552 86.5332 24.254C88.1424 24.5322 89.7942 24.4346 91.3593 23.9687C91.9209 23.7815 92.4699 23.5584 93.0028 23.3007Z" fill="#FAFAFA"/>
<path d="M88.2248 24.908C87.6302 24.9066 87.0365 24.8601 86.449 24.7688C83.9496 24.3775 81.6097 23.2952 79.6938 21.6444C77.4512 19.6595 75.6322 17.2431 74.3454 14.5397C73.9415 13.7395 73.5794 12.9323 73.2381 12.1459C72.9805 11.5684 72.7298 11.0047 72.4651 10.448C71.9134 9.20411 71.1813 8.04818 70.2923 7.01746C69.4999 6.09325 68.4934 5.37659 67.3605 4.92988C66.8462 4.73949 66.3063 4.62691 65.7587 4.59587C65.252 4.56925 64.7439 4.60901 64.2475 4.71416C63.4042 4.90303 62.6096 5.26565 61.9146 5.77883C61.3982 6.16716 60.9489 6.63728 60.5844 7.17055C60.3179 7.58561 60.1094 8.03512 59.9646 8.5066C59.9159 8.65273 59.8811 8.77103 59.7348 8.84061L59.5955 8.9102L59.3727 8.79886L59.31 8.7084C59.2814 8.64742 59.2666 8.5809 59.2666 8.51356C59.2666 8.44622 59.2814 8.3797 59.31 8.31872L59.4005 7.9847C59.5323 7.54073 59.7245 7.11694 59.9716 6.7252C60.3707 6.10461 60.875 5.5583 61.4619 5.1108C62.2444 4.50932 63.1468 4.08223 64.1083 3.85826C64.6766 3.72796 65.2595 3.67182 65.8423 3.69125C66.4821 3.72182 67.1136 3.84849 67.7156 4.06701C68.9946 4.56171 70.1328 5.36211 71.0305 6.39814C71.9613 7.49891 72.7262 8.72967 73.3008 10.0514C73.5724 10.622 73.837 11.2065 74.0947 11.798C74.4359 12.5635 74.7911 13.3498 75.1741 14.1222C76.4061 16.7092 78.1414 19.0251 80.2788 20.9347C82.0536 22.4839 84.2229 23.5123 86.5465 23.906C88.1016 24.1808 89.6996 24.0879 91.2124 23.6346C91.6912 23.4819 92.1569 23.2911 92.6052 23.064C92.7584 22.9874 93.0718 22.8343 93.2389 23.1405L93.2946 23.2449V23.3632C93.2946 23.5302 93.1553 23.5928 93.0369 23.6694L92.7305 23.8364C92.5568 23.9408 92.3752 24.0315 92.1873 24.1078H92.1038C91.8893 24.2065 91.6683 24.2902 91.4422 24.3583C90.4066 24.7144 89.32 24.9001 88.2248 24.908Z" fill="white"/>
<path d="M88.7403 13.6279C89.5273 14.9361 90.8295 16.1817 92.3407 16.1748C92.8976 16.1166 93.4494 16.0166 93.9912 15.8756C94.4857 16.2513 94.1723 18.0397 93.7614 18.4989C93.3721 18.8798 92.9529 19.2288 92.5079 19.5427C94.1723 20.677 95.8297 20.3778 97.7866 19.8907C97.431 21.477 96.665 22.9423 95.5652 24.1402C94.4653 25.3381 93.0701 26.2267 91.519 26.717C90.5231 27.0163 89.3532 27.1137 88.5453 26.4596C87.9024 25.8035 87.5232 24.9343 87.4798 24.0171C86.9765 20.7033 86.8829 17.3403 87.2013 14.0037L88.7403 13.6279Z" fill="black"/>
<g opacity="0.2">
<path d="M70.0559 63.834C65.1204 63.0004 60.528 60.7688 56.8242 57.4043C56.8242 57.4043 58.9134 65.7546 69.7495 66.5896L70.0559 63.834Z" fill="black"/>
</g>
<path d="M66.8452 30.9901C66.6085 31.1849 65.4524 30.0716 63.6627 29.8628C61.8729 29.654 60.4383 30.4056 60.2712 30.1551C60.1876 30.0437 60.4453 29.668 61.072 29.3061C61.922 28.8425 62.8986 28.6644 63.8576 28.7981C64.7857 28.906 65.6547 29.3084 66.3369 29.9463C66.8243 30.4752 66.9567 30.9066 66.8452 30.9901Z" fill="black"/>
<path d="M66.6644 35.1165C66.6058 35.4943 66.402 35.8343 66.0964 36.0644C65.7908 36.2944 65.4075 36.3962 65.0279 36.3482C64.8434 36.3325 64.6639 36.2803 64.4999 36.1945C64.3358 36.1087 64.1906 35.9911 64.0726 35.8486C63.9545 35.706 63.8662 35.5414 63.8126 35.3643C63.759 35.1873 63.7412 35.0013 63.7604 34.8173C63.8174 34.4405 64.02 34.1012 64.3247 33.8721C64.6295 33.6431 65.012 33.5427 65.39 33.5926C65.5744 33.6074 65.7541 33.6588 65.9184 33.7438C66.0828 33.8287 66.2285 33.9456 66.3471 34.0874C66.4658 34.2293 66.555 34.3934 66.6094 34.5701C66.6639 34.7468 66.6826 34.9325 66.6644 35.1165Z" fill="black"/>
<path d="M70.2022 43.933C71.1259 43.8083 72.0613 43.7966 72.9878 43.8982C73.4126 43.8982 73.8235 43.8982 73.9419 43.6338C74.0511 43.2054 74.0268 42.7538 73.8722 42.3395C73.6494 41.2609 73.4126 40.1267 73.1758 38.9437C72.2078 34.0727 71.588 30.162 71.783 30.1272C71.978 30.0924 72.9182 33.9753 73.8722 38.8115C74.0951 40.0014 74.3179 41.1357 74.5269 42.2212C74.7036 42.7726 74.6814 43.3684 74.4642 43.9052C74.3793 44.042 74.2643 44.1575 74.1279 44.2431C73.9915 44.3288 73.8374 44.3822 73.6772 44.3993C73.4463 44.4319 73.2118 44.4319 72.9808 44.3993C71.212 44.1905 70.1952 44.0305 70.2022 43.933Z" fill="black"/>
<path d="M66.7068 24.1495C66.4909 24.5322 65.0772 24.1008 63.3431 24.0243C61.6091 23.9477 60.1536 24.2052 59.9865 23.8016C59.9168 23.6137 60.2163 23.2658 60.8361 22.9665C61.6509 22.6007 62.5418 22.4361 63.4337 22.4864C64.3223 22.5246 65.188 22.7803 65.9547 23.231C66.5396 23.5928 66.7973 23.9616 66.7068 24.1495Z" fill="black"/>
<path d="M83.5176 29.0625C83.2948 29.3687 81.9229 28.8816 80.2236 28.6728C78.5244 28.4641 77.0898 28.5476 76.9366 28.1927C76.8739 28.0257 77.1873 27.7543 77.8001 27.5525C78.6311 27.3068 79.5056 27.245 80.3629 27.3716C81.2301 27.4771 82.0654 27.764 82.8143 28.2136C83.3714 28.5545 83.6151 28.9164 83.5176 29.0625Z" fill="black"/>
<path d="M44.7488 40.9619C44.7488 40.9619 44.6095 41.0384 44.3797 41.108C44.057 41.1971 43.7124 41.1571 43.4187 40.9967C42.6805 40.607 42.193 39.2918 42.3323 37.9627C42.3937 37.3419 42.5936 36.7427 42.9173 36.2092C43.0152 35.9878 43.1662 35.794 43.3569 35.6447C43.5476 35.4955 43.7721 35.3954 44.0106 35.3533C44.1611 35.3365 44.3128 35.3724 44.4398 35.4549C44.5668 35.5374 44.6612 35.6613 44.707 35.8056C44.7767 36.0213 44.707 36.1605 44.7488 36.1813C44.7906 36.2022 44.9229 36.077 44.902 35.7708C44.8844 35.5826 44.8033 35.406 44.6722 35.2698C44.5813 35.1778 44.4728 35.1052 44.3531 35.0562C44.2334 35.0071 44.1051 34.9827 43.9758 34.9845C43.6662 35.0047 43.3668 35.1035 43.106 35.2715C42.8453 35.4396 42.6317 35.6713 42.4855 35.9447C42.0945 36.5415 41.8555 37.2247 41.7891 37.9349C41.6359 39.424 42.2139 40.9062 43.2306 41.3585C43.4208 41.4411 43.627 41.4802 43.8343 41.473C44.0415 41.4658 44.2445 41.4124 44.4285 41.3168C44.6861 41.1428 44.7488 40.9828 44.7488 40.9619Z" fill="black"/>
<path d="M67.9947 48.8808C68.0922 48.6999 66.6854 48.1362 65.794 46.6889C65.4209 46.0552 65.1352 45.374 64.9444 44.6639C64.7773 44.1142 64.645 43.7593 64.5614 43.7802C64.4778 43.801 64.4709 44.1559 64.5614 44.7544C64.6371 45.5459 64.8868 46.3111 65.2926 46.995C65.7125 47.6836 66.3152 48.2424 67.0337 48.6094C67.5838 48.8947 67.9668 48.9434 67.9947 48.8808Z" fill="black"/>
<path d="M83.2181 33.1823C82.9814 33.3841 81.8253 32.2707 80.0356 32.055C78.2458 31.8393 76.8112 32.5978 76.6371 32.3473C76.5535 32.2359 76.8182 31.8602 77.438 31.5053C78.2876 31.0407 79.2638 30.8603 80.2236 30.9903C81.1616 31.1045 82.038 31.5167 82.7237 32.1663C83.1903 32.6674 83.3296 33.0988 83.2181 33.1823Z" fill="black"/>
<path d="M81.6583 36.5152C81.5998 36.8925 81.3957 37.232 81.0898 37.4608C80.784 37.6897 80.4006 37.7899 80.0218 37.7399C79.8398 37.7208 79.6633 37.6661 79.5024 37.5788C79.3416 37.4915 79.1996 37.3734 79.0844 37.2312C78.9693 37.089 78.8834 36.9256 78.8315 36.7502C78.7796 36.5748 78.7629 36.3909 78.7822 36.209C78.8392 35.8318 79.0415 35.4918 79.346 35.2617C79.6505 35.0315 80.033 34.9295 80.4118 34.9774C80.5951 34.9956 80.7729 35.0499 80.9351 35.1373C81.0972 35.2247 81.2404 35.3433 81.3563 35.4863C81.4722 35.6293 81.5586 35.7939 81.6105 35.9705C81.6623 36.1472 81.6786 36.3323 81.6583 36.5152Z" fill="black"/>
<path d="M70.0562 90.3049L71.1008 84.6406C71.1566 84.3399 71.1423 84.0303 71.059 83.736L69.1927 77.1462C69.1127 76.8264 69.1127 76.4918 69.1927 76.172L70.1398 71.9481C70.2417 71.4886 70.1772 71.0078 69.9579 70.5912C69.7386 70.1746 69.3787 69.8492 68.9419 69.6727C65.3485 68.2183 56.2674 64.6068 47.8757 61.2597C47.2298 61.0044 46.5381 60.8851 45.844 60.9093C45.1498 60.9336 44.4682 61.1009 43.8418 61.4008C43.2154 61.7007 42.6578 62.1267 42.2039 62.652C41.75 63.1774 41.4096 63.7908 41.2041 64.4537C41.1187 64.7312 40.9735 64.9866 40.7785 65.2018C40.5836 65.417 40.3437 65.5869 40.0759 65.6993L34.5047 68.0235C26.8442 71.2314 17.7491 80.0201 14.3089 87.5702C8.13178 101.286 1.57163 112.572 1.25825 137.108C1.25271 137.372 1.29967 137.634 1.39641 137.88C1.49314 138.125 1.63773 138.349 1.82175 138.538C2.00578 138.727 2.22557 138.878 2.46837 138.981C2.71116 139.084 2.97211 139.139 3.23605 139.14L59.3803 139.328C59.8466 139.329 60.2986 139.167 60.6575 138.87C61.0164 138.572 61.2594 138.158 61.3442 137.7L66.7274 108.404C66.7635 108.223 66.8244 108.047 66.9084 107.882C69.4633 102.573 70.5432 96.6752 70.0353 90.8059C70.0214 90.6387 70.0284 90.4704 70.0562 90.3049Z" fill="#84D3FF"/>
<path d="M59.3732 140.024L3.23587 139.836C2.88102 139.832 2.53037 139.759 2.20393 139.62C1.8775 139.481 1.58167 139.279 1.33334 139.026C1.08502 138.772 0.889056 138.473 0.756651 138.144C0.624247 137.815 0.557991 137.463 0.561669 137.108C0.868087 114.973 6.16774 103.582 11.7738 91.5155C12.4191 90.1238 13.0668 88.7321 13.7168 87.3404C17.1988 79.6511 26.4262 70.7232 34.2608 67.4388L39.832 65.1146C40.0102 65.0364 40.1688 64.9198 40.2965 64.773C40.4241 64.6262 40.5176 64.4529 40.5702 64.2657C40.8044 63.5116 41.1919 62.8141 41.7085 62.2167C42.225 61.6193 42.8595 61.1349 43.5721 60.7939C44.2847 60.4529 45.0602 60.2626 45.8498 60.235C46.6394 60.2073 47.4263 60.3429 48.161 60.6333C56.5179 63.9664 65.6339 67.5919 69.1994 69.0253C69.7914 69.2615 70.2795 69.7012 70.5757 70.2651C70.8719 70.829 70.9568 71.4801 70.8151 72.101L69.8192 76.3249C69.7671 76.5328 69.7671 76.7503 69.8192 76.9581L71.6856 83.5479C71.7963 83.9442 71.8177 84.3601 71.7483 84.7657L70.7037 90.43C70.6861 90.536 70.6861 90.6441 70.7037 90.7501C71.2129 96.7466 70.1068 102.77 67.5002 108.195C67.4476 108.301 67.4101 108.413 67.3888 108.529L62.0265 137.804C61.9166 138.427 61.5902 138.991 61.1048 139.397C60.6194 139.803 60.0062 140.025 59.3732 140.024ZM46.0161 61.6214C45.0892 61.6206 44.1865 61.9169 43.4407 62.4668C42.6948 63.0166 42.1452 63.7911 41.8725 64.6762C41.7572 65.0514 41.5609 65.3967 41.2973 65.6877C41.0338 65.9787 40.7095 66.2083 40.3473 66.3602L34.7761 68.6844C27.2131 71.8575 18.327 80.4653 14.9564 87.8762C14.3064 89.305 13.6587 90.713 13.0134 92.1C7.49091 104.02 2.26786 115.286 1.95448 137.108C1.95078 137.28 1.98132 137.451 2.04432 137.61C2.10733 137.77 2.20153 137.916 2.32144 138.039C2.44135 138.162 2.58458 138.26 2.74276 138.327C2.90095 138.394 3.07095 138.429 3.24283 138.43L59.3801 138.618C59.6819 138.618 59.9741 138.512 60.2057 138.319C60.4374 138.126 60.5938 137.857 60.6476 137.561L66.0378 108.265C66.0855 108.023 66.1676 107.788 66.2815 107.569C68.773 102.374 69.8285 96.6081 69.3387 90.8684C69.3065 90.6375 69.3065 90.4034 69.3387 90.1725L70.3833 84.5082C70.4287 84.316 70.4287 84.1159 70.3833 83.9237L68.517 77.3269C68.3918 76.8992 68.3774 76.4466 68.4752 76.0118L69.4223 71.7949C69.491 71.4963 69.4509 71.183 69.3092 70.9114C69.1676 70.6397 68.9336 70.4274 68.6493 70.3127C65.0837 68.914 56.0095 65.2538 47.6178 61.9554C47.1102 61.7427 46.5665 61.6294 46.0161 61.6214Z" fill="black"/>
<path d="M70.5156 81.6904C70.5136 81.8845 70.4926 82.078 70.453 82.268C70.3903 82.6855 70.3137 83.2422 70.2092 83.9311C69.9864 85.3715 69.6451 87.4104 69.1855 90.0129C68.2802 95.1414 66.9152 102.197 65.2856 109.977C63.656 117.757 62.11 124.778 60.954 129.858C60.376 132.363 59.9024 134.402 59.5612 135.863C59.394 136.54 59.2617 137.083 59.1642 137.491C59.124 137.684 59.0681 137.872 58.9971 138.055C59.0057 137.858 59.0337 137.662 59.0806 137.471L59.408 135.828C59.7144 134.36 60.1461 132.307 60.6684 129.795L64.8887 109.894C66.5113 102.121 67.925 95.0718 68.9 89.9572C69.3805 87.4313 69.7705 85.3785 70.049 83.9033C70.1814 83.2074 70.2858 82.6716 70.3694 82.2541C70.3979 82.0615 70.4469 81.8726 70.5156 81.6904Z" fill="#84D3FF"/>
<g opacity="0.2">
<path d="M24.0029 100.729C27.7496 116.928 39.1776 131.388 54.4359 137.985C43.4761 126.254 33.3093 113.808 24.0029 100.729Z" fill="black"/>
</g>
<path d="M22.9855 93.7425C23.0425 96.9264 24.0971 100.012 26.001 102.566C33.362 112.399 53.4533 138.751 57.186 138.751H99.9941V122.579L67.6182 114.924C67.6182 114.924 51.6705 81.9616 48.1188 77.7308C44.5672 73.4999 35.1587 67.8287 28.1111 74.168C23.487 78.3779 22.8672 87.8068 22.9855 93.7425Z" fill="#84D3FF"/>
<path d="M100.691 139.481H57.1861C55.1665 139.481 48.0214 133.149 25.4439 102.983C23.4461 100.316 22.3421 97.087 22.2892 93.7561C22.1569 86.9228 22.9856 77.8975 27.6724 73.6805C28.8268 72.611 30.1914 71.7932 31.6793 71.2793C33.1672 70.7654 34.7458 70.5665 36.3148 70.6953C41.322 71.0572 46.2316 74.3764 48.683 77.3129C52.0815 81.3907 66.3926 110.832 68.0988 114.347L100.691 122.001V139.481ZM35.4095 72.0592C32.8867 72.0467 30.4539 72.9946 28.6056 74.7104C24.079 78.7882 23.5776 88.3771 23.682 93.7283C23.7275 96.7678 24.7343 99.7151 26.5582 102.148C46.4127 128.674 55.466 138.089 57.2 138.089H99.3117V123.128L67.1308 115.537L66.9915 115.237C66.8313 114.91 51.0438 82.3092 47.6105 78.1897C45.3472 75.4759 40.8136 72.4002 36.2173 72.0731C35.9457 72.0662 35.695 72.0592 35.4095 72.0592Z" fill="black"/>
<path d="M100.663 123.608L107.411 123.073C107.411 123.073 107.558 120.568 109.034 119.684C110.51 118.8 110.357 116.9 111.241 117.04C111.727 117.136 112.226 117.136 112.711 117.04L118.282 112.342L123.025 109.274L126.702 108.536C126.702 108.536 128.916 109.128 126.702 111.187L124.348 112.509L122.259 114.597L126.973 112.287C127.19 112.181 127.428 112.126 127.67 112.126C127.911 112.126 128.149 112.181 128.366 112.287C129.64 112.837 130.854 113.518 131.987 114.319C132.087 114.414 132.166 114.528 132.22 114.654C132.274 114.78 132.301 114.916 132.301 115.053C132.301 115.19 132.274 115.326 132.22 115.452C132.166 115.578 132.087 115.692 131.987 115.787L134.077 117.554C134.077 117.554 134.515 119.906 132.162 119.322L130.246 118.877L127.739 121.382C127.739 121.382 136.284 119.614 136.876 119.906C137.468 120.199 138.199 121.528 136.876 122.69C135.553 123.852 130.393 123.574 129.216 124.777C128.039 125.981 120.246 133.065 118.331 133.504C116.416 133.942 100.705 137.783 100.705 137.783L100.663 123.608Z" fill="white"/>
<path d="M126.702 108.502C126.702 108.502 128.916 109.093 126.702 111.153L124.348 112.475L122.258 114.563L126.973 112.253C127.189 112.144 127.428 112.087 127.67 112.086C127.91 112.086 128.148 112.138 128.366 112.239C129.64 112.789 130.854 113.47 131.987 114.271C132.086 114.365 132.165 114.479 132.219 114.606C132.273 114.732 132.301 114.868 132.301 115.005C132.301 115.142 132.273 115.278 132.219 115.404C132.165 115.53 132.086 115.644 131.987 115.739L134.076 117.506C134.076 117.506 134.425 119.364 132.844 119.364C132.609 119.362 132.375 119.332 132.147 119.274L130.232 118.829L127.725 121.334C127.725 121.334 135.003 119.831 136.591 119.831C136.68 119.815 136.772 119.815 136.862 119.831C137.447 120.13 138.185 121.452 136.862 122.614C135.539 123.776 130.379 123.498 129.202 124.702C128.025 125.905 120.232 132.989 118.317 133.428C116.402 133.866 100.691 137.707 100.691 137.707L100.656 123.623L107.404 123.087C107.404 123.087 107.55 120.582 109.027 119.698C110.503 118.815 110.357 117.04 111.116 117.04H111.213C111.462 117.079 111.714 117.1 111.966 117.103C112.2 117.106 112.434 117.08 112.662 117.026L118.233 112.329L123.025 109.274L126.702 108.537M126.75 107.145L126.43 107.208L122.746 107.883L122.481 107.931L122.258 108.084L117.544 111.174L117.474 111.216L117.411 111.271L112.126 115.711H111.993C111.818 115.712 111.643 115.696 111.471 115.662C111.362 115.655 111.253 115.655 111.144 115.662C109.883 115.662 109.382 116.783 109.11 117.381C108.966 117.832 108.689 118.23 108.316 118.522C107.216 119.298 106.466 120.476 106.227 121.8L100.572 122.252L99.291 122.357V123.644L99.3258 137.721V139.496L101.046 139.071C101.206 139.036 116.778 135.237 118.658 134.798C121.304 134.193 130.128 125.787 130.211 125.704C130.567 125.425 132.224 125.203 133.22 125.063C135.079 124.806 136.834 124.562 137.809 123.672C138.233 123.329 138.564 122.886 138.772 122.383C138.98 121.88 139.058 121.332 139 120.791C138.946 120.332 138.782 119.893 138.523 119.51C138.264 119.127 137.916 118.813 137.51 118.592C137.231 118.462 136.926 118.401 136.618 118.411C136.234 118.421 135.851 118.452 135.469 118.501C135.539 118.078 135.539 117.645 135.469 117.221L135.379 116.741L135.01 116.421L133.728 115.328C133.793 114.95 133.763 114.562 133.641 114.198C133.52 113.833 133.311 113.505 133.032 113.241C132.823 113.032 132.259 112.468 129.028 110.944L128.763 110.833C129.096 110.277 129.201 109.614 129.055 108.982C128.917 108.534 128.665 108.128 128.323 107.807C127.981 107.485 127.562 107.257 127.105 107.145L126.792 107.062L126.75 107.145Z" fill="black"/>
<path d="M134.069 117.478C133.663 117.232 133.274 116.958 132.906 116.657C132.558 116.399 132.133 116.093 131.66 115.773C131.423 115.606 131.172 115.446 130.908 115.286C130.677 115.109 130.403 114.996 130.114 114.959C129.527 115.085 128.969 115.321 128.47 115.655C127.962 115.933 127.516 116.191 127.133 116.413C126.747 116.694 126.329 116.928 125.887 117.109C126.202 116.748 126.574 116.441 126.987 116.197C127.349 115.94 127.788 115.655 128.296 115.362C128.547 115.209 128.812 115.063 129.097 114.91C129.405 114.735 129.747 114.631 130.1 114.604C130.201 114.581 130.306 114.581 130.406 114.604C130.496 114.629 130.582 114.664 130.664 114.708C130.824 114.785 130.964 114.868 131.103 114.952C131.374 115.126 131.632 115.3 131.862 115.474C132.335 115.815 132.746 116.17 133.081 116.434C133.749 117.012 134.111 117.436 134.069 117.478Z" fill="black"/>
<path d="M113.38 116.47C113.449 116.56 112.746 117.166 111.931 117.952C111.117 118.738 110.441 119.392 110.357 119.344C110.674 118.712 111.117 118.153 111.66 117.701C112.123 117.156 112.714 116.733 113.38 116.47Z" fill="black"/>
<path d="M44.3939 74.9409C44.3939 74.9966 43.5025 74.6486 42.047 74.3146C41.1952 74.1282 40.3322 73.998 39.4633 73.9249C38.3971 73.8418 37.326 73.8418 36.2598 73.9249C35.1975 74.0377 34.1452 74.2308 33.1121 74.5025C32.2698 74.7381 31.444 75.0286 30.6398 75.3723C29.247 75.9708 28.4879 76.4787 28.4531 76.4231C28.6078 76.2671 28.7837 76.1336 28.9754 76.0264C29.475 75.7075 29.9963 75.4238 30.5354 75.1775C31.3378 74.7951 32.1691 74.4764 33.0215 74.2241C34.0691 73.924 35.141 73.7168 36.225 73.6048C37.3117 73.5106 38.4045 73.5106 39.4912 73.6048C40.3753 73.6916 41.251 73.8499 42.1096 74.078C42.6878 74.2315 43.2554 74.4221 43.8089 74.6486C44.018 74.7148 44.2154 74.8134 44.3939 74.9409Z" fill="black"/>
<path d="M63.2383 121.758C63.7215 120.376 64.4636 119.099 65.425 117.994C66.2864 116.809 67.3696 115.802 68.6145 115.029C68.6911 115.12 67.2217 116.379 65.7384 118.244C64.255 120.109 63.3497 121.8 63.2383 121.758Z" fill="black"/>
<path d="M62.2559 116.789C63.0299 116.014 63.9885 115.449 65.0415 115.147C66.0452 114.714 67.1436 114.546 68.231 114.66C68.231 114.778 66.8382 114.931 65.1738 115.522C63.5094 116.114 62.3255 116.928 62.2559 116.789Z" fill="black"/>
</svg>
