<svg width="24" height="24" viewBox="0 0 24 24" fill="none" xmlns="http://www.w3.org/2000/svg">
<mask id="mask0_492_6115" style="mask-type:alpha" maskUnits="userSpaceOnUse" x="0" y="0" width="24" height="24">
<rect width="24" height="24" fill="#D9D9D9"/>
</mask>
<g mask="url(#mask0_492_6115)">
<path d="M12.0002 16.0826L13.2726 13.2592L16.096 11.9999L13.2726 10.7275L12.0002 7.90414L10.7409 10.7275L7.91753 11.9999L10.7387 13.2615L12.0002 16.0826ZM5.10946 20.3932C4.29591 20.3932 3.60693 19.7042 3.60693 18.8907V5.10921C3.60693 4.70065 3.75522 4.34809 4.05178 4.05154C4.34833 3.75497 4.70089 3.60669 5.10946 3.60669H18.8909C19.7045 3.60669 20.3934 4.29567 20.3934 5.10921V18.8907C20.3934 19.7042 19.7045 20.3932 18.8909 20.3932H5.10946ZM5.86173 18.4461H18.1386C18.2958 18.4461 18.4463 18.2955 18.4463 18.1384V5.86149C18.4463 5.70437 18.2958 5.55379 18.1386 5.55379H5.86173C5.70461 5.55379 5.55403 5.70437 5.55403 5.86149V18.1384C5.55403 18.2955 5.70461 18.4461 5.86173 18.4461Z" fill="#637381"/>
</g>
</svg>
