<svg width="24" height="24" viewBox="0 0 24 24" fill="none" xmlns="http://www.w3.org/2000/svg">
<path d="M20.5556 13.9032V9.6C20.5556 5.7396 17.885 2.4876 14.2672 1.5096C13.9091 0.624 13.034 0 12 0C10.966 0 10.0909 0.624 9.73278 1.5096C6.115 2.4888 3.44445 5.7396 3.44445 9.6V13.9032L1.35811 15.9516C1.2444 16.0628 1.15421 16.1951 1.09276 16.3406C1.03129 16.4863 0.999769 16.6424 1 16.8V19.2C1 19.5182 1.12877 19.8235 1.35798 20.0485C1.58719 20.2735 1.89807 20.4 2.22222 20.4H21.7778C22.1019 20.4 22.4128 20.2735 22.642 20.0485C22.8712 19.8235 23 19.5182 23 19.2V16.8C23.0002 16.6424 22.9687 16.4863 22.9072 16.3406C22.8458 16.1951 22.7556 16.0628 22.6419 15.9516L20.5556 13.9032ZM20.5556 18H3.44445V17.2968L5.53078 15.2484C5.64449 15.1372 5.73468 15.0049 5.79615 14.8594C5.8576 14.7137 5.88912 14.5576 5.88889 14.4V9.6C5.88889 6.2916 8.63033 3.6 12 3.6C15.3697 3.6 18.1111 6.2916 18.1111 9.6V14.4C18.1111 14.7192 18.2394 15.024 18.4692 15.2484L20.5556 17.2968V18ZM12 24C12.7569 24.001 13.4954 23.7703 14.1126 23.3402C14.7298 22.91 15.1953 22.3019 15.4442 21.6H8.55578C8.8047 22.3019 9.27014 22.91 9.88739 23.3402C10.5046 23.7703 11.2431 24.001 12 24Z" fill="#637381"/>
</svg>
