<svg width="16" height="16" viewBox="0 0 30 20" fill="none" xmlns="http://www.w3.org/2000/svg">
<path d="M29.9096 9.6C29.8721 9.5 28.8096 7.15 26.4596 4.7875C23.3221 1.6625 19.3596 0 14.9971 0C10.6346 0 6.67214 1.6625 3.53464 4.7875C1.18464 7.15 0.12214 9.5 0.0846399 9.6C0.0288311 9.72597 0 9.86222 0 10C0 10.1378 0.0288311 10.274 0.0846399 10.4C0.12214 10.5 1.18464 12.85 3.53464 15.2125C6.67214 18.3375 10.6346 20 14.9971 20C19.3596 20 23.3221 18.3375 26.4596 15.2125C28.8096 12.85 29.8721 10.5 29.9096 10.4C29.9655 10.274 29.9943 10.1378 29.9943 10C29.9943 9.86222 29.9655 9.72597 29.9096 9.6V9.6ZM14.9971 5.5C15.8872 5.5 16.7572 5.76392 17.4972 6.25839C18.2372 6.75285 18.814 7.45566 19.1546 8.27792C19.4952 9.10019 19.5843 10.005 19.4107 10.8779C19.237 11.7508 18.8085 12.5526 18.1791 13.182C17.5498 13.8113 16.748 14.2399 15.875 14.4135C15.0021 14.5872 14.0973 14.4981 13.2751 14.1575C12.4528 13.8169 11.75 13.2401 11.2555 12.5001C10.7611 11.76 10.4971 10.89 10.4971 10C10.4971 8.80653 10.9712 7.66193 11.8152 6.81802C12.6591 5.97411 13.8037 5.5 14.9971 5.5V5.5Z" fill="#AAACB3"/>
</svg>
