<svg width="11" height="16" viewBox="0 0 11 16" fill="none" xmlns="http://www.w3.org/2000/svg">
<path fill-rule="evenodd" clip-rule="evenodd" d="M2.25586 2.22738C1.88767 2.22738 1.58919 2.52585 1.58919 2.89404V13.5607C1.58919 13.9289 1.88767 14.2274 2.25586 14.2274H8.92253C9.29072 14.2274 9.58919 13.9289 9.58919 13.5607V2.89404C9.58919 2.52585 9.29072 2.22738 8.92253 2.22738H2.25586ZM0.255859 2.89404C0.255859 1.78947 1.15129 0.894043 2.25586 0.894043H8.92253C10.0271 0.894043 10.9225 1.78947 10.9225 2.89404V13.5607C10.9225 14.6653 10.0271 15.5607 8.92253 15.5607H2.25586C1.15129 15.5607 0.255859 14.6653 0.255859 13.5607V2.89404Z" fill="#939EA8"/>
<path fill-rule="evenodd" clip-rule="evenodd" d="M4.92285 12.2272C4.92285 11.859 5.22133 11.5605 5.58952 11.5605H5.59619C5.96437 11.5605 6.26285 11.859 6.26285 12.2272C6.26285 12.5954 5.96437 12.8939 5.59619 12.8939H5.58952C5.22133 12.8939 4.92285 12.5954 4.92285 12.2272Z" fill="#939EA8"/>
</svg>
