<svg width="15" height="17" viewBox="0 0 15 17" fill="none" xmlns="http://www.w3.org/2000/svg">
<path d="M6.25 12.25C7.35936 12.2498 8.43675 11.8784 9.31063 11.195L12.0581 13.9425L12.9419 13.0588L10.1944 10.3112C10.8781 9.43729 11.2497 8.35965 11.25 7.25C11.25 4.49313 9.00688 2.25 6.25 2.25C3.49313 2.25 1.25 4.49313 1.25 7.25C1.25 10.0069 3.49313 12.25 6.25 12.25ZM6.25 3.5C8.31812 3.5 10 5.18187 10 7.25C10 9.31812 8.31812 11 6.25 11C4.18187 11 2.5 9.31812 2.5 7.25C2.5 5.18187 4.18187 3.5 6.25 3.5Z" fill="#637381"/>
<path d="M7.13264 6.36643C7.36952 6.60393 7.50014 6.91768 7.50014 7.25018H8.75014C8.7507 6.9217 8.68614 6.59637 8.56019 6.29299C8.43425 5.98961 8.24942 5.7142 8.01639 5.48268C7.07014 4.53768 5.42952 4.53768 4.48389 5.48268L5.36639 6.36768C5.84139 5.89393 6.66014 5.89518 7.13264 6.36643Z" fill="#637381"/>
</svg>
