<svg width="64" height="64" viewBox="0 0 64 64" fill="none" xmlns="http://www.w3.org/2000/svg">
<path d="M64 32C64 49.6731 49.6731 64 32 64C14.3269 64 0 49.6731 0 32C0 14.3269 14.3269 0 32 0C49.6731 0 64 14.3269 64 32ZM6.4 32C6.4 46.1385 17.8615 57.6 32 57.6C46.1385 57.6 57.6 46.1385 57.6 32C57.6 17.8615 46.1385 6.4 32 6.4C17.8615 6.4 6.4 17.8615 6.4 32Z" fill="#28C76F"/>
<path fill-rule="evenodd" clip-rule="evenodd" d="M30.0313 43.169L47.2585 24.6505C47.7406 24.1321 48 23.4436 48 22.7395C48 22.0354 47.7406 21.3469 47.2585 20.8285C46.7741 20.3076 46.1009 20 45.3823 20C44.6636 20 43.9905 20.3076 43.5061 20.8285L28.1553 37.3323L22.4939 31.2446C22.2545 30.9871 21.9662 30.7787 21.6436 30.635C21.3208 30.4912 20.972 30.4161 20.6177 30.4161C20.2634 30.4161 19.9146 30.4912 19.5918 30.635C19.2692 30.7787 18.981 30.9871 18.7415 31.2446C18.5023 31.5019 18.3159 31.8035 18.19 32.1304C18.064 32.4574 18 32.8055 18 33.1556C18 33.5057 18.0641 33.8538 18.19 34.1807C18.3159 34.5077 18.5022 34.8093 18.7415 35.0666L26.277 43.1694C26.5162 43.4274 26.8043 43.6363 27.1269 43.7804C27.45 43.9246 27.7992 44 28.1539 44C28.5086 44 28.8579 43.9246 29.1809 43.7804C29.5035 43.6363 29.7921 43.4269 30.0313 43.169Z" fill="#28C76F"/>
</svg>
