<svg width="16" height="17" viewBox="0 0 16 17" fill="none" xmlns="http://www.w3.org/2000/svg">
<path fill-rule="evenodd" clip-rule="evenodd" d="M4 5.16732C4 4.06275 4.89543 3.16732 6 3.16732C7.10457 3.16732 8 4.06275 8 5.16732C8 6.27189 7.10457 7.16732 6 7.16732C4.89543 7.16732 4 6.27189 4 5.16732ZM6 1.83398C4.15905 1.83398 2.66667 3.32637 2.66667 5.16732C2.66667 7.00827 4.15905 8.50065 6 8.50065C7.84095 8.50065 9.33333 7.00827 9.33333 5.16732C9.33333 3.32637 7.84095 1.83398 6 1.83398ZM3.33333 9.83398C2.44928 9.83398 1.60143 10.1852 0.976311 10.8103C0.35119 11.4354 0 12.2833 0 13.1673V14.5007C0 14.8688 0.298477 15.1673 0.666667 15.1673C1.03486 15.1673 1.33333 14.8688 1.33333 14.5007V13.1673C1.33333 12.6369 1.54405 12.1282 1.91912 11.7531C2.29419 11.378 2.8029 11.1673 3.33333 11.1673H8.66667C9.1971 11.1673 9.70581 11.378 10.0809 11.7531C10.456 12.1282 10.6667 12.6369 10.6667 13.1673V14.5007C10.6667 14.8688 10.9651 15.1673 11.3333 15.1673C11.7015 15.1673 12 14.8688 12 14.5007V13.1673C12 12.2833 11.6488 11.4354 11.0237 10.8103C10.3986 10.1852 9.55072 9.83398 8.66667 9.83398H3.33333ZM12.6878 10.4207C12.7799 10.0642 13.1435 9.84978 13.5 9.94182C14.2151 10.1265 14.8486 10.5434 15.3011 11.1271C15.7536 11.7108 15.9994 12.4283 16 13.1668V14.5007C16 14.8688 15.7015 15.1673 15.3333 15.1673C14.9651 15.1673 14.6667 14.8688 14.6667 14.5007V13.1678C14.6663 12.7248 14.5188 12.2942 14.2473 11.944C13.9759 11.5937 13.5957 11.3436 13.1667 11.2328C12.8102 11.1408 12.5958 10.7772 12.6878 10.4207ZM10.832 1.94149C10.4753 1.85016 10.1122 2.06528 10.0208 2.42196C9.92951 2.77864 10.1446 3.14183 10.5013 3.23315C10.9315 3.3433 11.3128 3.5935 11.5851 3.94431C11.8574 4.29511 12.0052 4.72657 12.0052 5.17065C12.0052 5.61474 11.8574 6.04619 11.5851 6.397C11.3128 6.7478 10.9315 6.998 10.5013 7.10815C10.1446 7.19948 9.92951 7.56266 10.0208 7.91934C10.1122 8.27603 10.4753 8.49114 10.832 8.39982C11.549 8.21623 12.1846 7.79923 12.6384 7.21456C13.0922 6.62989 13.3386 5.91079 13.3386 5.17065C13.3386 4.43051 13.0922 3.71142 12.6384 3.12674C12.1846 2.54207 11.549 2.12507 10.832 1.94149Z" fill="#888888"/>
</svg>
