<svg width="38" height="38" viewBox="0 0 38 38" fill="none" xmlns="http://www.w3.org/2000/svg">
<g clip-path="url(#clip0_492_6160)">
<path d="M19 0C16.5049 0 14.0342 0.49145 11.729 1.44629C9.42383 2.40113 7.32928 3.80066 5.56497 5.56497C2.00178 9.12816 0 13.9609 0 19C0 24.0391 2.00178 28.8718 5.56497 32.435C7.32928 34.1993 9.42383 35.5989 11.729 36.5537C14.0342 37.5086 16.5049 38 19 38C24.0391 38 28.8718 35.9982 32.435 32.435C35.9982 28.8718 38 24.0391 38 19C38 8.493 29.45 0 19 0Z" fill="#FF9F43"/>
<path fill-rule="evenodd" clip-rule="evenodd" d="M7.82373 26.4885C10.2751 30.1372 14.4739 32.569 19.2239 32.569C21.4767 32.5679 23.6951 32.0123 25.6832 30.9525C27.6712 29.8916 29.3679 28.3592 30.6242 26.4885C30.5669 22.6891 23.0238 20.599 19.2239 20.599C15.4241 20.599 7.88103 22.6891 7.82373 26.4885ZM23.2547 7.25818C22.1856 6.18965 20.7356 5.58826 19.2239 5.58826C18.3049 5.58826 17.4089 5.81091 16.6077 6.22457C16.0904 6.49198 15.6123 6.83906 15.1932 7.25818C14.1247 8.32671 13.5238 9.77725 13.5238 11.2889C13.5238 12.3105 13.7983 13.3026 14.3059 14.1693C14.5493 14.5851 14.8467 14.9726 15.1932 15.3196C16.2623 16.3882 17.7123 16.9885 19.2239 16.9885C20.7356 16.9885 22.1856 16.3882 23.2547 15.3196C24.3232 14.25 24.9241 12.8006 24.9241 11.2889C24.9241 9.77725 24.3232 8.32671 23.2547 7.25818Z" fill="white"/>
</g>
<defs>
<clipPath id="clip0_492_6160">
<rect width="38" height="38" fill="white"/>
</clipPath>
</defs>
</svg>
