<svg width="24" height="24" viewBox="0 0 24 24" fill="none" xmlns="http://www.w3.org/2000/svg">
<path fill-rule="evenodd" clip-rule="evenodd" d="M12 1C13.0042 1 13.8182 1.80017 13.8182 2.78723V20.2128C13.8182 21.1998 13.0042 22 12 22C10.9958 22 10.1818 21.1998 10.1818 20.2128V2.78723C10.1818 1.80017 10.9958 1 12 1ZM3.81818 7.70213C4.82234 7.70213 5.63636 8.5023 5.63636 9.48936V20.2128C5.63636 21.1998 4.82234 22 3.81818 22C2.81403 22 2 21.1998 2 20.2128V9.48936C2 8.5023 2.81403 7.70213 3.81818 7.70213ZM20.1818 12.617C21.186 12.617 22 13.4172 22 14.4043V20.2128C22 21.1998 21.186 22 20.1818 22C19.1777 22 18.3636 21.1998 18.3636 20.2128V14.4043C18.3636 13.4172 19.1777 12.617 20.1818 12.617Z" fill="white"/>
</svg>
