<svg width="24" height="24" viewBox="0 0 24 24" fill="none" xmlns="http://www.w3.org/2000/svg">
<g clip-path="url(#clip0_492_6101)">
<mask id="mask0_492_6101" style="mask-type:alpha" maskUnits="userSpaceOnUse" x="0" y="0" width="24" height="24">
<rect width="24" height="24" fill="#D9D9D9"/>
</mask>
<g mask="url(#mask0_492_6101)">
<path d="M9.32705 16.3352L12.0001 14.2826L14.6436 16.3159L13.6219 13.0782L16.2257 10.9885H13.0719L12.0001 7.78912L10.9283 10.9885H7.7745L10.3552 13.0782L9.32705 16.3352ZM3.6565 19.9999C3.18173 19.9999 2.78142 19.837 2.45557 19.5112C2.12974 19.1853 1.96682 18.785 1.96682 18.3102V14.3987C2.55101 14.2222 3.04833 13.937 3.4588 13.5429C3.86926 13.1489 4.0745 12.6346 4.0745 12C4.0745 11.3542 3.86926 10.8288 3.4588 10.4237C3.04833 10.0185 2.551 9.73328 1.9668 9.5679V5.65638C1.9668 5.18161 2.12972 4.7813 2.45557 4.45545C2.78142 4.1296 3.18173 3.96667 3.6565 3.96667H20.377C20.8518 3.96667 21.2521 4.1296 21.5779 4.45545C21.9038 4.7813 22.0667 5.18161 22.0667 5.65638V9.5679C21.4825 9.73328 20.9852 10.0185 20.5747 10.4237C20.1643 10.8288 19.959 11.3542 19.959 12C19.959 12.6346 20.1643 13.1489 20.5747 13.5429C20.9852 13.937 21.4825 14.2222 22.0667 14.3987V18.3102C22.0667 18.785 21.9038 19.1853 21.5779 19.5112C21.2521 19.837 20.8518 19.9999 20.377 19.9999H3.6565ZM3.6565 18.3102H20.377V15.6423C19.7369 15.2607 19.2255 14.7467 18.843 14.1003C18.4606 13.4539 18.2693 12.7509 18.2693 11.9912C18.2693 11.2315 18.4606 10.53 18.843 9.88667C19.2255 9.24341 19.7369 8.71967 20.377 8.31547V5.65638H3.6565V8.32432C4.30653 8.73034 4.82032 9.25182 5.19787 9.88877C5.57542 10.5257 5.7642 11.2253 5.7642 11.9875C5.7642 12.7497 5.57574 13.4539 5.19882 14.1003C4.82189 14.7467 4.30778 15.2607 3.6565 15.6423V18.3102Z" fill="#FB7911"/>
</g>
</g>
<defs>
<clipPath id="clip0_492_6101">
<rect width="24" height="24" fill="white"/>
</clipPath>
</defs>
</svg>
