<svg width="48" height="48" viewBox="0 0 48 48" fill="none" xmlns="http://www.w3.org/2000/svg">
<path fill-rule="evenodd" clip-rule="evenodd" d="M5 16C5 9.37258 10.3726 4 17 4C23.6274 4 29 9.37258 29 16C29 20.163 26.8802 23.8308 23.6611 25.983C23.547 26.042 23.4397 26.1115 23.3403 26.1902C21.5006 27.3372 19.3277 28 17 28C10.3726 28 5 22.6274 5 16ZM22.9722 30.8482C21.1269 31.5911 19.1112 32 17 32C14.8896 32 12.8747 31.5914 11.0299 30.849L9.52889 42.1503L15.971 38.285C16.6044 37.905 17.3956 37.905 18.029 38.285L24.4718 42.1507L22.9722 30.8482ZM7.279 28.7094C3.46167 25.7852 1 21.1801 1 16C1 7.16344 8.16344 0 17 0C25.8366 0 33 7.16344 33 16C33 21.1791 30.5393 25.7834 26.7233 28.7077L28.9826 45.737C29.0836 46.4982 28.7398 47.2501 28.098 47.6717C27.4561 48.0933 26.6295 48.1101 25.971 47.715L17 42.3324L8.02899 47.715C7.37045 48.1101 6.54381 48.0933 5.90192 47.6716C5.26004 47.2499 4.91629 46.498 5.01741 45.7367L7.279 28.7094Z" fill="white"/>
<path d="M33.0215 35.8893C32.7377 35.8893 32.5292 35.8248 32.3962 35.6957C32.272 35.5574 32.2099 35.3592 32.2099 35.101C32.2099 34.9442 32.2498 34.7921 32.3297 34.6445C32.4095 34.497 32.5248 34.3402 32.6756 34.1743L35.3499 31.2144C35.758 30.7718 36.0507 30.3707 36.2281 30.0111C36.4055 29.6422 36.4942 29.2734 36.4942 28.9046C36.4942 28.4435 36.3522 28.0931 36.0684 27.8534C35.7934 27.6136 35.3898 27.4938 34.8576 27.4938C34.5561 27.4938 34.2545 27.5399 33.9529 27.6321C33.6513 27.7151 33.3453 27.8626 33.0348 28.0747C32.8752 28.1853 32.7244 28.2314 32.5825 28.213C32.4494 28.1946 32.3297 28.1346 32.2232 28.0332C32.1257 27.9318 32.0591 27.8073 32.0237 27.6598C31.9882 27.5122 31.9926 27.3647 32.037 27.2172C32.0902 27.0604 32.1966 26.9267 32.3563 26.816C32.7377 26.5486 33.1635 26.3458 33.6336 26.2075C34.1126 26.0692 34.5915 26 35.0705 26C35.7446 26 36.3123 26.106 36.7736 26.3181C37.2348 26.5302 37.5852 26.8391 37.8247 27.2448C38.0642 27.6505 38.1839 28.1438 38.1839 28.7248C38.1839 29.112 38.1218 29.4901 37.9976 29.8589C37.8823 30.2278 37.7005 30.6012 37.4521 30.9793C37.2126 31.3573 36.8978 31.7584 36.5075 32.1826L34.0061 34.8935V34.4232H37.9178C38.1573 34.4232 38.3391 34.4832 38.4633 34.603C38.5875 34.7229 38.6496 34.9027 38.6496 35.1425C38.6496 35.3822 38.5875 35.5666 38.4633 35.6957C38.3391 35.8248 38.1573 35.8893 37.9178 35.8893H33.0215Z" fill="white"/>
<path d="M44.7248 36C44.4587 36 44.2503 35.9262 44.0995 35.7787C43.9487 35.6219 43.8733 35.4006 43.8733 35.1148V34.036H40.5869C40.312 34.036 40.0902 33.976 39.9217 33.8562C39.762 33.7363 39.6822 33.5473 39.6822 33.2891C39.6822 33.1415 39.7177 32.9802 39.7886 32.805C39.8685 32.6298 40.006 32.3993 40.2011 32.1134L43.8467 26.6224C43.9709 26.4288 44.1084 26.2812 44.2591 26.1798C44.4099 26.0784 44.5829 26.0277 44.778 26.0277C45.0087 26.0277 45.1994 26.1014 45.3502 26.249C45.501 26.3873 45.5764 26.6086 45.5764 26.9129V32.5698H46.2283C46.4855 32.5698 46.6762 32.6344 46.8004 32.7635C46.9335 32.8834 47 33.0632 47 33.3029C47 33.5426 46.9335 33.7271 46.8004 33.8562C46.6762 33.976 46.4855 34.036 46.2283 34.036H45.5764V35.1148C45.5764 35.4006 45.501 35.6219 45.3502 35.7787C45.1994 35.9262 44.9909 36 44.7248 36ZM43.8733 32.5698V28.2545H44.2591L41.1191 33.0401V32.5698H43.8733Z" fill="white"/>
<path d="M33.0215 35.8893C32.7377 35.8893 32.5292 35.8248 32.3962 35.6957C32.272 35.5574 32.2099 35.3592 32.2099 35.101C32.2099 34.9442 32.2498 34.7921 32.3297 34.6445C32.4095 34.497 32.5248 34.3402 32.6756 34.1743L35.3499 31.2144C35.758 30.7718 36.0507 30.3707 36.2281 30.0111C36.4055 29.6422 36.4942 29.2734 36.4942 28.9046C36.4942 28.4435 36.3522 28.0931 36.0684 27.8534C35.7934 27.6136 35.3898 27.4938 34.8576 27.4938C34.5561 27.4938 34.2545 27.5399 33.9529 27.6321C33.6513 27.7151 33.3453 27.8626 33.0348 28.0747C32.8752 28.1853 32.7244 28.2314 32.5825 28.213C32.4494 28.1946 32.3297 28.1346 32.2232 28.0332C32.1257 27.9318 32.0591 27.8073 32.0237 27.6598C31.9882 27.5122 31.9926 27.3647 32.037 27.2172C32.0902 27.0604 32.1966 26.9267 32.3563 26.816C32.7377 26.5486 33.1635 26.3458 33.6336 26.2075C34.1126 26.0692 34.5915 26 35.0705 26C35.7446 26 36.3123 26.106 36.7736 26.3181C37.2348 26.5302 37.5852 26.8391 37.8247 27.2448C38.0642 27.6505 38.1839 28.1438 38.1839 28.7248C38.1839 29.112 38.1218 29.4901 37.9976 29.8589C37.8823 30.2278 37.7005 30.6012 37.4521 30.9793C37.2126 31.3573 36.8978 31.7584 36.5075 32.1826L34.0061 34.8935V34.4232H37.9178C38.1573 34.4232 38.3391 34.4832 38.4633 34.603C38.5875 34.7229 38.6496 34.9027 38.6496 35.1425C38.6496 35.3822 38.5875 35.5666 38.4633 35.6957C38.3391 35.8248 38.1573 35.8893 37.9178 35.8893H33.0215Z" stroke="white" stroke-width="0.4"/>
<path d="M44.7248 36C44.4587 36 44.2503 35.9262 44.0995 35.7787C43.9487 35.6219 43.8733 35.4006 43.8733 35.1148V34.036H40.5869C40.312 34.036 40.0902 33.976 39.9217 33.8562C39.762 33.7363 39.6822 33.5473 39.6822 33.2891C39.6822 33.1415 39.7177 32.9802 39.7886 32.805C39.8685 32.6298 40.006 32.3993 40.2011 32.1134L43.8467 26.6224C43.9709 26.4288 44.1084 26.2812 44.2591 26.1798C44.4099 26.0784 44.5829 26.0277 44.778 26.0277C45.0087 26.0277 45.1994 26.1014 45.3502 26.249C45.501 26.3873 45.5764 26.6086 45.5764 26.9129V32.5698H46.2283C46.4855 32.5698 46.6762 32.6344 46.8004 32.7635C46.9335 32.8834 47 33.0632 47 33.3029C47 33.5426 46.9335 33.7271 46.8004 33.8562C46.6762 33.976 46.4855 34.036 46.2283 34.036H45.5764V35.1148C45.5764 35.4006 45.501 35.6219 45.3502 35.7787C45.1994 35.9262 44.9909 36 44.7248 36ZM43.8733 32.5698V28.2545H44.2591L41.1191 33.0401V32.5698H43.8733Z" stroke="white" stroke-width="0.4"/>
</svg>
