<svg width="48" height="48" viewBox="0 0 48 48" fill="none" xmlns="http://www.w3.org/2000/svg">
<g clip-path="url(#clip0_492_6208)">
<path fill-rule="evenodd" clip-rule="evenodd" d="M2.92893 30.9289C4.8043 29.0536 7.34783 28 10 28H24C26.6522 28 29.1957 29.0536 31.0711 30.9289C32.9464 32.8043 34 35.3478 34 38V42C34 43.1046 33.1046 44 32 44C30.8954 44 30 43.1046 30 42V38C30 36.4087 29.3679 34.8826 28.2426 33.7574C27.1174 32.6321 25.5913 32 24 32H10C8.4087 32 6.88258 32.6321 5.75736 33.7574C4.63214 34.8826 4 36.4087 4 38V42C4 43.1046 3.10457 44 2 44C0.89543 44 0 43.1046 0 42V38C0 35.3478 1.05357 32.8043 2.92893 30.9289Z" fill="#212B36"/>
<path fill-rule="evenodd" clip-rule="evenodd" d="M17 8C13.6863 8 11 10.6863 11 14C11 17.3137 13.6863 20 17 20C20.3137 20 23 17.3137 23 14C23 10.6863 20.3137 8 17 8ZM7 14C7 8.47715 11.4772 4 17 4C22.5228 4 27 8.47715 27 14C27 19.5228 22.5228 24 17 24C11.4772 24 7 19.5228 7 14Z" fill="#212B36"/>
<path fill-rule="evenodd" clip-rule="evenodd" d="M34.9999 18.6667C34.9999 15.9052 37.2385 13.6667 39.9999 13.6667C42.7613 13.6667 44.9999 15.9052 44.9999 18.6667C44.9999 20.4012 44.1167 21.9295 42.7754 22.8262C42.7278 22.8508 42.6831 22.8798 42.6417 22.9126C41.8752 23.3905 40.9698 23.6667 39.9999 23.6667C37.2385 23.6667 34.9999 21.4281 34.9999 18.6667ZM42.4883 24.8534C41.7195 25.163 40.8796 25.3333 39.9999 25.3333C39.1206 25.3333 38.281 25.1631 37.5124 24.8538L36.887 29.5626L39.5712 27.9521C39.8351 27.7938 40.1648 27.7938 40.4287 27.9521L43.1132 29.5628L42.4883 24.8534ZM35.9495 23.9622C34.3589 22.7438 33.3333 20.825 33.3333 18.6667C33.3333 14.9848 36.318 12 39.9999 12C43.6818 12 46.6666 14.9848 46.6666 18.6667C46.6666 20.8246 45.6413 22.7431 44.0513 23.9615L44.9927 31.0571C45.0348 31.3743 44.8915 31.6875 44.6241 31.8632C44.3566 32.0389 44.0122 32.0459 43.7378 31.8812L39.9999 29.6385L36.262 31.8812C35.9876 32.0459 35.6432 32.0389 35.3757 31.8632C35.1083 31.6875 34.965 31.3742 35.0072 31.0569L35.9495 23.9622Z" fill="#212B36" stroke="#212B36" stroke-width="0.4" stroke-linecap="round" stroke-linejoin="round"/>
<path d="M39.9952 21.5833L40.9028 19.5696L42.9166 18.6714L40.9028 17.7638L39.9952 15.75L39.097 17.7638L37.0833 18.6714L39.0954 19.5711L39.9952 21.5833Z" fill="#212B36"/>
</g>
<defs>
<clipPath id="clip0_492_6208">
<rect width="48" height="48" fill="white"/>
</clipPath>
</defs>
</svg>
