<svg width="39" height="44" viewBox="0 0 39 44" fill="none" xmlns="http://www.w3.org/2000/svg">
<path fill-rule="evenodd" clip-rule="evenodd" d="M18.5938 0.15828C17.544 0.74766 1.32379 10.1413 0.866153 10.425C0.550128 10.6209 0.225869 10.9255 0.145731 11.1018C0.0469299 11.3192 0 14.8489 0 22.071V32.7195L0.377364 33.1281C0.584846 33.3528 2.76162 34.6948 5.21449 36.1103C7.66735 37.5259 11.7423 39.8801 14.2701 41.342C16.9701 42.9036 19.0109 44 19.2173 44C19.6738 44 37.5347 33.6904 38.0452 33.1322L38.4225 32.7195V22.071C38.4225 14.7932 38.376 11.3201 38.2756 11.0991C38.0899 10.6907 38.9996 11.2431 28.5497 5.19428C23.0049 1.98473 19.4348 -0.00247292 19.2185 2.30965e-06C19.0259 0.00234003 18.7447 0.0735718 18.5938 0.15828ZM27.5819 7.61395L35.7467 12.339V21.9979V31.6568L27.5819 36.3819C23.0913 38.9806 19.3282 41.1082 19.2196 41.1096C19.0551 41.1118 11.4245 36.7527 4.35684 32.619L2.60724 31.5958V21.9966V12.3975L4.49406 11.2971C12.8722 6.41099 19.0391 2.88736 19.2113 2.88805C19.3245 2.88846 23.0913 5.01523 27.5819 7.61395ZM6.16311 16.8112C5.65676 17.2008 5.62616 17.4958 5.62616 21.9957C5.62616 27.3123 5.63851 27.3609 6.98563 27.3609C7.36038 27.3609 7.58955 27.265 7.83216 27.0064C8.15518 26.6621 8.16671 26.5741 8.2334 23.9623L8.30201 21.2727L9.44577 24.0289C10.0748 25.5447 10.7272 26.9146 10.8954 27.073C11.1593 27.3213 11.3717 27.3609 12.4379 27.3609C13.5898 27.3609 13.6972 27.3366 14.0072 27.006L14.3398 26.6512V21.9979V17.3446L14.0072 16.9899C13.5398 16.4912 12.6701 16.4911 12.2024 16.9894C11.8787 17.3343 11.868 17.4179 11.8012 20.0921L11.7326 22.8403L10.5818 20.047C9.94897 18.5107 9.30525 17.1146 9.15142 16.9443C8.89976 16.666 8.74648 16.6353 7.62632 16.6393C6.86446 16.6419 6.29635 16.7088 6.16311 16.8112ZM17.0053 16.9899L16.6726 17.3446V21.9979V26.6512L17.0053 27.006C17.2594 27.2772 17.47 27.3598 17.8972 27.3565C18.932 27.3484 19.2113 26.8836 19.2113 25.1698V23.9231H20.8641C22.4362 23.9231 22.5336 23.9066 22.8539 23.5855C23.3219 23.1165 23.3219 22.2545 22.8539 21.7855C22.5336 21.4644 22.4362 21.4479 20.8641 21.4479H19.2113V20.279V19.1102H21.5502C23.8508 19.1102 23.8948 19.1047 24.2261 18.7726C24.4741 18.5242 24.563 18.2865 24.563 17.8726C24.563 17.4586 24.4741 17.2209 24.2261 16.9725L23.8893 16.6349H20.6137H17.338L17.0053 16.9899ZM25.86 16.9988C25.4085 17.487 25.4158 18.1358 25.8788 18.687C26.2167 19.0894 26.2839 19.1102 27.251 19.1102H28.268V22.7611C28.268 27.2199 28.3097 27.3609 29.6275 27.3609C30.0022 27.3609 30.2313 27.265 30.474 27.0063L30.8066 26.6516L30.8471 22.8809L30.8876 19.1102H31.8343C32.6351 19.1102 32.8399 19.0594 33.163 18.781C33.6739 18.3405 33.6983 17.5018 33.2153 16.9864L32.8857 16.6349H29.5412H26.1966L25.86 16.9988Z" fill="white"/>
</svg>
