<svg width="24" height="24" viewBox="0 0 24 24" fill="none" xmlns="http://www.w3.org/2000/svg">
<path fill-rule="evenodd" clip-rule="evenodd" d="M1.30387 9.21646C1.03028 10.3133 0.974445 10.8905 1.00928 12.2632C1.03396 13.2363 1.06534 13.5714 1.18444 14.1358C1.4375 15.3347 2.06855 16.9644 2.51515 17.5723C2.61166 17.7038 2.81303 17.8837 2.9626 17.9722C3.19954 18.1125 3.29282 18.1332 3.68841 18.1332C4.44134 18.1332 4.9975 18.0525 5.20477 17.9131C5.59911 17.6479 5.58901 17.7446 5.58907 14.2424L5.58918 11.0943L5.71684 10.9054C5.99004 10.5012 6.05921 10.4795 7.1393 10.4589C8.24924 10.4377 8.43047 10.473 8.71144 10.7648L8.90844 10.9694L8.92404 14.1371C8.93261 15.8793 8.95014 17.3048 8.96308 17.3048C8.97596 17.3048 9.16042 17.2645 9.37302 17.2152C9.82807 17.1099 9.98099 17.0207 10.1308 16.7732C10.2375 16.597 10.2414 16.4559 10.2416 12.7321L10.2418 8.8735L10.3695 8.6188C10.4536 8.45101 10.5745 8.32052 10.7241 8.2363C10.9341 8.11798 11.0232 8.10839 11.9178 8.10747C12.8089 8.10662 12.9042 8.11661 13.1364 8.23511C13.2856 8.3112 13.4351 8.44518 13.503 8.56361C13.614 8.75695 13.6188 8.88172 13.6462 12.3129L13.6746 15.8622L14.1516 15.6551C14.9419 15.312 14.8614 15.8408 14.8945 10.7734C14.9259 5.94126 14.9028 6.21458 15.305 5.92578C15.4809 5.79941 15.5446 5.79186 16.5692 5.77518C17.6197 5.7581 17.6535 5.76113 17.8445 5.89082C17.9525 5.96406 18.0989 6.11072 18.1698 6.21675L18.2988 6.40952V9.89084C18.2988 12.0148 18.3194 13.3648 18.3516 13.3531C18.3807 13.3427 18.7183 13.0899 19.1019 12.7914C20.3645 11.8088 22.0781 10.0298 22.3433 9.42619C22.5871 8.87104 22.4588 8.2663 21.8207 6.96387C17.4504 -1.95597 3.75207 -0.597306 1.30387 9.21646ZM22.7409 11.4566C22.074 12.4353 20.9488 13.6949 19.9486 14.5824C16.491 17.6502 11.8712 19.7403 6.4119 20.7064C5.9438 20.7892 5.55151 20.8663 5.54016 20.8776C5.48955 20.9278 6.56794 21.5743 7.25023 21.9028C10.9668 23.6919 15.2567 23.2725 18.5825 20.7947C21.3482 18.7342 23.0811 15.2892 22.9971 11.8201L22.9798 11.106L22.7409 11.4566Z" fill="#777777"/>
</svg>
