<svg width="24" height="24" viewBox="0 0 24 24" fill="none" xmlns="http://www.w3.org/2000/svg">
<path d="M23.1429 5.09719C22.3232 5.45076 21.4313 5.70523 20.5125 5.80434C21.4664 5.23765 22.1807 4.34237 22.5215 3.28648C21.6264 3.81895 20.6458 4.19233 19.6232 4.39005C19.1959 3.93316 18.679 3.56917 18.1048 3.32078C17.5306 3.07239 16.9114 2.94492 16.2857 2.9463C13.7545 2.9463 11.7188 4.99809 11.7188 7.51594C11.7188 7.86951 11.7616 8.22309 11.8313 8.56326C8.0411 8.36505 4.66074 6.55434 2.41342 3.78201C2.00393 4.48143 1.78935 5.2778 1.79199 6.08826C1.79199 7.67398 2.59824 9.07219 3.82771 9.89451C3.10316 9.86598 2.39559 9.66683 1.76253 9.31326V9.36951C1.76253 11.59 3.33217 13.4302 5.42414 13.8534C5.03135 13.9555 4.62728 14.0077 4.22146 14.0088C3.92414 14.0088 3.64288 13.9793 3.35896 13.9392C3.93753 15.7499 5.62235 17.0651 7.6286 17.1079C6.05896 18.3374 4.09289 19.0606 1.95806 19.0606C1.57503 19.0606 1.22146 19.0472 0.854492 19.0043C2.87949 20.3034 5.28217 21.0534 7.86967 21.0534C16.2697 21.0534 20.8661 14.0945 20.8661 8.05434C20.8661 7.85612 20.8661 7.65791 20.8527 7.45969C21.742 6.8088 22.5215 6.00255 23.1429 5.09719Z" fill="#777777"/>
</svg>
