<svg width="16" height="15" viewBox="0 0 16 15" fill="none" xmlns="http://www.w3.org/2000/svg">
<path fill-rule="evenodd" clip-rule="evenodd" d="M4 4.16732C4 3.06275 4.89543 2.16732 6 2.16732C7.10457 2.16732 8 3.06275 8 4.16732C8 5.27189 7.10457 6.16732 6 6.16732C4.89543 6.16732 4 5.27189 4 4.16732ZM6 0.833984C4.15905 0.833984 2.66667 2.32637 2.66667 4.16732C2.66667 6.00827 4.15905 7.50065 6 7.50065C7.84095 7.50065 9.33333 6.00827 9.33333 4.16732C9.33333 2.32637 7.84095 0.833984 6 0.833984ZM3.33333 8.83398C2.44928 8.83398 1.60143 9.18517 0.976311 9.8103C0.35119 10.4354 0 11.2833 0 12.1673V13.5007C0 13.8688 0.298477 14.1673 0.666667 14.1673C1.03486 14.1673 1.33333 13.8688 1.33333 13.5007V12.1673C1.33333 11.6369 1.54405 11.1282 1.91912 10.7531C2.29419 10.378 2.8029 10.1673 3.33333 10.1673H8.66667C9.1971 10.1673 9.70581 10.378 10.0809 10.7531C10.456 11.1282 10.6667 11.6369 10.6667 12.1673V13.5007C10.6667 13.8688 10.9651 14.1673 11.3333 14.1673C11.7015 14.1673 12 13.8688 12 13.5007V12.1673C12 11.2833 11.6488 10.4354 11.0237 9.8103C10.3986 9.18517 9.55072 8.83398 8.66667 8.83398H3.33333ZM12.6878 9.42065C12.7799 9.06416 13.1435 8.84978 13.5 8.94182C14.2151 9.12646 14.8486 9.54337 15.3011 10.1271C15.7536 10.7108 15.9994 11.4283 16 12.1668V13.5007C16 13.8688 15.7015 14.1673 15.3333 14.1673C14.9651 14.1673 14.6667 13.8688 14.6667 13.5007V12.1678C14.6663 11.7248 14.5188 11.2942 14.2473 10.944C13.9759 10.5937 13.5957 10.3436 13.1667 10.2328C12.8102 10.1408 12.5958 9.77715 12.6878 9.42065ZM10.832 0.941485C10.4753 0.85016 10.1122 1.06528 10.0208 1.42196C9.92951 1.77864 10.1446 2.14183 10.5013 2.23315C10.9315 2.3433 11.3128 2.5935 11.5851 2.94431C11.8574 3.29511 12.0052 3.72657 12.0052 4.17065C12.0052 4.61474 11.8574 5.04619 11.5851 5.397C11.3128 5.7478 10.9315 5.998 10.5013 6.10815C10.1446 6.19948 9.92951 6.56266 10.0208 6.91934C10.1122 7.27603 10.4753 7.49114 10.832 7.39982C11.549 7.21623 12.1846 6.79923 12.6384 6.21456C13.0922 5.62989 13.3386 4.91079 13.3386 4.17065C13.3386 3.43051 13.0922 2.71142 12.6384 2.12674C12.1846 1.54207 11.549 1.12507 10.832 0.941485Z" fill="white"/>
</svg>
